<svg xmlns="http://www.w3.org/2000/svg" viewBox="0 0 165.82 247.1"><defs><style>.cls-1{isolation:isolate;}.cls-2,.cls-3{fill:none;stroke:#e6e6e6;}.cls-2,.cls-3,.cls-7{stroke-miterlimit:10;}.cls-3{mix-blend-mode:screen;}.cls-4{fill:#eefdff;}.cls-5{fill:#f2f2f2;}.cls-6{fill:#fff;}.cls-7{fill:#e6e6e6;stroke:#f2f2f2;}</style></defs><title>marca_bot</title><g class="cls-1"><g id="Camada_1" data-name="Camada 1"><path class="cls-2" d="M-431.64,358.3c23,6.3,28.46,4.54,32.56,10.71a14.05,14.05,0,0,1,2.39,9,13.35,13.35,0,0,1-3.74,7.81c-7.88,7.63-29.58-1.7-42-11.92-2.71-2.23-10-8.2-8.51-12.44.6-1.74,2.46-2.6,3.8-3.2C-441.24,355.6-435.11,357.35-431.64,358.3Z" transform="translate(451.65 -194.67)"/><rect class="cls-2" x="86.17" y="8.92" width="4.9" height="32.15"/><rect class="cls-2" x="67.19" y="37.7" width="42.87" height="21.13" rx="4.52" ry="4.52"/><path class="cls-2" d="M74.84,47.8H102.4a62.92,62.92,0,0,1,62.92,62.92v18.37A35.36,35.36,0,0,1,130,164.46H47.29a35.36,35.36,0,0,1-35.36-35.36V110.72A62.92,62.92,0,0,1,74.84,47.8Z"/><path class="cls-2" d="M-310.46,320.42h0a14.8,14.8,0,0,1-6.54,1.51h-92.05a14.8,14.8,0,0,1-6.54-1.51h0a12.1,12.1,0,0,1-7-12.41l.05-.37c2.36-17.1,17.85-30.25,36.83-31.23,8-.42,16.46-.63,25.26-.58q10.33.06,20,.57c19.06,1,34.66,14.08,37,31.24l.05.37A12.1,12.1,0,0,1-310.46,320.42Z" transform="translate(451.65 -194.67)"/><circle class="cls-3" cx="64.36" cy="106.13" r="17.36"/><circle class="cls-4" cx="64.36" cy="106.13" r="12.46"/><circle class="cls-5" cx="64.36" cy="106.13" r="10.46"/><circle class="cls-4" cx="67.19" cy="103.42" r="3.88"/><circle class="cls-4" cx="62.81" cy="114.15" r="1.55"/><circle class="cls-4" cx="58.21" cy="111.83" r="0.77"/><circle class="cls-3" cx="111.25" cy="106.13" r="17.36"/><circle class="cls-4" cx="111.25" cy="106.13" r="12.46"/><circle class="cls-5" cx="111.25" cy="106.13" r="10.46"/><circle class="cls-4" cx="114.08" cy="103.42" r="3.88"/><circle class="cls-4" cx="109.71" cy="114.15" r="1.55"/><circle class="cls-4" cx="105.1" cy="111.83" r="0.77"/><circle class="cls-2" cx="88.62" cy="6.78" r="6.28"/><circle class="cls-6" cx="91.07" cy="4.33" r="1.91"/><path class="cls-6" d="M-309,262.6c.08,2.93-2.31,6.43-5,6.73-2.57.28-4.62-2.34-6.73-5s-6.64-9.52-4.83-11.46C-323.2,250.27-309.18,255.69-309,262.6Z" transform="translate(451.65 -194.67)"/><circle class="cls-6" cx="119.2" cy="54.58" r="2.18"/><path class="cls-6" d="M-309.29,303.25c-.7.49-5.58-9.45-18.68-18.06-4.6-3-9.15-5.19-8.88-5.82s5.39.55,9.49,2.45C-314.3,287.87-308.46,302.66-309.29,303.25Z" transform="translate(451.65 -194.67)"/><path class="cls-6" d="M-342.83,238.63c-.16,0-.26-.89-1-2.31a12.49,12.49,0,0,0-.77-1.22c-1.32-1.81-5.77-1.77-6.12-1.77-6.94.06-11.41-.38-11.41-.34s3.26,0,5.64-.08c6.73-.14,10.74-.5,12.46,1.3a5.66,5.66,0,0,1,1.07,1.72A3.62,3.62,0,0,1-342.83,238.63Z" transform="translate(451.65 -194.67)"/><path class="cls-6" d="M-344.28,329.38a3.54,3.54,0,0,1-3.22,3.1l-23,2.22a3.54,3.54,0,0,1-3.75-2.43,15.51,15.51,0,0,1-.49-2.2.77.77,0,0,1,.15-.59.77.77,0,0,1,.53-.29l29-2.8a.76.76,0,0,1,.57.18.76.76,0,0,1,.26.54A15.58,15.58,0,0,1-344.28,329.38Z" transform="translate(451.65 -194.67)"/><path class="cls-2" d="M-344.28,329.38a15.35,15.35,0,0,1-13.81,13.7,15.33,15.33,0,0,1-16.06-10.53,3.55,3.55,0,0,0,3.66,2.15l23-2.21A3.55,3.55,0,0,0-344.28,329.38Z" transform="translate(451.65 -194.67)"/><path class="cls-2" d="M-308,381c0,.21,0,.41,0,.61a14.22,14.22,0,0,1-.74,4c-6.33,19.33-10.12,29.53-15.44,37.78-.92,1.42-1.88,2.79-2.92,4.13-1.36,1.79-2.85,3.54-4.5,5.34-3.67,4-9.23,5.81-11,6.43-6.55,2.31-12.34,1.89-16.18,1.93h-.67c-3.86,0-9.64.39-16.18-1.93-1.79-.62-7.36-2.43-11-6.43-10.1-11-14-20.13-22.86-47.25a14.17,14.17,0,0,1-.73-3.78,15,15,0,0,1,0-1.57,16.45,16.45,0,0,1,3.84-9.32A21.27,21.27,0,0,1-390,363.25l30.76-.13L-329,363a21.79,21.79,0,0,1,17,7.75,16.87,16.87,0,0,1,3.75,7.8c.06.39.12.78.16,1.17S-308,380.58-308,381Z" transform="translate(451.65 -194.67)"/><path class="cls-6" d="M-359.21,363.12l-30.76.13A21.27,21.27,0,0,0-406.52,371a16.45,16.45,0,0,0-3.84,9.32,16.3,16.3,0,0,1,4-9.55,21.78,21.78,0,0,1,17-7.75Z" transform="translate(451.65 -194.67)"/><path class="cls-2" d="M-328.63,408.44c-.45-23.86-3.68-28.58,1.08-34.26a14.06,14.06,0,0,1,7.93-4.83,13.35,13.35,0,0,1,8.55,1.39c9.55,5.41,6.71,28.86.43,43.66-1.37,3.23-5.05,11.89-9.53,11.68-1.84-.08-3.19-1.63-4.14-2.74C-328.52,418.42-328.56,412-328.63,408.44Z" transform="translate(451.65 -194.67)"/><path class="cls-7" d="M-324.24,423.44c-.92,1.42-1.88,2.79-2.92,4.13-.33-.34-.62-.68-.89-1-4.21-4.92-4.25-11.3-4.32-14.9-.45-23.86-3.68-28.58,1.08-34.25a14.89,14.89,0,0,1,3.7-3.2c-4.7,5.66-1.5,10.42-1,34.21.06,3.6.12,10,4.32,14.91A.36.36,0,0,1-324.24,423.44Z" transform="translate(451.65 -194.67)"/><path class="cls-6" d="M-310.78,388.57a39.51,39.51,0,0,0-1.58-8.22c-1.26-4.93-2.84-7.34-1.81-8.29.67-.62,2-.2,2.28-.11,4.51,1.44,5.91,9.9,5.71,15.2-.12,3.24-.91,6.87-2.1,7a1.35,1.35,0,0,1-1-.29C-310.58,392.71-310.67,390.52-310.78,388.57Z" transform="translate(451.65 -194.67)"/><circle class="cls-6" cx="143.03" cy="202.95" r="0.94"/></g></g></svg>