<svg id="Camada_1" data-name="Camada 1" xmlns="http://www.w3.org/2000/svg" viewBox="0 0 1639.66 1020.65"><defs><style>.cls-1,.cls-3{opacity:0.14;}.cls-2,.cls-3{fill:#d4ceff;}</style></defs><title>marca</title><g class="cls-1"><polygon class="cls-2" points="663.19 504.05 663.19 516.58 673.98 510.31 663.19 504.05"/><polygon class="cls-2" points="676.86 504.05 676.86 516.58 687.65 510.31 676.86 504.05"/><polygon class="cls-2" points="690.53 504.05 690.53 516.58 701.32 510.31 690.53 504.05"/><polygon class="cls-2" points="704.2 504.05 704.2 516.58 714.99 510.31 704.2 504.05"/><polygon class="cls-2" points="717.87 504.05 717.87 516.58 728.66 510.31 717.87 504.05"/><polygon class="cls-2" points="731.53 504.05 731.53 516.58 742.33 510.31 731.53 504.05"/><polygon class="cls-2" points="745.21 504.05 745.21 516.58 756 510.31 745.21 504.05"/><polygon class="cls-2" points="758.87 504.05 758.87 516.58 769.66 510.31 758.87 504.05"/><polygon class="cls-2" points="772.54 504.05 772.54 516.58 783.34 510.31 772.54 504.05"/></g><path class="cls-3" d="M-1989.34,394a96.6,96.6,0,0,1-68.52-28.34,97,97,0,0,1,0-137,97,97,0,0,1,137,0,97,97,0,0,1,0,137A96.6,96.6,0,0,1-1989.34,394Zm0-192.33a95.22,95.22,0,0,0-67.54,27.93,95.63,95.63,0,0,0,0,135.09,95.63,95.63,0,0,0,135.09,0,95.63,95.63,0,0,0,0-135.09A95.22,95.22,0,0,0-1989.33,201.64Z" transform="translate(2320.23 54)"/><path class="cls-3" d="M-1962.8,446.17l-16-88.23.68-.12a61.25,61.25,0,0,0,32.47-17.07,62,62,0,0,0,11-15l.32-.61,79.37,41.76-.32.61a151.58,151.58,0,0,1-27,36.63A150.53,150.53,0,0,1-1962.12,446ZM-1977.24,359l15.55,85.52a149.15,149.15,0,0,0,78.43-41.39,150.18,150.18,0,0,0,26.42-35.68L-1933.77,327a63.32,63.32,0,0,1-11,14.7A62.62,62.62,0,0,1-1977.24,359Zm-112,51.8-.52-.46c-2.26-2-4.49-4.11-6.63-6.25a150.38,150.38,0,0,1-44.33-107,150.4,150.4,0,0,1,44.34-107A152.45,152.45,0,0,1-2082.72,178l.54-.43,55.35,70.56-.54.43a62.62,62.62,0,0,0-5.6,5A61.3,61.3,0,0,0-2051,297.11,61.3,61.3,0,0,0-2033,340.74c.87.87,1.79,1.73,2.71,2.55l.52.46Zm6.84-231.39a151.23,151.23,0,0,0-13,11.58,149,149,0,0,0-43.93,106.07,149,149,0,0,0,43.93,106.06c2,2,4,3.88,6.06,5.73l57.67-65c-.77-.7-1.52-1.42-2.26-2.15a62.67,62.67,0,0,1-18.48-44.61,62.67,62.67,0,0,1,18.48-44.61,64.12,64.12,0,0,1,5.19-4.65Zm149.66,93-.28-.63a61.67,61.67,0,0,0-12.68-18.33,61.57,61.57,0,0,0-28.82-16.29l-.67-.16,21.4-87.09.67.17a151.23,151.23,0,0,1,70.83,40,151,151,0,0,1,31,44.9l.28.63ZM-1973.52,236a63,63,0,0,1,28.79,16.49,63.05,63.05,0,0,1,12.67,18.11l79.25-35.71A149.66,149.66,0,0,0-1883.26,191a149.86,149.86,0,0,0-69.51-39.44Z" transform="translate(2320.23 54)"/><path class="cls-3" d="M-1987.15,385.37l-.24-9.66,1.3,0,.4,9.65Zm-5.83,0-1.46-.07.55-9.64,1.3.06Zm13.11-.43-1-9.6,1.29-.15,1.19,9.59Zm-20.38-.17-1.44-.19,1.34-9.56,1.29.17Zm27.59-.9-1.81-9.49,1.28-.25,2,9.46Zm-34.78-.29-1.43-.31,2.14-9.42,1.26.27Zm41.89-1.38-2.59-9.3,1.25-.36,2.74,9.26Zm-49-.41-1.39-.43,2.9-9.21,1.24.38Zm55.91-1.84-3.35-9.06,1.21-.46,3.5,9Zm-62.81-.52-1.36-.54,3.66-8.94,1.2.48Zm69.55-2.3-4.1-8.74,1.18-.56,4.23,8.68Zm-76.23-.63-1.31-.65,4.39-8.6,1.16.58Zm82.7-2.74-4.8-8.38,1.12-.66,5,8.29Zm-89.11-.73-1.25-.76,5.08-8.21,1.11.67Zm95.29-3.17-5.48-8,1.06-.75L-1938,369Zm-101.39-.82-1.18-.86,5.75-7.76,1,.76Zm107.22-3.58-6.13-7.46,1-.84,6.25,7.36Zm-113-.91-1.1-1,6.36-7.27,1,.85Zm118.42-3.95-6.72-6.94.93-.91,7,6.67-.18.18Zm-123.79-1,0,0-1-1,6.93-6.73.88.9Zm128.94-4.44-7.27-6.35.85-1,7.38,6.23Zm-133.89-.92-.94-1.12,7.46-6.13.84,1Zm138.46-4.76-7.77-5.73.76-1,7.87,5.6Zm-143-1-.84-1.2,7.95-5.49.75,1.06Zm147-5-8.22-5.07.67-1.1,8.31,4.93Zm-151-1.06-.74-1.26,8.37-4.81.66,1.13Zm154.6-5.3-8.61-4.38.58-1.16,8.68,4.23Zm-158.08-1.12-.63-1.31,8.74-4.11.57,1.18Zm161.11-5.52-9-3.63.48-1.21,9,3.49Q-1907.27,329.74-1907.54,330.41Zm-164-1.16q-.27-.68-.52-1.37l9.05-3.37.46,1.22Zm166.51-5.69-9.22-2.89q.19-.62.38-1.24l9.26,2.73Q-1904.86,322.86-1905.08,323.55ZM-2074,322.34q-.21-.7-.41-1.41l9.3-2.59q.17.62.36,1.24Zm170.76-5.83-9.42-2.12q.14-.63.27-1.26l9.46,2Q-1903,315.8-1903.2,316.51Zm-172.55-1.25q-.15-.71-.29-1.43l9.48-1.83q.12.64.26,1.28Zm173.86-5.93-9.57-1.33q.09-.64.17-1.29l9.59,1.17Q-1901.79,308.61-1901.89,309.33Zm-175.05-1.27q-.09-.72-.17-1.45l9.6-1q.07.65.15,1.29Zm175.76-6-9.64-.54q0-.65.06-1.3l9.65.38Q-1901.14,301.35-1901.19,302.07Zm-176.36-1.28q0-.73,0-1.46l9.66-.24q0,.65,0,1.3Zm166.81-5.76c0-.43,0-.87,0-1.3l9.65-.41q0,.73,0,1.46Zm-157.17-1.14-9.65-.4q0-.73.07-1.46l9.64.55Q-2067.87,293.25-2067.9,293.9Zm156.73-5.35q-.07-.65-.15-1.29l9.58-1.2q.09.72.17,1.45Zm-156.2-1.13-9.58-1.19q.09-.72.19-1.45l9.56,1.35C-2067.26,286.56-2067.32,287-2067.37,287.42Zm155.23-5.3q-.12-.64-.26-1.27l9.45-2q.15.72.29,1.44ZM-2066.31,281l-9.46-2q.15-.71.31-1.43l9.42,2.12Q-2066.18,280.37-2066.31,281Zm152.68-5.21q-.17-.63-.36-1.25l9.26-2.76q.21.7.41,1.4Zm-151.09-1.08L-2074,272q.21-.7.43-1.4l9.21,2.9Q-2064.54,274.09-2064.73,274.71Zm149.08-5.09-.47-1.22,9-3.52q.26.68.52,1.36Zm-147-1.06-9-3.5q.26-.68.54-1.35l8.94,3.65Q-2062.39,268-2062.63,268.57Zm144.46-4.94-.56-1.17,8.67-4.26q.32.66.64,1.32Zm-141.86-1-8.68-4.24.65-1.3,8.61,4.38Zm138.85-4.75-.66-1.12,8.28-5,.74,1.26Zm-135.77-1-8.3-4.94.76-1.25,8.21,5.08Zm132.28-4.54-.75-1.06,7.84-5.63.85,1.2Zm-128.73-.89-7.86-5.61.86-1.18,7.76,5.75Zm124.82-4.29-.84-1,7.35-6.27.94,1.12Zm-120.82-.84-7.37-6.24,1-1.11,7.27,6.36Zm116.49-4-.82-.83-.1-.1,6.83-6.83.1.1.92.93Zm-112-.83-6.9-6.76.07-.07,1-1,6.72,6.93Zm107.31-3.64-1-.85,6.24-7.37,1.1.95Zm-102.59-.71-6.26-7.36,1.12-.94,6.14,7.45Zm97.53-3.36-1.05-.77,5.61-7.86,1.17.85Zm-92.41-.64-5.62-7.85,1.19-.84,5.5,7.94Zm87-3-1.11-.67,4.94-8.3,1.24.75Zm-81.59-.57-5-8.29,1.26-.74,4.82,8.37Zm75.93-2.6-1.16-.58,4.23-8.68,1.31.65Zm-70.22-.5-4.25-8.67,1.32-.63,4.11,8.74Zm64.32-2.2-1.21-.48,3.49-9,1.35.54Zm-58.37-.42-3.52-9,1.36-.52,3.38,9Zm52.26-1.78-1.24-.38,2.73-9.26,1.4.43Zm-46.12-.33-2.76-9.26,1.41-.41,2.59,9.3Zm39.84-1.36-1.27-.27,2-9.46,1.43.31Zm-33.54-.24-2-9.45,1.43-.29,1.83,9.48Zm27.15-.92-1.28-.17,1.17-9.59,1.45.19Zm-20.73-.15-1.2-9.58,1.46-.17,1,9.6Zm14.27-.48-1.29-.06.38-9.65,1.46.07Zm-7.79-.06-.41-9.65,1.46,0,.24,9.66Z" transform="translate(2320.23 54)"/><path class="cls-3" d="M-1989.33,342.28h0q-1.12,0-2.24-.06l-.69,0,.55-11,.69,0a34.14,34.14,0,0,0,10.59-1.13l.67-.18,2.87,10.66-.67.18A45.37,45.37,0,0,1-1989.33,342.28Zm-1.48-1.4a43.82,43.82,0,0,0,12.22-1.31l-2.15-8a35.47,35.47,0,0,1-9.66,1Zm-9.39.09-.67-.18a44.87,44.87,0,0,1-12.9-5.68l-.58-.37,6-9.28.58.37a33.85,33.85,0,0,0,9.73,4.28l.67.18Zm-12.24-6.64a43.48,43.48,0,0,0,11.26,5l2.11-8a35.19,35.19,0,0,1-8.88-3.91Zm43,3.34-5-9.83.61-.31a34.11,34.11,0,0,0,8.6-6.27l.51-.52.48-.5,8,7.63-.48.5-.68.7a45.15,45.15,0,0,1-11.39,8.29Zm-3.17-9.23,3.77,7.37a43.81,43.81,0,0,0,10.43-7.72l.18-.18-6-5.73-.05.05A35.52,35.52,0,0,1-1972.56,328.43Zm-48,1.28-.67-.66a45.2,45.2,0,0,1-8.19-11.17l-.32-.61,9.8-5.08.32.61a34.13,34.13,0,0,0,6.19,8.44l.61.61Zm-7.3-11.85a43.79,43.79,0,0,0,7.3,9.9l5.82-5.89a35.48,35.48,0,0,1-5.76-7.81Zm76.61,3.65-9.37-5.83.36-.59a33.86,33.86,0,0,0,4.12-9.8l.16-.67,10.72,2.64-.17.67a44.86,44.86,0,0,1-5.47,13Zm-7.48-6.27,7,4.37a43.48,43.48,0,0,0,4.77-11.33l-8-2A35.21,35.21,0,0,1-1958.79,315.24Zm-73.92-5.46-.18-.67a45.32,45.32,0,0,1-1.62-12q0-1,0-2l0-.69,11,.48,0,.69q0,.75,0,1.51a34.33,34.33,0,0,0,1.22,9.08l.18.67Zm-.4-13.91q0,.62,0,1.24a44,44,0,0,0,1.39,11l8-2.19a35.73,35.73,0,0,1-1.1-8.78q0-.44,0-.88Zm88.9,3.44-11-.37,0-.69c0-.38,0-.76,0-1.14a34.32,34.32,0,0,0-1.32-9.43l-.19-.66,10.61-3,.19.66a45.33,45.33,0,0,1,1.75,12.47q0,.76,0,1.51Zm-9.61-1.7,8.27.28c0-.26,0-.52,0-.77a44,44,0,0,0-1.51-11.42l-8,2.28a35.73,35.73,0,0,1,1.19,9.15C-1953.82,297.28-1953.82,297.44-1953.83,297.61Zm-68.73-8.37-10.69-2.75.17-.67a44.9,44.9,0,0,1,5.61-12.93l.37-.58,9.31,5.93-.37.58a33.82,33.82,0,0,0-4.23,9.75Zm-9-3.74,8,2.06a35.2,35.2,0,0,1,3.86-8.9l-7-4.45A43.48,43.48,0,0,0-2031.56,285.49Zm72.7-3.79-.32-.61a34.13,34.13,0,0,0-6-8.11l-.89-.87,7.68-7.93,1,1a45.21,45.21,0,0,1,8,10.74l.32.61Zm-5.28-9.62a35.53,35.53,0,0,1,5.85,7.76l7.31-3.89a43.85,43.85,0,0,0-7.38-9.8h0Zm-50.06,1.63-7.91-7.7.85-.85a45.13,45.13,0,0,1,10.94-8.06l.61-.32,5.13,9.77-.61.32a34.14,34.14,0,0,0-8.28,6.1Zm-5.95-7.72,5.93,5.78a35.58,35.58,0,0,1,7.78-5.8l-3.85-7.33A43.73,43.73,0,0,0-2020.15,266Zm49.55,2.56-.58-.37A33.87,33.87,0,0,0-1981,264l-.67-.17,2.69-10.7.67.17a44.86,44.86,0,0,1,13,5.54l.58.37Zm-9.36-5.71a35.23,35.23,0,0,1,8.92,3.81l4.41-7a43.47,43.47,0,0,0-11.31-4.83Zm-19.29,1.59-3-10.63.66-.19a45.27,45.27,0,0,1,14-1.65l.69,0-.42,11-.69,0a34.25,34.25,0,0,0-10.58,1.25Zm-1.28-9.67,2.24,8a35.56,35.56,0,0,1,9.65-1.14l.32-8.27A43.78,43.78,0,0,0-2000.53,254.77Z" transform="translate(2320.23 54)"/><path class="cls-3" d="M-1990.62,547q-2.77,0-5.55-.09l.07-2.76q2.74.07,5.49.09Zm6.94-.06-.06-2.76q2.74-.06,5.48-.18l.12,2.76Q-1980.91,546.91-1983.68,547Zm-19.41-.31q-2.77-.15-5.53-.36l.21-2.75q2.74.21,5.48.36Zm31.89-.28-.2-2.75q2.74-.2,5.47-.46l.26,2.75Q-1968.44,546.19-1971.21,546.39Zm-44.33-.72q-2.76-.29-5.51-.64l.35-2.74q2.72.35,5.45.63Zm56.75-.49-.34-2.74q2.72-.33,5.44-.73l.4,2.73Q-1956,544.84-1958.78,545.18Zm-69.13-1.11q-2.74-.42-5.47-.91l.49-2.72q2.7.48,5.41.9Zm81.48-.71-.47-2.72q2.7-.47,5.4-1l.53,2.71Q-1943.7,542.87-1946.43,543.35Zm-93.76-1.51q-2.71-.56-5.42-1.18l.62-2.69q2.67.62,5.36,1.17Zm106-.93-.61-2.69q2.68-.6,5.34-1.27l.67,2.68Q-1931.47,540.3-1934.18,540.91Zm-118.16-1.9q-2.68-.7-5.35-1.45l.75-2.65q2.64.75,5.29,1.44Zm130.28-1.15-.74-2.66q2.64-.74,5.27-1.53l.8,2.64Q-1919.39,537.12-1922.07,537.86Zm-142.27-2.29q-2.64-.83-5.27-1.72l.88-2.61q2.6.88,5.21,1.7Zm154.22-1.36-.87-2.62q2.6-.87,5.19-1.8l.93,2.6Q-1907.49,533.33-1910.12,534.21Zm-166-2.67q-2.6-1-5.18-2l1-2.57q2.55,1,5.12,2Zm177.78-1.58-1-2.57q2.56-1,5.1-2.05l1.06,2.55Q-1895.78,529-1898.37,530Zm-189.36-3q-2.54-1.09-5.07-2.24l1.14-2.51q2.5,1.13,5,2.21Zm200.89-1.79-1.13-2.52q2.5-1.12,5-2.31l1.19,2.49Q-1884.31,524-1886.84,525.13Zm-212.22-3.4q-2.49-1.21-5-2.49l1.27-2.45q2.44,1.26,4.9,2.46Zm223.49-2-1.26-2.46q2.44-1.25,4.86-2.56l1.31,2.43Q-1873.1,518.46-1875.57,519.72ZM-2110.13,516q-2.42-1.34-4.82-2.73l1.39-2.38q2.37,1.38,4.76,2.7Zm245.54-2.23-1.38-2.39q2.38-1.37,4.73-2.8l1.43,2.36Q-1862.19,512.37-1864.59,513.75Zm-256.29-4.07q-2.35-1.46-4.67-3l1.5-2.31q2.3,1.5,4.62,2.94Zm267-2.45-1.5-2.32q2.31-1.49,4.59-3l1.55,2.28Q-1851.59,505.73-1853.92,507.24Zm-277.39-4.38q-2.27-1.57-4.52-3.2l1.62-2.23q2.22,1.61,4.47,3.16Zm287.72-2.66-1.61-2.24q2.23-1.61,4.43-3.26l1.66,2.2Q-1841.33,498.57-1843.59,500.19Zm-297.78-4.68q-2.19-1.68-4.35-3.42l1.73-2.15q2.14,1.72,4.3,3.38Zm307.75-2.88-1.72-2.16q2.15-1.71,4.26-3.48l1.77,2.12Q-1831.45,490.9-1833.62,492.63Zm-317.43-4.95q-2.11-1.79-4.19-3.64l1.83-2.06q2.06,1.83,4.14,3.6Zm327-3.1-1.83-2.07q2.05-1.81,4.07-3.68l1.87,2Q-1822,482.75-1824,484.58Zm-336.32-5.22q-2-1.89-4-3.84l1.93-2q2,1.92,4,3.8Zm345.47-3.27-1.93-2,2.26-2.23,1.63-1.65,2,1.93-1.65,1.67Zm-354.35-5.49q-1.93-2-3.81-4l2-1.87q1.86,2,3.77,4Zm363.07-3.44-2-1.88q1.87-2,3.69-4.06l2.06,1.83Q-1804.28,465.12-1806.17,467.16Zm-371.52-5.77q-1.83-2.1-3.61-4.23l2.12-1.77q1.76,2.11,3.57,4.18Zm379.79-3.58L-1800,456q1.76-2.1,3.48-4.23l2.15,1.73Q-1796.12,455.69-1797.9,457.81Zm-387.79-6q-1.73-2.19-3.4-4.4l2.2-1.66q1.65,2.19,3.36,4.35Zm395.57-3.69-2.2-1.67q1.66-2.18,3.26-4.4l2.23,1.62Q-1788.45,445.88-1790.12,448.09Zm-403.07-6.32q-1.61-2.27-3.17-4.57l2.28-1.55q1.54,2.27,3.14,4.52Zm410.36-3.78-2.28-1.56q1.55-2.27,3-4.56l2.31,1.51Q-1781.27,435.7-1782.84,438Zm-417.35-6.58q-1.5-2.35-2.94-4.72l2.36-1.43q1.42,2.35,2.9,4.67Zm424.12-3.88-2.35-1.44q1.43-2.34,2.81-4.7l2.38,1.39Q-1774.61,425.16-1776.06,427.53Zm-430.58-6.83q-1.38-2.42-2.7-4.86l2.43-1.31q1.3,2.41,2.67,4.8Zm436.82-4-2.42-1.32q1.31-2.41,2.57-4.84l2.45,1.27Q-1768.49,414.3-1769.82,416.74Zm-442.73-7.05q-1.25-2.48-2.45-5l2.49-1.19q1.18,2.48,2.42,4.93Zm448.42-4-2.49-1.2q1.19-2.47,2.32-5l2.51,1.14Q-1762.92,403.15-1764.13,405.65Zm-453.77-7.26q-1.13-2.54-2.19-5.1l2.55-1.06q1.05,2.53,2.17,5Zm458.9-4.11-2.54-1.07q1.06-2.53,2.07-5.07l2.57,1Q-1757.92,391.72-1759,394.28Zm-463.67-7.44q-1-2.6-1.93-5.21l2.6-.93q.93,2.58,1.91,5.15Zm468.22-4.17-2.59-.94q.94-2.58,1.82-5.17l2.61.89Q-1753.5,380.06-1754.44,382.67Zm-472.41-7.6q-.87-2.64-1.67-5.3l2.64-.8q.8,2.63,1.65,5.24Zm476.37-4.22-2.64-.81q.81-2.62,1.55-5.26l2.65.75Q-1749.66,368.19-1750.48,370.84Zm-480-7.74q-.73-2.68-1.4-5.37l2.68-.67q.66,2.66,1.39,5.31Zm483.33-4.27-2.67-.68q.67-2.66,1.29-5.33l2.69.62Q-1746.43,356.14-1747.11,358.83ZM-2233.42,351q-.6-2.71-1.13-5.43l2.71-.53q.53,2.69,1.12,5.38Zm489.08-4.31-2.71-.54q.54-2.69,1-5.39l2.72.49Q-1743.79,343.94-1744.34,346.66Zm-491.46-8q-.46-2.74-.86-5.48l2.73-.4q.4,2.71.85,5.42Zm493.61-4.34-2.73-.41q.41-2.71.75-5.43l2.74.35Q-1741.77,331.63-1742.18,334.37Zm-495.37-8q-.32-2.76-.58-5.52l2.75-.26q.26,2.73.58,5.46Zm496.92-4.36-2.75-.27q.27-2.73.48-5.47l2.75.21Q-1740.37,319.22-1740.64,322Zm-498.06-8.07q-.14-2.15-.25-4.3l2.76-.14q.11,2.13.25,4.26Zm499-4.37-2.76-.14q.13-2.74.21-5.48l2.76.08Q-1739.58,306.77-1739.71,309.54Zm.31-12.48h-2.76q0-2.74-.06-5.49l2.76-.06Q-1739.41,294.29-1739.41,297.06Zm-3.07-12.34q-.14-2.74-.33-5.48l2.75-.2q.2,2.77.34,5.54Zm-.92-12.31q-.27-2.73-.61-5.46l2.74-.34q.34,2.76.61,5.52Zm-1.53-12.25q-.41-2.71-.88-5.42l2.72-.47q.47,2.73.89,5.48Zm-2.14-12.16q-.54-2.69-1.15-5.37l2.69-.6q.61,2.71,1.16,5.43Zm-2.74-12q-.68-2.66-1.41-5.31l2.66-.74q.74,2.68,1.43,5.37Zm-3.34-11.89q-.81-2.62-1.68-5.23l2.62-.87q.88,2.64,1.7,5.29Zm-3.94-11.71q-.94-2.58-1.94-5.14l2.57-1q1,2.59,2,5.2Zm-4.52-11.5q-1.07-2.53-2.19-5l2.52-1.13q1.14,2.54,2.22,5.09Zm-5.09-11.26q-1.19-2.47-2.45-4.92l2.46-1.26q1.27,2.48,2.47,5Zm-5.66-11q-1.32-2.41-2.69-4.79l2.39-1.38q1.39,2.41,2.72,4.85Zm-6.2-10.7q-1.44-2.34-2.93-4.65l2.32-1.5q1.51,2.34,3,4.71Zm-6.74-10.37q-1.55-2.26-3.16-4.5l2.24-1.61q1.63,2.26,3.2,4.55Zm-7.25-10q-1.66-2.18-3.38-4.34l2.16-1.72q1.74,2.18,3.42,4.39Zm-7.75-9.65q-1.77-2.1-3.6-4.17l2.07-1.83q1.85,2.09,3.64,4.21Zm-8.21-9.24q-1.87-2-3.79-4l2-1.93q1.94,2,3.83,4Zm-8.64-8.82q-2-1.91-4-3.77l1.88-2q2,1.88,4,3.82Zm-9.06-8.38q-2.07-1.82-4.16-3.58l1.78-2.11q2.12,1.78,4.21,3.62Zm-9.46-7.92q-2.15-1.71-4.32-3.36l1.67-2.2q2.2,1.67,4.37,3.4Zm-9.83-7.43q-2.23-1.6-4.48-3.14l1.56-2.28q2.28,1.56,4.53,3.18Zm-10.19-6.93q-2.31-1.48-4.64-2.91l1.44-2.35q2.36,1.45,4.69,2.95Zm-10.53-6.41q-2.38-1.37-4.78-2.68l1.32-2.42q2.43,1.33,4.83,2.71ZM-1877,76.85q-2.44-1.25-4.91-2.43l1.2-2.49q2.49,1.2,5,2.46Zm-11.12-5.32q-2.5-1.12-5-2.19l1.07-2.54q2.55,1.08,5.08,2.21Zm-11.38-4.76q-2.56-1-5.13-1.93l.94-2.59q2.6.95,5.19,2Zm-11.6-4.18q-2.6-.87-5.22-1.67l.81-2.64q2.65.81,5.28,1.69Zm-11.8-3.6q-2.64-.73-5.3-1.41l.68-2.67q2.69.68,5.36,1.42Zm-12-3q-2.68-.6-5.36-1.14l.55-2.71q2.72.55,5.42,1.16Zm-12.1-2.41q-2.7-.47-5.41-.88L-1952,50q2.74.41,5.48.88Zm-12.21-1.8q-2.72-.33-5.45-.6l.27-2.75q2.76.28,5.51.61Zm-12.29-1.19q-2.74-.2-5.48-.33l.14-2.76q2.77.14,5.54.34Zm-12.33-.58q-2.74-.06-5.49-.06V47.18q2.77,0,5.55.06Z" transform="translate(2320.23 54)"/><path class="cls-3" d="M-1989.33,413.43h0c-1.86,0-3.75,0-5.61-.13l.13-2.76c1.82.09,3.66.13,5.48.13Zm12.62-.68-.3-2.74c1.82-.2,3.65-.44,5.44-.72l.43,2.73C-1973,412.29-1974.84,412.54-1976.7,412.74Zm-30.82-.74c-1.85-.29-3.71-.63-5.53-1l.56-2.7c1.78.37,3.6.7,5.4,1Zm48.75-2.65-.72-2.66c1.75-.48,3.52-1,5.26-1.56l.85,2.62C-1955.16,408.33-1957,408.87-1958.77,409.36Zm-66.5-1.6c-1.78-.58-3.56-1.2-5.3-1.86l1-2.58c1.7.64,3.44,1.25,5.18,1.82Zm83.69-4.55-1.13-2.52c1.66-.75,3.33-1.55,4.95-2.37l1.25,2.46C-1938.17,401.62-1939.88,402.44-1941.58,403.21Zm-100.55-2.42c-1.66-.85-3.32-1.74-4.95-2.67l1.37-2.39c1.58.91,3.21,1.78,4.83,2.61Zm116.56-6.36-1.51-2.31c1.52-1,3-2.05,4.51-3.12l1.62,2.23C-1922.46,392.32-1924,393.4-1925.58,394.42Zm-132.11-3.18c-1.51-1.1-3-2.25-4.46-3.42l1.73-2.15c1.42,1.14,2.89,2.26,4.36,3.34Zm146.54-8-1.86-2c1.34-1.22,2.67-2.49,4-3.79l2.05,1.85-.11.11C-1908.42,380.69-1909.79,382-1911.16,383.24Zm-160.41-3.86c-1.33-1.33-2.63-2.69-3.88-4.06l2-1.86c1.22,1.34,2.48,2.67,3.77,3.95Zm173-9.52-2.15-1.73c1.14-1.42,2.26-2.89,3.33-4.36l2.23,1.62C-1896.24,366.89-1897.39,368.39-1898.56,369.85Zm-184.87-4.34c-1.1-1.51-2.18-3.07-3.2-4.62l2.31-1.52c1,1.52,2,3,3.12,4.51Zm195.14-10.74-2.4-1.37c.9-1.58,1.78-3.21,2.61-4.83l2.46,1.25C-1886.46,351.49-1887.36,353.15-1888.29,354.77ZM-2093,350c-.85-1.66-1.67-3.37-2.43-5.07l2.52-1.13c.75,1.66,1.55,3.33,2.37,4.95Zm212.47-11.7-2.58-1c.64-1.7,1.25-3.44,1.81-5.18l2.63.85C-1879.23,334.73-1879.85,336.52-1880.51,338.26ZM-2100,333.1c-.57-1.77-1.11-3.58-1.6-5.39l2.66-.72c.48,1.76,1,3.53,1.57,5.26Zm224.54-12.36-2.7-.56c.37-1.79.7-3.6,1-5.4l2.73.43C-1874.72,317-1875.05,318.9-1875.43,320.73Zm-228.79-5.39c-.29-1.84-.54-3.71-.74-5.57l2.74-.3c.2,1.82.44,3.65.73,5.44Zm231.07-12.72-2.76-.13c.08-1.79.13-3.6.13-5.39l2.76-.1v.1C-1873,298.94-1873.06,300.79-1873.15,302.63Zm-232.5-5.48v0c0-1.85,0-3.73.13-5.58l2.76.13c-.09,1.81-.13,3.64-.13,5.45Zm229.19-12.46c-.2-1.81-.44-3.64-.73-5.44l2.73-.43c.29,1.85.54,3.72.75,5.57Zm-225.05-5.3-2.73-.43c.29-1.84.63-3.71,1-5.53l2.7.56C-2100.89,275.77-2101.22,277.58-2101.51,279.38Zm221.73-12.21c-.48-1.75-1-3.52-1.57-5.26l2.62-.85c.58,1.78,1.12,3.59,1.61,5.39Zm-217.59-5.12-2.62-.85c.57-1.78,1.2-3.56,1.86-5.3l2.58,1C-2096.2,258.58-2096.81,260.32-2097.37,262.05Zm211.57-11.65c-.75-1.66-1.55-3.33-2.38-4.95l2.46-1.26c.85,1.66,1.67,3.36,2.43,5.07Zm-204.77-4.82-2.46-1.25c.85-1.67,1.75-3.33,2.67-4.95l2.4,1.37C-2088.86,242.34-2089.74,244-2090.57,245.59Zm196.19-10.8c-1-1.52-2.05-3-3.13-4.51l2.23-1.63c1.1,1.51,2.18,3.06,3.2,4.62Zm-186.87-4.39-2.23-1.62c1.1-1.51,2.24-3,3.41-4.46l2.15,1.73C-2079.06,227.47-2080.18,228.93-2081.25,230.4Zm175.94-9.69c-1.21-1.32-2.46-2.64-3.72-3.9l1.88-2,.07.07c1.3,1.3,2.58,2.64,3.81,4Zm-164.32-3.9-2-1.91,0,0c1.3-1.3,2.66-2.59,4-3.83l1.86,2C-2067,214.28-2068.36,215.54-2069.63,216.81Zm151.34-8.31c-1.42-1.14-2.89-2.27-4.36-3.33l1.62-2.23c1.5,1.09,3,2.24,4.46,3.41Zm-137.84-3.24-1.63-2.23c1.51-1.1,3.06-2.18,4.62-3.2l1.52,2.31C-2053.15,203.14-2054.67,204.19-2056.14,205.26Zm123.13-6.79c-1.59-.91-3.21-1.78-4.83-2.61l1.25-2.46c1.66.84,3.32,1.74,4.95,2.67ZM-2041,195.93l-1.25-2.46c1.67-.85,3.37-1.67,5.07-2.43l1.13,2.52C-2037.67,194.3-2039.33,195.1-2041,195.93Zm91.83-5.05c-1.71-.64-3.45-1.26-5.18-1.81l.85-2.63c1.77.57,3.56,1.2,5.31,1.86Zm-75.37-1.77-.85-2.62c1.77-.57,3.58-1.11,5.39-1.61l.72,2.66C-2021,188-2022.77,188.55-2024.5,189.11Zm58.26-3.19c-1.78-.37-3.59-.7-5.4-1l.43-2.73c1.85.29,3.71.63,5.53,1Zm-40.93-1-.43-2.73c1.84-.29,3.72-.54,5.57-.74l.3,2.74C-2003.54,184.43-2005.37,184.67-2007.17,185Zm23.25-1.27c-1.79-.09-3.61-.13-5.42-.13l-.07-2.76h.07c1.85,0,3.71,0,5.55.13Z" transform="translate(2320.23 54)"/><g class="cls-1"><path class="cls-2" d="M-2002.62,526.57l-.69,0A228.56,228.56,0,0,1-2089.63,504l-.62-.3,15.65-32.28.62.3a192.87,192.87,0,0,0,72.84,19l.69,0ZM-2088.41,503a227.13,227.13,0,0,0,84.49,22.07l2-33.05a194.19,194.19,0,0,1-72-18.81Zm186.86,6.55-13.79-33.12.64-.27a192.88,192.88,0,0,0,62.52-41.94,193.26,193.26,0,0,0,39.53-57l.28-.63,32.67,14.82-.28.63a229,229,0,0,1-46.84,67.54,228.59,228.59,0,0,1-74.1,49.69Zm-12-32.37,12.73,30.57a227.24,227.24,0,0,0,73-49.13,227.66,227.66,0,0,0,46.27-66.5l-30.16-13.68a194.67,194.67,0,0,1-39.53,56.77A194.26,194.26,0,0,1-1913.53,477.22ZM-2170,439.27l-.43-.54a227.57,227.57,0,0,1-40.3-79.63l-.19-.66,34.55-9.64.19.67a191.88,191.88,0,0,0,34,67.14l.43.54Zm-39.21-79.87a226.18,226.18,0,0,0,39.45,77.94l26.06-20.43a193.2,193.2,0,0,1-33.61-66.41ZM-1795.43,292l0-.69a193,193,0,0,0-16.75-73.41l-.28-.63,32.75-14.63.28.63a228.77,228.77,0,0,1,19.85,87l0,.69Zm-15.23-74a194.4,194.4,0,0,1,16.56,72.61l33.1-1a227.35,227.35,0,0,0-19.43-85.14Zm-54-69.48-.53-.44a192,192,0,0,0-66-36.07l-.66-.21,10.72-34.23.66.21a227.67,227.67,0,0,1,78.32,42.77l.53.44Zm-65.5-37.62a193.34,193.34,0,0,1,65.32,35.68l21.23-25.41a226.27,226.27,0,0,0-76.66-41.87ZM-2090,131.24l-18.53-30.72.59-.36A227.9,227.9,0,0,1-2024,69.88l.68-.1,5.38,35.47-.68.1a192.21,192.21,0,0,0-70.79,25.54ZM-2106.63,101l17.1,28.35a193.55,193.55,0,0,1,70-25.26l-5-32.74A226.49,226.49,0,0,0-2106.63,101Z" transform="translate(2320.23 54)"/></g><path class="cls-3" d="M-1989.33,572.74a275.82,275.82,0,0,1-85.14-13.43l-.66-.21,23-70.88.66.21a201.47,201.47,0,0,0,62.18,9.8c6.09,0,12.24-.28,18.3-.83l.69-.06,6.73,74.2-.69.06C-1972.59,572.36-1981,572.74-1989.33,572.74Zm-84.06-14.53a274.45,274.45,0,0,0,84.06,13.15c8,0,16.19-.36,24.22-1.06l-6.48-71.45c-5.87.51-11.83.77-17.73.77a202.86,202.86,0,0,1-62-9.66Zm185.75-4.85-27.63-69.19.64-.26a199.77,199.77,0,0,0,67.51-44.58c1.6-1.6,3.18-3.23,4.7-4.86l.47-.5,54.39,50.91-.47.5c-2.1,2.25-4.26,4.48-6.42,6.63A273.84,273.84,0,0,1-1887,553.11Zm-25.83-68.42,26.6,66.63A272.47,272.47,0,0,0-1795.42,491c2-2,4-4,5.92-6.1l-52.38-49c-1.39,1.47-2.82,2.95-4.26,4.39A201.16,201.16,0,0,1-1913.48,484.94Zm170.56-64.19-66.67-33.25.31-.62a199.77,199.77,0,0,0,20.74-78.2l0-.69,74.38,4.26,0,.69a273.84,273.84,0,0,1-28.45,107.2Zm-64.82-33.87,64.2,32a272.44,272.44,0,0,0,28-105.35l-71.63-4.1A201.09,201.09,0,0,1-1807.74,386.88Zm-446.88-14.81-.19-.66A276.45,276.45,0,0,1-2265,297.11a277.94,277.94,0,0,1,2.39-36.29l.09-.68,73.86,9.76-.09.68a203.21,203.21,0,0,0-1.74,26.53,202,202,0,0,0,7.42,54.27l.19.66Zm-6.68-110.38a276.64,276.64,0,0,0-2.29,35.42,275.1,275.1,0,0,0,9.92,73.25l69.11-19.28a203.3,203.3,0,0,1-7.28-54,204.67,204.67,0,0,1,1.67-26Zm88.1-46.26-68-30.47.28-.63a274.53,274.53,0,0,1,56.67-82.12c2.66-2.66,5.4-5.29,8.16-7.83l.51-.47,50.51,54.77-.51.47c-2,1.87-4,3.8-6,5.75a200.31,200.31,0,0,0-41.36,59.91Zm-66.17-31.16,65.47,29.34a201.68,201.68,0,0,1,41.36-59.69c1.8-1.8,3.65-3.58,5.52-5.32l-48.64-52.74c-2.57,2.38-5.13,4.84-7.61,7.33A273.17,273.17,0,0,0-2239.36,184.27ZM-1868,136.7l-.55-.41a198.74,198.74,0,0,0-73.06-34.58l-.67-.16,17.61-72.39.67.16a272.84,272.84,0,0,1,100.29,47.47l.55.42Zm-72.62-36.17a200.1,200.1,0,0,1,72.34,34.24l43.18-57.3a271.44,271.44,0,0,0-98.57-46.65Zm-137.77,16.16-32.74-66.92.62-.3a273.91,273.91,0,0,1,107.42-27.64l.69,0,3.69,74.41-.69,0a199.79,199.79,0,0,0-78.36,20.15Zm-30.9-66.29,31.53,64.45a201.12,201.12,0,0,1,77.59-19.95l-3.55-71.66A272.5,272.5,0,0,0-2109.25,50.4Z" transform="translate(2320.23 54)"/><path class="cls-3" d="M-2097.82,612.74l-.65-.23a334.78,334.78,0,0,1-81-41.07,336.53,336.53,0,0,1-34.5-27.38l-.51-.46L-2154,477l.51.46a246.32,246.32,0,0,0,25.24,20,244.79,244.79,0,0,0,59.22,30l.65.23Zm-114.69-69.22a335.24,335.24,0,0,0,33.84,26.8,333.41,333.41,0,0,0,80,40.67l28.52-82.42a246.19,246.19,0,0,1-58.9-30,247.86,247.86,0,0,1-24.87-19.68Zm424.87,19.28-54.62-71.5.55-.42a244.26,244.26,0,0,0,52.65-55.24c4.2-6.07,8.16-12.39,11.79-18.81l.34-.6,78.31,44.29-.34.6c-5,8.77-10.38,17.42-16.11,25.71l-.57-.39.57.39a334.06,334.06,0,0,1-72,75.55Zm-52.68-71.24,52.94,69.3A332.67,332.67,0,0,0-1716.2,486c5.58-8.06,10.86-16.47,15.71-25l-75.91-42.93c-3.56,6.25-7.43,12.41-11.52,18.32A245.63,245.63,0,0,1-1840.33,491.55Zm-434.52-21.17-.36-.59a332.46,332.46,0,0,1-42.74-113c-.82-4.48-1.55-9-2.18-13.52l-.1-.68,89.09-12.54.1.68c.47,3.31,1,6.65,1.6,9.93a242.81,242.81,0,0,0,31.2,82.55l.36.59Zm-43.82-126.63c.61,4.25,1.3,8.54,2.08,12.78a331.09,331.09,0,0,0,42.21,112l74.61-45.16a244.22,244.22,0,0,1-31-82.43c-.56-3.07-1.07-6.2-1.52-9.3Zm654.39,28.31L-1752,352l.15-.67a242.16,242.16,0,0,0,2.11-98.06c-.49-2.69-1-5.4-1.6-8l-.15-.67,87.93-19,.15.67c.79,3.63,1.52,7.32,2.18,11a331.58,331.58,0,0,1-2.93,134.28Zm-86-21.14,85,19.48a330.21,330.21,0,0,0,2.76-133c-.62-3.4-1.3-6.85-2-10.24l-85.24,18.46c.52,2.44,1,4.93,1.47,7.41A243.52,243.52,0,0,1-1750.32,350.92Zm-480.5-89.8-.68-.1-88.28-13.35.1-.68a331.7,331.7,0,0,1,46.48-126l.36-.59,76.44,47.46-.36.59a242.2,242.2,0,0,0-34,92Zm-87.39-14.62,86.23,13a243.51,243.51,0,0,1,33.68-91.27l-74.09-46A330.27,330.27,0,0,0-2318.21,246.5Zm542.63-66.56-.33-.6a242.16,242.16,0,0,0-63.66-74.61l-.54-.42.42-.54,54.9-70.4.54.42A331.61,331.61,0,0,1-1697.08,136l.33.6Zm-62.6-75.88a243.47,243.47,0,0,1,63.14,74l76.41-42A330.18,330.18,0,0,0-1784.54,35.3ZM-2152,115l-59.8-67.22.52-.46a330.39,330.39,0,0,1,116.37-67.18l.65-.22,28.29,85.41-.65.22a240.93,240.93,0,0,0-84.86,49Zm-57.86-67.11,58,65.16a242.28,242.28,0,0,1,84.17-48.6l-27.42-82.79A329,329,0,0,0-2209.83,47.92Z" transform="translate(2320.23 54)"/><path class="cls-3" d="M-1989.38,457.76a160.36,160.36,0,0,1-113.51-47.1,159.53,159.53,0,0,1-47-113.55,159.53,159.53,0,0,1,47-113.55c62.61-62.61,164.49-62.61,227.1,0a160.54,160.54,0,0,1,44.11,144.14l-2.71-.52a157.78,157.78,0,0,0-43.35-141.67c-61.54-61.54-161.66-61.54-223.2,0a156.79,156.79,0,0,0-46.23,111.6,156.79,156.79,0,0,0,46.23,111.6,157.61,157.61,0,0,0,171,34.67l1,2.56A160.77,160.77,0,0,1-1989.38,457.76Z" transform="translate(2320.23 54)"/><path class="cls-3" d="M-1882.71,634l-.83-2.63a349.33,349.33,0,0,0,61.3-26l1.21-.66,13.15,24.23A378.58,378.58,0,0,0-1722,564.49c2.56-2.56,5.11-5.18,7.58-7.8l-20.11-18.87.94-1a354.08,354.08,0,0,0,26.43-31.69l2.22,1.64a356.84,356.84,0,0,1-25.69,30.93l20.11,18.87-.94,1c-2.79,3-5.68,6-8.59,8.86a381.26,381.26,0,0,1-87.7,65.57l-1.21.66-13.16-24.24A352,352,0,0,1-1882.71,634Z" transform="translate(2320.23 54)"/><path class="cls-3" d="M-2158.92,638.29l-1.23-.62a380.2,380.2,0,0,1-89.79-62.73l-1-.94,18.88-20.11c-2.7-2.55-5-4.78-7.16-6.94a353.31,353.31,0,0,1-63.47-86.33l2.45-1.28a350.52,350.52,0,0,0,63,85.66c2.4,2.4,5,4.89,8.11,7.82l1,.94-18.87,20.1a377.45,377.45,0,0,0,86.9,60.71l12.36-24.64,1.23.62a349.62,349.62,0,0,0,61.39,23.82l-.75,2.65a352.31,352.31,0,0,1-60.64-23.4Z" transform="translate(2320.23 54)"/><path class="cls-3" d="M-1641.45,148.84c-4.47-10.49-9.47-20.89-14.87-30.93l-24.23,13.16-.66-1.21a350.93,350.93,0,0,0-60.29-80.64c-3.87-3.87-8-7.8-12.28-11.69l-1-.93,18.54-20.4a377,377,0,0,0-87.88-59.3l-12,24.85-1.24-.6a349.11,349.11,0,0,0-112.89-32.41l.31-2.74a351.89,351.89,0,0,1,112.54,32.07l12-24.85,1.24.6a379.82,379.82,0,0,1,90.81,61.27l1,.93-18.54,20.4c4,3.62,7.77,7.26,11.35,10.85a353.68,353.68,0,0,1,60.1,80.07l24.23-13.16.66,1.21c5.7,10.5,11,21.39,15.64,32.38Z" transform="translate(2320.23 54)"/><path class="cls-3" d="M-1784.6,378.2l-2.57-1a218,218,0,0,0,13.8-55.22,218,218,0,0,0-.9-56.92l2.73-.41a220.81,220.81,0,0,1,.91,57.64A220.81,220.81,0,0,1-1784.6,378.2Z" transform="translate(2320.23 54)"/><path class="cls-3" d="M-1988.84,517.31a224.27,224.27,0,0,1-25.68-1.48c-120.6-13.88-207.42-123.29-193.54-243.89a218.72,218.72,0,0,1,81.86-147.28,218.72,218.72,0,0,1,162-46.26,219.07,219.07,0,0,1,144.74,78.73l-2.13,1.75a216.32,216.32,0,0,0-142.93-77.74,216,216,0,0,0-160,45.68,216,216,0,0,0-80.84,145.43c-13.71,119.09,72,227.12,191.11,240.83a215.28,215.28,0,0,0,97.83-11.13l.93,2.6A217.25,217.25,0,0,1-1988.84,517.31Z" transform="translate(2320.23 54)"/><path class="cls-3" d="M-1992.35,440.69l-.69,0q-2.42-.06-4.84-.2l-.69,0,.62-10.63.69,0q2.24.13,4.49.19l.69,0Zm-4.76-1.56q1.71.09,3.42.14l.2-7.89q-1.58,0-3.15-.13Zm13.08,1.49-.45-10.64.69,0q2.24-.1,4.49-.26l.69-.05.8,10.62-.69.05q-2.42.18-4.84.28Zm1-9.32.33,7.88q1.71-.08,3.41-.2l-.59-7.87Q-1981.47,431.23-1983,431.31Zm-23.8,8.36-.69-.09q-2.4-.31-4.79-.69l-.68-.11,1.69-10.51.68.11q2.22.36,4.44.64l.69.09Zm-4.58-2q1.69.26,3.38.49l1-7.83q-1.56-.21-3.12-.45Zm41.88,1.72-1.52-10.54.68-.1q2.23-.32,4.44-.71l.68-.12,1.87,10.48-.68.12q-2.39.43-4.79.77Zm0-9.37,1.12,7.81q1.69-.25,3.38-.54l-1.38-7.77Q-1967.94,429.75-1969.5,430Zm-51.66,7.2-.67-.15q-2.35-.54-4.69-1.17l-.67-.18,2.74-10.29.67.18q2.17.58,4.35,1.08l.67.16Zm-4.34-2.48q1.65.43,3.31.82l1.78-7.69q-1.53-.36-3.06-.76Zm70.25,1.93-2.57-10.33.67-.17q2.18-.54,4.35-1.16l.66-.19,2.92,10.24-.66.19q-2.34.66-4.69,1.25Zm-.9-9.33,1.91,7.65q1.66-.42,3.31-.88l-2.16-7.59Q-1954.63,426.91-1956.16,427.3Zm-79,6-.65-.22q-2.28-.78-4.54-1.63l-.65-.24,3.77-10,.65.24q2.1.79,4.22,1.52l.65.22Zm-4.06-2.91q1.6.6,3.2,1.15l2.55-7.46q-1.49-.52-3-1.07Zm-9.45-2.4-.63-.29q-2.2-1-4.37-2.09l-.62-.31,4.75-9.53.62.31q2,1,4.06,1.94l.63.29Zm-3.76-3.31q1.53.76,3.08,1.48l3.29-7.17q-1.43-.67-2.85-1.37Zm-9.16-3.36-.59-.35q-2.08-1.23-4.14-2.53l-.58-.37,5.71-9,.58.37q1.9,1.21,3.83,2.34l.59.35Zm-3.41-3.68q1.45.91,2.92,1.79l4-6.8q-1.35-.81-2.69-1.65Zm173.14-15.09-7.27-7.78.5-.47q1.63-1.53,3.23-3.12l.7-.71,7.53,7.53-.68.68c-1.17,1.17-2.33,2.3-3.51,3.4Zm-5.33-7.71,5.39,5.76c.89-.84,1.78-1.71,2.68-2.6l-5.58-5.58Q-1895.92,393.62-1897.18,394.8Zm15.69-2.93-8-7,.45-.52q1.48-1.7,2.89-3.43l.44-.53,8.26,6.72-.44.54q-1.52,1.87-3.12,3.71Zm-6.08-7.13,5.95,5.18q1.12-1.3,2.2-2.62l-6.12-5Q-1886.54,383.55-1887.57,384.75Zm-217.08-2-.41-.56q-1.44-2-2.81-4l-.39-.57,8.78-6,.39.57q1.27,1.85,2.6,3.66l.41.56Zm-1.69-4.72q1,1.4,2,2.79l6.35-4.68q-.93-1.28-1.83-2.57Zm233.89,2.44-8.69-6.15.4-.56q1.3-1.84,2.53-3.71l.38-.58,8.9,5.85-.38.58q-1.33,2-2.73,4Zm-6.77-6.48,6.44,4.55q1-1.4,1.93-2.83l-6.59-4.33Q-1878.31,372.72-1879.22,374Zm-233.51-3.34-.35-.59q-1.24-2.09-2.39-4.22l-.33-.61,9.35-5.09.33.61q1.07,2,2.21,3.9l.35.59Zm-1.2-4.87q.83,1.5,1.69,3l6.79-4q-.8-1.36-1.56-2.74Zm249.33,2.44-9.27-5.24.34-.6q1.1-2,2.14-3.94l.32-.61,9.45,4.91-.32.61q-1.12,2.15-2.31,4.27Zm-7.39-5.76,6.87,3.88q.84-1.5,1.63-3l-7-3.64Q-1871.23,361.11-1872,362.49Zm-247.54-4.66-.29-.63q-1-2.22-2-4.46l-.27-.64,9.82-4.11.27.64q.87,2.07,1.81,4.11l.29.63Zm-.71-5q.67,1.58,1.38,3.15l7.17-3.3q-.65-1.44-1.27-2.89Zm262.19,2.42-9.75-4.27.28-.63q.9-2.05,1.72-4.13l.25-.64,9.9,3.92-.25.64q-.89,2.25-1.86,4.47Zm-7.94-5,7.23,3.16q.68-1.57,1.31-3.15l-7.33-2.91Q-1865.38,348.84-1866,350.29Zm-259-6-.22-.65q-.79-2.31-1.49-4.63l-.2-.66,10.19-3.09.2.66q.65,2.15,1.38,4.27l.22.65Zm-.19-5q.51,1.64,1.05,3.27l7.46-2.55q-.5-1.5-1-3Zm272.33,2.4-10.14-3.25.21-.66q.68-2.13,1.29-4.29l.19-.66,10.24,2.9-.19.66q-.66,2.33-1.4,4.64Zm-8.4-4.15,7.51,2.41q.51-1.63,1-3.27l-7.59-2.15Q-1860.8,336.06-1861.27,337.56Zm-267.8-7.21-.16-.67q-.55-2.37-1-4.75l-.13-.68,10.45-2,.13.68q.43,2.2.94,4.39l.16.67Zm.32-5q.34,1.68.72,3.35l7.69-1.78q-.35-1.54-.66-3.09Zm279.68,2.35-10.42-2.21.14-.67q.46-2.19.85-4.4l.12-.68,10.48,1.85-.12.68q-.42,2.38-.92,4.75Zm-8.78-3.27,7.72,1.63q.35-1.67.65-3.35l-7.77-1.37Q-1857.54,322.87-1857.86,324.41ZM-2131.71,316l-.09-.68q-.31-2.41-.53-4.82l-.06-.69,10.6-1,.06.69q.21,2.23.49,4.46l.09.68Zm.82-4.95q.17,1.7.38,3.4l7.82-1q-.19-1.57-.35-3.14Zm284.16,2.25-10.59-1.14.07-.69q.24-2.23.41-4.47l.05-.69,10.62.79-.05.69q-.18,2.42-.44,4.82Zm-9.07-2.37,7.84.85q.18-1.7.31-3.4l-7.87-.58Q-1855.63,309.41-1855.79,311Zm-277.09-9.43,0-.69q-.06-2.42,0-4.85v-.69l10.65.08v.69q0,2.25,0,4.49l0,.69Zm1.32-4.84q0,1.71,0,3.42l7.89-.2q0-1.58,0-3.16Zm285.74,2.13-10.65-.07v-.69q0-2.24,0-4.49l0-.69,10.64-.28,0,.69q.06,2.42,0,4.85Zm-9.26-1.44,7.89.05q0-1.71,0-3.42l-7.89.21Q-1855.08,295.82-1855.08,297.39ZM-2122,287.81l-10.62-.8.05-.69q.18-2.41.45-4.82l.07-.69,10.58,1.15-.07.69q-.24,2.23-.41,4.47Zm-9.14-2.07,7.87.6q.13-1.57.29-3.14l-7.84-.85Q-2131,284-2131.11,285.73Zm274.12-.42-.06-.69q-.21-2.24-.5-4.47l-.09-.68,10.56-1.35.09.68q.31,2.41.54,4.82l.06.69Zm.89-4.64q.19,1.57.35,3.14l7.85-.74q-.17-1.7-.38-3.4Zm-264.27-6.22-10.48-1.86.12-.68q.42-2.38.93-4.75l.14-.67,10.41,2.21-.14.68q-.47,2.19-.86,4.4Zm-8.88-3,7.77,1.38q.28-1.55.6-3.09l-7.72-1.64Q-2128.93,269.79-2129.24,271.47Zm270.39.5-.13-.68q-.44-2.21-.94-4.4l-.16-.67,10.37-2.41.16.67q.55,2.37,1,4.74l.13.68Zm.42-4.71q.35,1.54.66,3.09l7.74-1.53q-.34-1.68-.72-3.35Zm-259-5.93-10.24-2.92.19-.66q.66-2.33,1.4-4.63l.21-.66,10.13,3.26-.21.66q-.69,2.13-1.3,4.29Zm-8.53-3.86,7.59,2.16q.44-1.51.91-3l-7.51-2.42Q-2125.46,255.82-2125.94,257.46Zm263.88,1.42-.2-.66q-.66-2.15-1.39-4.28l-.22-.65,10.07-3.45.22.65q.79,2.3,1.5,4.62l.2.66Zm-.06-4.73q.51,1.5,1,3l7.54-2.3q-.51-1.64-1.06-3.26Zm-251-5.57-9.89-3.93.25-.64q.89-2.24,1.86-4.47l.28-.63,9.75,4.27-.28.63q-.9,2.05-1.72,4.13Zm-8.1-4.7,7.33,2.91q.59-1.45,1.21-2.9l-7.23-3.17Q-2120.61,242.29-2121.24,243.87Zm254.66,2.32-.27-.64q-.87-2.07-1.82-4.12l-.29-.63,9.67-4.46.29.63q1,2.21,2,4.45l.27.64Zm-.54-4.71q.66,1.44,1.28,2.9l7.27-3.06q-.67-1.58-1.39-3.14Zm-5.24-7.46-.33-.61q-1.07-2-2.22-3.9l-.35-.59,9.16-5.43.35.59q1.24,2.09,2.4,4.22l.33.6Zm-1-4.61q.8,1.36,1.56,2.74l6.92-3.78q-.83-1.5-1.69-3Zm-6-6.89-.39-.57q-1.27-1.84-2.61-3.65l-.41-.56,8.56-6.33.41.56q1.44,2,2.81,3.95l.39.57Zm-1.48-4.49q.93,1.28,1.83,2.57l6.5-4.47q-1-1.4-2-2.79Zm-6.64-6.25-.45-.53q-1.45-1.71-3-3.38l-.46-.51,7.88-7.16.46.51q1.63,1.8,3.2,3.64l.45.53Zm-1.93-4.32q1.06,1.18,2.08,2.37l6-5.11q-1.11-1.29-2.26-2.57ZM-2084,203.77l-7.53-7.53.6-.6q1.66-1.66,3.37-3.26l.5-.47,7.28,7.77-.5.47q-1.58,1.48-3.12,3Zm-5.58-7.53,5.58,5.58q1.13-1.12,2.27-2.2l-5.39-5.75Q-2088.33,195-2089.54,196.24Zm192.89,5.68-.5-.48q-1.62-1.56-3.28-3.06l-.51-.46,7.13-7.91.51.46q1.79,1.62,3.55,3.31l.5.48Zm-2.34-4.1q1.16,1.06,2.31,2.15l5.48-5.68q-1.24-1.19-2.5-2.34Zm-175-3.16-6.75-8.24.53-.44q1.88-1.54,3.8-3l.55-.42,6.47,8.46-.55.42q-1.78,1.36-3.52,2.79Zm-4.8-8,5,6.1q1.23-1,2.48-2l-4.79-6.26Q-2077.5,185.54-2078.83,186.62Zm15.59,0-5.88-8.88.58-.38q2-1.34,4.09-2.61l.59-.36,5.58,9.07-.59.36q-1.91,1.17-3.78,2.42Zm-4-8.49,4.36,6.58q1.32-.87,2.66-1.7l-4.13-6.72Q-2065.77,177.19-2067.21,178.13Zm15.51,1.58-4.94-9.43.61-.32q2.16-1.13,4.34-2.19l.62-.3,4.62,9.59-.62.3q-2,1-4,2Zm-3.08-8.85,3.66,7q1.41-.73,2.83-1.42l-3.42-7.11Q-2053.25,170.07-2054.78,170.86Zm15.3,3.14-4-9.89.64-.26q2.26-.9,4.54-1.73l.65-.23,3.62,10-.65.23q-2.11.76-4.21,1.6Zm-2.16-9.12,2.93,7.32q1.48-.58,3-1.13l-2.68-7.42Q-2040,164.25-2041.64,164.88Zm14.89,4.69-2.93-10.24.66-.19q2.33-.67,4.69-1.26l.67-.17,2.59,10.33-.67.17q-2.18.55-4.35,1.17Zm-1.22-9.29,2.17,7.58q1.52-.43,3.06-.82l-1.92-7.65Q-2026.32,159.82-2028,160.28Zm14.33,6.17-1.88-10.48.68-.12q2.39-.43,4.79-.78l.68-.1,1.52,10.54-.68.1q-2.22.32-4.43.72Zm-.28-9.36,1.39,7.76q1.56-.27,3.12-.5l-1.13-7.81Q-2012.23,156.8-2013.92,157.09Zm13.63,7.59-.81-10.62.69-.05q2.42-.19,4.84-.29l.69,0,.46,10.64-.69,0q-2.24.1-4.48.27Zm.67-9.34.6,7.87q1.58-.11,3.15-.19l-.34-7.88Q-1997.91,155.21-1999.62,155.34Zm18.65,9.16-.69,0q-2.24-.13-4.48-.18l-.69,0,.25-10.64.69,0q2.43.06,4.85.2l.69,0Zm-4.45-1.59q1.58,0,3.15.13l.46-7.87q-1.71-.09-3.42-.14Z" transform="translate(2320.23 54)"/><path class="cls-3" d="M-1987.33,598.32c-3,0-6,0-8.9-.13l-.69,0,.61-21,.69,0c3.17.09,6.37.12,9.52.12h.69l.1,21h-2Zm-8.17-1.49c2.92.08,5.87.1,8.8.11l-.08-18.22c-2.71,0-5.46,0-8.19-.1Zm29.25.75-1.51-20.93.69,0c3.12-.22,6.31-.51,9.49-.84l.69-.07,2.22,20.86-.69.07c-3.35.36-6.78.66-10.2.91Zm0-19.65,1.31,18.17c2.94-.22,5.88-.48,8.78-.78l-1.92-18.11C-1960.86,577.49-1963.6,577.73-1966.28,577.93ZM-2016,597l-.69-.07c-3.4-.33-6.82-.71-10.16-1.15l-.68-.09,2.72-20.8.68.09c3.1.41,6.28.77,9.45,1.07l.69.07Zm-10-2.5c2.89.37,5.82.7,8.75,1l1.74-18.13c-2.72-.27-5.45-.58-8.12-.92Zm90.16-.58-3.63-20.66.68-.12c3.09-.54,6.25-1.15,9.37-1.8l.68-.14,4.3,20.53-.67.14c-3.3.69-6.68,1.34-10.05,1.93Zm-2-19.54,3.15,17.94c2.9-.51,5.8-1.07,8.65-1.67l-3.74-17.83C-1932.44,573.37-1935.14,573.89-1937.81,574.36Zm32,12.79-5.7-20.19.66-.19c3-.85,6.1-1.78,9.14-2.75l.66-.21,6.37,20-.66.21c-3.24,1-6.54,2-9.81,2.95Zm-4-19.24,5,17.53c2.82-.8,5.65-1.65,8.45-2.54l-5.53-17.36C-1904.58,566.38-1907.22,567.18-1909.83,567.92Zm33.13,9.47-7.73-19.51.64-.25c2.9-1.15,5.87-2.38,8.82-3.66l.63-.28,8.38,19.23-.63.27c-3.08,1.34-6.27,2.67-9.47,3.94Zm-5.94-18.73,6.71,16.94c2.75-1.1,5.49-2.24,8.16-3.39l-7.28-16.7C-1877.59,556.6-1880.13,557.66-1882.63,558.66Zm33.9,6-9.67-18.61.61-.32c2.78-1.44,5.59-3,8.37-4.53l.6-.34,10.3,18.28-.6.34c-3,1.68-6,3.31-9,4.87Zm-7.81-18,8.4,16.16c2.58-1.35,5.18-2.75,7.74-4.19l-8.94-15.87C-1851.74,544.12-1854.16,545.43-1856.55,546.68Zm34.31,2.58-11.52-17.53.58-.38c2.65-1.74,5.3-3.55,7.88-5.36l.56-.4,12.09,17.14-.56.4c-2.72,1.92-5.56,3.85-8.45,5.75Zm-9.61-17.14,10,15.23c2.48-1.64,4.92-3.3,7.27-5l-10.5-14.89C-1827.29,529.07-1829.57,530.61-1831.85,532.12Zm34.4-.9-13.21-16.29.54-.44c2.38-1.93,4.76-3.92,7.06-5.91l.77-.67,13.73,15.86-.77.67c-2.48,2.15-5,4.28-7.58,6.35Zm-11.27-16.09,11.48,14.15c2.26-1.84,4.53-3.74,6.73-5.65l-11.92-13.77C-1804.49,511.63-1806.6,513.4-1808.72,515.13Zm-396.63-9.24-.48-.5c-2.37-2.47-4.71-5-7-7.5l-.46-.51,15.61-14,.46.51c2.13,2.37,4.31,4.72,6.48,7l.48.5Zm-5.95-8.4c1.94,2.15,4,4.32,6,6.45l13.14-12.62c-1.87-2-3.74-4-5.57-6Zm-14.21-14.7-.43-.54c-2.06-2.62-4.13-5.36-6.17-8.14l-.41-.56,16.92-12.4.41.56c1.86,2.54,3.79,5.09,5.75,7.59l.43.54Zm-5.08-8.94c1.76,2.39,3.54,4.74,5.31,7l14.33-11.25c-1.68-2.15-3.34-4.34-4.95-6.53Zm-12.67-16.06-.37-.58c-1.79-2.83-3.59-5.77-5.32-8.73l-.35-.59,18.09-10.62.35.6c1.6,2.72,3.27,5.46,5,8.13l.37.58Zm-4.15-9.42c1.5,2.54,3,5.06,4.58,7.51l15.39-9.75c-1.45-2.3-2.88-4.65-4.26-7Zm527.55-11.13-18.56-9.78.32-.61c1.46-2.77,2.9-5.62,4.27-8.46l.3-.62,18.89,9.13-.3.62c-1.47,3-3,6.11-4.6,9.11Zm-16.7-10.35,16.12,8.49c1.36-2.59,2.68-5.22,4-7.84l-16.4-7.93C-1734.07,422.05-1735.3,424.49-1736.55,426.88Zm-521.83,4.23-.31-.62c-1.53-3.07-3-6.18-4.41-9.23l-.29-.63,19.08-8.72.29.63c1.31,2.87,2.69,5.76,4.1,8.58l.31.62Zm-3.18-9.8c1.21,2.63,2.48,5.3,3.8,7.95l16.3-8.14c-1.21-2.43-2.39-4.91-3.53-7.38Zm554.63-11.83-19.45-7.84.26-.64c1.16-2.89,2.31-5.87,3.4-8.87l.24-.65,19.71,7.18-.24.65c-1.17,3.21-2.4,6.41-3.65,9.53Zm-17.66-8.61,16.89,6.81c1.08-2.69,2.13-5.44,3.14-8.2l-17.12-6.23C-1722.61,395.82-1723.59,398.38-1724.59,400.87ZM-2270.72,403l-.24-.65c-1.19-3.17-2.36-6.42-3.45-9.65l-.22-.65,19.87-6.74.22.65c1,3,2.11,6,3.22,9l.24.65Zm-2.17-10.09c1,2.79,1.95,5.58,3,8.31l17-6.42c-1-2.54-1.88-5.14-2.77-7.73Zm-7.26-19.15-.18-.67c-.86-3.27-1.69-6.61-2.45-9.95l-.15-.67,20.45-4.67.15.67c.7,3.07,1.47,6.19,2.28,9.26l.18.67Zm-1.13-10.25c.66,2.87,1.37,5.74,2.11,8.56l17.61-4.65c-.69-2.64-1.35-5.32-2-8Zm-5.27-19.79-.11-.68c-.53-3.38-1-6.79-1.43-10.14l-.08-.68,20.82-2.58.08.68c.39,3.14.84,6.32,1.33,9.44l.11.68Zm-.08-10.3c.36,2.88.78,5.81,1.23,8.72l18-2.84c-.42-2.69-.8-5.42-1.14-8.12Zm-3.24-20.2,0-.69c-.19-3.39-.32-6.83-.4-10.22v-.69l21-.47,0,.69c.07,3.19.2,6.39.37,9.52l0,.69Zm1-10.25c.07,2.92.19,5.87.34,8.8l18.19-1c-.14-2.7-.25-5.45-.32-8.19Zm583.16-12.87v-.69c-.06-3.14-.19-6.34-.36-9.51l0-.69,20.94-1.15,0,.69c.19,3.35.32,6.79.39,10.23v.69Zm1-9.59c.14,2.73.25,5.48.31,8.18l18.22-.38c-.07-3-.18-5.91-.33-8.8Zm-564.44,3-21-.95,0-.69c.15-3.39.37-6.83.63-10.2l.05-.69,20.91,1.65-.05.69c-.25,3.14-.45,6.34-.59,9.5Zm-19.52-2.26,18.2.82c.13-2.72.3-5.47.51-8.17l-18.16-1.43C-2288.33,275.38-2288.51,278.32-2288.65,281.25Zm580.94-19.63-.08-.68c-.39-3.18-.83-6.35-1.32-9.43l-.11-.68,20.73-3.26.11.68c.53,3.36,1,6.77,1.41,10.15l.08.68Zm.07-9.65c.41,2.66.79,5.38,1.13,8.11l18.08-2.21c-.36-2.91-.77-5.84-1.22-8.73Zm-558.84,3.11-20.75-3.05.1-.68c.49-3.34,1-6.74,1.65-10.08l.12-.68,20.64,3.74-.12.68c-.57,3.17-1.09,6.33-1.54,9.39Zm-19.19-4.21,18,2.65c.39-2.64.84-5.35,1.33-8.07l-17.93-3.25C-2284.76,245.08-2285.24,248-2285.67,250.87Zm573.12-17.41-.15-.67c-.7-3.07-1.46-6.19-2.27-9.25l-.18-.67,20.29-5.34.18.67c.88,3.33,1.7,6.68,2.44,10l.15.67Zm-.91-9.61c.69,2.64,1.34,5.31,1.95,8l17.77-4c-.65-2.83-1.35-5.71-2.1-8.58ZM-2261,227.08l-20.34-5.12.17-.67c.83-3.29,1.72-6.61,2.66-9.86l.19-.66,20.16,5.81-.19.66c-.87,3-1.7,6.1-2.48,9.18Zm-18.67-6.12,17.67,4.45c.67-2.65,1.39-5.29,2.13-7.89l-17.51-5C-2278.16,215.28-2278.93,218.12-2279.65,221Zm559.43-15-.22-.65c-1-3-2.08-6-3.2-9l-.24-.65,19.64-7.39.24.65c1.22,3.24,2.38,6.49,3.44,9.67l.22.65Zm-1.89-9.47c1,2.56,1.88,5.15,2.75,7.72l17.27-5.81c-.93-2.75-1.93-5.54-3-8.33Zm-530.59,3.33-19.72-7.15.24-.65c1.17-3.22,2.39-6.43,3.65-9.54l.26-.64,19.46,7.82-.26.64c-1.17,2.91-2.31,5.89-3.39,8.87Zm-18-8,17.13,6.21c.93-2.56,1.91-5.12,2.91-7.62l-16.9-6.8C-2268.59,186.29-2269.64,189-2270.65,191.81Zm540-12.46-.29-.63c-1.3-2.86-2.68-5.75-4.09-8.59l-.31-.62,18.78-9.34.31.62c1.54,3.11,3,6.22,4.4,9.24l.29.63Zm-2.83-9.21c1.21,2.44,2.39,4.92,3.52,7.38l16.58-7.54c-1.2-2.61-2.47-5.28-3.79-8Zm-508.21,3.36-18.9-9.11.3-.62c1.49-3.08,3-6.15,4.59-9.12l.32-.61,18.57,9.76-.32.61c-1.45,2.76-2.89,5.61-4.26,8.47Zm-17.05-9.75,16.41,7.91c1.19-2.45,2.42-4.89,3.66-7.28l-16.13-8.48C-2256.15,158.46-2257.47,161.1-2258.76,163.74Zm515-9.75-.35-.59c-1.64-2.8-3.31-5.54-4.95-8.14l-.37-.58,17.73-11.2.37.58c1.83,2.9,3.62,5.84,5.31,8.74l.35.59Zm-3.76-8.88c1.41,2.25,2.84,4.6,4.25,7l15.72-9.21c-1.47-2.5-3-5-4.57-7.52Zm-480.6,3.34-17.87-11,.36-.59c1.79-2.91,3.65-5.82,5.51-8.62l.38-.58,17.48,11.6-.38.57c-1.72,2.6-3.45,5.29-5.12,8Zm-16-11.44,15.52,9.54c1.44-2.33,2.92-4.65,4.4-6.89l-15.18-10.07C-2240.92,132-2242.51,134.51-2244.06,137ZM-2212,124.9l-16.66-12.75.42-.55c2.07-2.7,4.2-5.39,6.35-8l.44-.53,16.22,13.31-.44.53c-2,2.49-4,5-5.91,7.46Zm-14.72-13,14.47,11.07c1.63-2.12,3.34-4.27,5.08-6.41L-2221.23,105C-2223.08,107.26-2224.92,109.58-2226.7,111.9Zm33.15-8.79-15.28-14.37.47-.5c2.32-2.46,4.72-4.93,7.13-7.33l.49-.49L-2186,95.3l-.49.49c-2.25,2.24-4.49,4.53-6.64,6.82Zm-13.33-14.43,13.27,12.48c1.86-2,3.78-3.94,5.71-5.87l-12.84-12.92C-2202.82,84.44-2204.88,86.56-2206.88,88.68Zm33.85-5.39-13.73-15.86,1-.83c2.65-2.3,5.23-4.46,7.89-6.61l.54-.43,13.2,16.31-.54.43c-2.44,2-4.89,4-7.3,6.11Zm-11.79-15.72,11.92,13.77c2.23-1.93,4.51-3.84,6.77-5.68l-11.46-14.16C-2180,63.47-2182.39,65.46-2184.82,67.56Zm365.55,1.75-.55-.41c-2.58-1.91-5.18-3.77-7.74-5.54l-.57-.39,11.91-17.27.57.39c2.75,1.89,5.55,3.9,8.32,6l.55.41Zm-6.94-6.69c2.21,1.53,4.44,3.13,6.66,4.76l10.85-14.64c-2.39-1.76-4.79-3.48-7.16-5.12ZM-1843,53.45l-.59-.35c-2.81-1.66-5.59-3.25-8.28-4.73l-.6-.33,10.09-18.39.6.33c2.91,1.59,5.89,3.3,8.87,5.06l.59.35Zm-7.61-6c2.32,1.28,4.71,2.65,7.12,4.07l9.28-15.68c-2.56-1.51-5.12-3-7.63-4.36Zm-17.59-7.4-.63-.29c-2.87-1.33-5.79-2.62-8.69-3.85l-.63-.27,8.18-19.31.64.27c3.06,1.3,6.2,2.69,9.32,4.13l.63.29Zm-8.14-5.14c2.49,1.06,5,2.17,7.47,3.31l7.65-16.53c-2.68-1.23-5.37-2.43-8-3.55Zm-18.26-5.58-.65-.23c-3-1-6-2-9-3l-.66-.2,6.18-20,.66.2c3.17,1,6.44,2,9.7,3.17l.65.23Zm-8.63-4.29c2.61.81,5.22,1.66,7.77,2.54l5.94-17.22c-2.8-1-5.6-1.87-8.34-2.73Zm-18.75-3.71-.67-.16c-3.11-.73-6.24-1.42-9.3-2l-.68-.14,4.13-20.57.68.14c3.39.68,6.75,1.41,10,2.17l.67.16Zm-9-3.4c2.63.53,5.32,1.12,8,1.74L-1918.8,2c-2.79-.65-5.67-1.28-8.58-1.87Zm-115.13,1.78L-2050.38-.8l.68-.14c3.29-.69,6.68-1.33,10.06-1.92L-2039-3l3.6,20.67-.68.12c-3.11.54-6.26,1.14-9.37,1.79ZM-2048.75.27l3.72,17.84c2.67-.55,5.38-1.07,8.06-1.54l-3.12-17.95C-2043-.87-2045.91-.31-2048.75.27ZM-1950,16.15l-.68-.09c-3.17-.42-6.35-.78-9.46-1.08l-.69-.07,2-20.88.69.07c3.33.32,6.75.71,10.15,1.16l.68.09Zm-9.33-2.48c2.68.27,5.41.58,8.14.93l2.36-18.06c-2.93-.38-5.86-.71-8.74-1Zm-58.56,1.58-2.18-20.87.69-.07c3.39-.35,6.82-.66,10.19-.9l.69,0L-2007,14.3l-.69,0c-3.18.23-6.38.51-9.5.84Zm-.67-19.64,1.9,18.12c2.69-.28,5.43-.52,8.17-.72l-1.29-18.17C-2012.69-4.94-2015.63-4.68-2018.55-4.38Zm40.1,18.17-.69,0c-3.21-.09-6.42-.14-9.53-.13h-.69l-.08-21h.69c3.37,0,6.8,0,10.22.13l.69,0Zm-9.33-1.53c2.62,0,5.31,0,8,.11l.53-18.21c-2.94-.08-5.9-.12-8.8-.12l.07,18.22Z" transform="translate(2320.23 54)"/><g class="cls-1"><path class="cls-2" d="M-2097.32,440.77l-.38-.29c-2.29-1.73-4.56-3.54-6.76-5.38l-3.29,3.9-.53-.44c-2.91-2.45-5.79-5-8.56-7.68l-.5-.48,3.51-3.68q-1.3-1.25-2.59-2.53-1.54-1.54-3-3.1l-3.69,3.5-.47-.5c-2.63-2.77-5.2-5.67-7.65-8.59l-.44-.53,3.91-3.27c-1.69-2-3.34-4.13-4.94-6.23l-4.08,3.07-.41-.55c-2.3-3.06-4.53-6.23-6.63-9.41l-.38-.58,4.26-2.8c-1.42-2.18-2.82-4.45-4.19-6.76l-4.41,2.58-.35-.6c-1.93-3.3-3.78-6.7-5.5-10.11l-.31-.62,4.58-2.31c-1.3-2.61-2.54-5.24-3.67-7.84l-.22-.51,6.53-4.68.34.79a170.59,170.59,0,0,0,36.31,53.51A173.21,173.21,0,0,0-2091,435.71l.82.6Zm-7.31-7.61.53.44c2.22,1.87,4.53,3.72,6.85,5.49l4.61-2.88a174.67,174.67,0,0,1-19.21-16.6,172,172,0,0,1-36.26-53.16l-4.22,3c1.16,2.61,2.41,5.26,3.73,7.88l.31.62-4.57,2.31c1.51,3,3.13,5.94,4.8,8.83l4.41-2.58.35.6c1.58,2.7,3.22,5.35,4.87,7.87l.38.58-4.26,2.8c1.84,2.78,3.78,5.53,5.78,8.22l4.08-3.06.41.55c1.84,2.45,3.77,4.89,5.75,7.26l.44.53-3.91,3.27c2.15,2.55,4.39,5.07,6.68,7.5l3.69-3.5.47.5q1.71,1.8,3.47,3.58,1.51,1.51,3.06,3l.5.48-3.51,3.68c2.43,2.3,4.94,4.55,7.47,6.71Z" transform="translate(2320.23 54)"/><path class="cls-2" d="M-2159.73,275.19l-6.66-5.33L-2172,269l.11-.68c.59-3.78,1.31-7.58,2.13-11.3l.15-.67,5,1.11c.57-2.52,1.21-5.11,1.91-7.7l-5-1.37.18-.66c1-3.68,2.16-7.37,3.41-11l.23-.65,4.86,1.68c.88-2.53,1.81-5,2.77-7.43l-4.76-1.92.26-.64c1.43-3.54,3-7.08,4.64-10.52l.3-.62,4.63,2.22c1.15-2.38,2.36-4.76,3.61-7.08l-4.5-2.45.33-.61c1.83-3.35,3.79-6.69,5.82-9.93l.37-.58,4.32,2.72c1.4-2.2,2.88-4.42,4.41-6.61l-4.17-2.94.4-.56c2.2-3.12,4.53-6.21,6.92-9.2l.43-.54,4,3.19c1.66-2.06,3.38-4.09,5.13-6.07l-3.8-3.39.46-.51c2.38-2.67,4.87-5.3,7.4-7.83l1-1,3.59,3.61c1.88-1.85,3.82-3.68,5.78-5.45l-3.4-3.79.51-.46c2.85-2.56,5.81-5,8.8-7.41l.54-.43,3.16,4c2.09-1.63,4.23-3.23,6.37-4.76l-3-4.16.56-.4c3.12-2.21,6.35-4.35,9.6-6.36l.59-.36,2.69,4.35c2.23-1.37,4.54-2.71,6.87-4l-2.46-4.49.61-.33c3.35-1.84,6.81-3.59,10.26-5.22l.62-.29,2.18,4.64c2.45-1.14,4.9-2.21,7.3-3.19l-1.93-4.75.64-.26c3.55-1.44,7.18-2.79,10.81-4l.65-.22,1.64,4.88c2.52-.83,5.07-1.61,7.61-2.33l-1.38-5,.66-.18c3.69-1,7.45-2,11.19-2.74l.68-.14,1.07,5.05c2.56-.53,5.19-1,7.82-1.44l-.81-5.11.68-.11c3.77-.6,7.62-1.09,11.42-1.45l.69-.07.49,5.14c2.57-.23,5.23-.42,7.93-.54l-.23-5.17.69,0c3.81-.17,7.68-.22,11.51-.15h.69l-.11,5.86,1,7.17-.82,0a170.32,170.32,0,0,0-125.74,50.21,170.17,170.17,0,0,0-48.7,98.42Zm-10.69-7.36,4.61.72,5,4a171.5,171.5,0,0,1,48.93-98A171.78,171.78,0,0,1-1985.91,124l-.82-5.67.08-4.59c-3.34,0-6.71,0-10,.13l.23,5.16-.69,0c-3.16.14-6.26.35-9.23.63l-.69.07-.49-5.14c-3.32.33-6.67.76-10,1.27l.81,5.1-.68.11c-3.07.49-6.13,1.05-9.11,1.68l-.67.14-1.07-5c-3.26.71-6.54,1.51-9.77,2.39l1.38,5-.66.19c-3,.82-5.93,1.73-8.86,2.71l-.65.22-1.64-4.88c-3.17,1.08-6.33,2.25-9.43,3.5l1.93,4.75-.64.26c-2.79,1.13-5.64,2.38-8.5,3.72l-.62.29-2.18-4.64c-3,1.43-6,3-9,4.55l2.46,4.49-.61.33c-2.73,1.49-5.42,3.06-8,4.65l-.59.36-2.69-4.34c-2.83,1.77-5.64,3.63-8.37,5.55l2.95,4.16-.56.4c-2.5,1.77-5,3.63-7.41,5.54l-.54.43-3.16-4c-2.61,2.07-5.18,4.24-7.68,6.47l3.39,3.79-.51.46c-2.29,2-4.55,4.18-6.73,6.35l-.49.49-3.58-3.61,0,0c-2.35,2.35-4.66,4.78-6.88,7.26l3.8,3.39-.46.51c-2,2.29-4,4.67-6,7.07l-.43.54-4-3.19c-2.08,2.61-4.11,5.31-6,8l4.17,2.94-.4.56c-1.79,2.55-3.52,5.14-5.13,7.7l-.37.58-4.32-2.72c-1.77,2.83-3.47,5.74-5.08,8.67l4.49,2.45-.33.6c-1.47,2.69-2.88,5.47-4.21,8.24l-.3.62-4.63-2.22c-1.43,3-2.78,6.09-4,9.18l4.75,1.92-.26.64c-1.12,2.78-2.21,5.69-3.23,8.65l-.22.65-4.86-1.68c-1.08,3.16-2.07,6.38-3,9.58l5,1.37-.18.66c-.83,3-1.58,6-2.23,9l-.15.67-5-1.11C-2169.26,261.23-2169.89,264.54-2170.42,267.83Z" transform="translate(2320.23 54)"/><path class="cls-2" d="M-1991.29,481.9h-.69c-3.81-.05-7.68-.23-11.5-.52l-.69-.05.39-5.15c-2.62-.21-5.27-.48-7.9-.81l-.66,5.13-.68-.09c-3.78-.49-7.6-1.1-11.36-1.82l-.68-.13,1-5.07c-2.58-.5-5.18-1.07-7.75-1.69l-1.23,5-.67-.16c-3.7-.91-7.43-2-11.07-3.1l-.66-.21,1.54-4.92c-2.76-.88-5.5-1.82-8.15-2.8l-.29-.11-3.91-10,1.49.61a171.62,171.62,0,0,0,187-37.38c67-67,67-176.06,0-243.07a171.83,171.83,0,0,0-35-27l-.59-.34,3.48-6.24,2.93-5,.6.35c3.29,1.92,6.58,4,9.76,6.1l.57.38-2.84,4.24c2.18,1.47,4.35,3,6.49,4.59l3.06-4.09.55.41c3.06,2.29,6.08,4.7,9,7.18l.53.45-3.3,3.88c2,1.73,4,3.51,5.92,5.3l3.49-3.71.5.47c1.36,1.28,2.69,2.57,4,3.91s2.77,2.81,4.1,4.24l.47.5-3.71,3.49c1.8,1.93,3.57,3.92,5.29,5.93l3.89-3.29.45.53c2.47,2.92,4.88,5.95,7.16,9l.41.55-4.09,3c1.58,2.14,3.12,4.32,4.58,6.5l4.25-2.83.38.57c2.12,3.18,4.17,6.47,6.09,9.77l.35.6-4.43,2.57c1.31,2.28,2.59,4.62,3.8,7l4.56-2.34.31.61c1.74,3.4,3.4,6.91,4.93,10.43l.28.63-4.7,2c1,2.39,2,4.87,3,7.39l4.81-1.8.24.65c1.34,3.58,2.58,7.25,3.7,10.92l.2.66-4.93,1.5c.77,2.57,1.48,5.14,2.12,7.67l5-1.24.17.67c.92,3.7,1.74,7.49,2.43,11.26l.12.68-5.08.93c.47,2.61.88,5.24,1.23,7.86l5.13-.67.09.68c.49,3.79.88,7.65,1.13,11.46l0,.69-5.16.35c.16,2.6.27,5.26.33,7.94l5.18-.08v.69c.06,3.83,0,7.7-.17,11.51l0,.69-5.16-.24c-.13,2.62-.32,5.28-.57,7.92l5.14.5-.07.69c-.37,3.81-.87,7.65-1.48,11.41l-.11.68-5.1-.82c-.43,2.64-.92,5.26-1.46,7.8l5,1.08-.14.67c-.8,3.73-1.73,7.48-2.76,11.16l-.19.66-5-1.39c-.72,2.53-1.5,5.08-2.34,7.58l4.88,1.65-.22.65c-1.22,3.62-2.57,7.24-4,10.77l-.26.64-4.75-1.94c-1,2.4-2.06,4.84-3.19,7.26l4.64,2.19-.29.62c-1.63,3.45-3.39,6.9-5.23,10.26l-.33.6-4.48-2.47c-1.29,2.34-2.64,4.64-4,6.87l4.34,2.69-.36.59c-2,3.24-4.15,6.46-6.37,9.59l-.4.56-4.16-3c-1.53,2.14-3.13,4.27-4.77,6.36l4,3.17-.43.54c-2.37,3-4.87,5.95-7.42,8.79l-.46.51-3.78-3.4c-1.77,2-3.61,3.9-5.46,5.78l3.61,3.59-.8.8c-2.7,2.7-5.52,5.36-8.38,7.88l-.52.46-3.38-3.82c-2,1.74-4,3.46-6.09,5.11l3.18,4-.54.43c-3,2.38-6.09,4.7-9.22,6.89l-.57.4-2.92-4.18c-2.18,1.51-4.4,3-6.64,4.38l2.7,4.33-.59.37c-3.24,2-6.59,4-10,5.79l-.61.33-2.43-4.51c-2.34,1.25-4.72,2.45-7.09,3.59l2.2,4.64-.62.3c-3.46,1.64-7,3.19-10.57,4.61l-.64.26-1.91-4.77c-2.44,1-4.94,1.88-7.47,2.75l1.66,4.87-.65.22c-3.6,1.22-7.31,2.36-11,3.37l-.67.18-1.35-5c-2.54.67-5.13,1.31-7.73,1.88l1.09,5-.67.15c-3.74.81-7.56,1.51-11.33,2.09l-.68.1-.78-5.11c-2.64.39-5.29.72-7.89,1l.51,5.14-.69.07c-3.82.38-7.68.65-11.48.79l-.69,0-.19-5.17c-2.63.09-5.29.12-7.95.09Zm-11.39-1.86c3.34.24,6.7.39,10,.46l.07-5.17h.69c3.09,0,6.2,0,9.25-.11l.69,0,.19,5.17c3.32-.14,6.69-.37,10-.69l-.51-5.14.69-.07c3-.3,6.1-.69,9.19-1.16l.68-.1.78,5.11c3.3-.51,6.62-1.13,9.89-1.82l-1.09-5,.67-.15c3-.65,6.06-1.39,9-2.19l.67-.18,1.35,5c3.24-.89,6.47-1.88,9.62-2.94l-1.66-4.87.65-.22c2.95-1,5.88-2.08,8.7-3.2l.64-.26,1.9,4.77c3.1-1.25,6.2-2.6,9.23-4l-2.2-4.63.62-.3c2.76-1.3,5.54-2.71,8.26-4.18l.61-.33,2.43,4.51c2.93-1.6,5.85-3.29,8.69-5l-2.7-4.33.59-.37c2.6-1.62,5.2-3.34,7.73-5.1l.57-.39,2.92,4.17c2.73-1.92,5.43-3.94,8-6l-3.18-4,.54-.43c2.4-1.91,4.78-3.91,7.09-5.95l.52-.46,3.37,3.82c2.6-2.31,5.16-4.73,7.63-7.19l-3.61-3.58.49-.49c2.16-2.17,4.3-4.44,6.36-6.73l.46-.51,3.78,3.4c2.22-2.49,4.4-5.07,6.48-7.67l-4-3.17.43-.54c1.91-2.42,3.78-4.91,5.55-7.4l.4-.56,4.16,3c1.93-2.74,3.8-5.54,5.56-8.37l-4.34-2.69.36-.59c1.6-2.58,3.17-5.27,4.66-8l.33-.6,4.48,2.47c1.6-2.93,3.13-5.94,4.57-8.95l-4.64-2.19.29-.62c1.33-2.82,2.58-5.66,3.71-8.45l.26-.64,4.75,1.94c1.25-3.09,2.43-6.25,3.51-9.4l-4.88-1.65.22-.65c1-2.91,1.9-5.88,2.72-8.83l.19-.66,5,1.39c.89-3.22,1.7-6.49,2.41-9.74l-5-1.08.14-.67c.63-3,1.2-6,1.7-9.09l.11-.68,5.1.82c.52-3.29,1-6.63,1.29-10l-5.14-.5.07-.69c.3-3.08.52-6.19.66-9.23l0-.69,5.16.24c.14-3.33.19-6.7.15-10l-5.17.08v-.69c0-3.12-.18-6.24-.38-9.25l0-.69,5.16-.35c-.24-3.33-.57-6.69-1-10l-5.13.67-.09-.68c-.39-3-.87-6.12-1.43-9.15l-.12-.68,5.08-.93c-.62-3.29-1.33-6.59-2.12-9.83l-5,1.24-.17-.67c-.73-2.93-1.56-5.94-2.46-8.93l-.2-.66,4.93-1.5c-1-3.2-2.07-6.4-3.23-9.53l-4.81,1.8-.24-.65c-1.1-2.94-2.26-5.83-3.46-8.6l-.27-.63,4.7-2c-1.35-3.07-2.8-6.12-4.31-9.1l-4.56,2.34-.31-.62c-1.4-2.75-2.89-5.48-4.43-8.13l-.35-.6,4.42-2.57c-1.69-2.88-3.47-5.75-5.31-8.53l-4.24,2.83-.38-.57c-1.69-2.53-3.48-5.08-5.33-7.57l-.41-.55,4.09-3c-2-2.67-4.1-5.31-6.25-7.86l-3.89,3.29-.45-.53c-2-2.35-4.06-4.67-6.16-6.91l-.47-.5,3.71-3.48c-1.18-1.24-2.39-2.49-3.6-3.7s-2.32-2.29-3.49-3.4l-3.49,3.7-.5-.47c-2.22-2.09-4.54-4.17-6.9-6.17l-.53-.45,3.3-3.88c-2.55-2.15-5.19-4.26-7.85-6.26l-3.05,4.08-.55-.41c-2.48-1.85-5-3.65-7.56-5.34l-.57-.38,2.84-4.24c-2.79-1.85-5.65-3.64-8.52-5.33l-2.23,3.82-2.81,5a173.26,173.26,0,0,1,34.73,26.87,172.09,172.09,0,0,1,50.67,122.51,172.09,172.09,0,0,1-50.67,122.51,173,173,0,0,1-187,38.29l2.51,6.41c2.75,1,5.59,2,8.45,2.88l.66.21-1.54,4.91c3.19,1,6.43,1.9,9.66,2.7l1.23-5,.67.16c3,.74,6,1.4,9,2l.68.13-1,5.06c3.29.62,6.61,1.15,9.91,1.59l.66-5.13.68.09c3.06.39,6.16.71,9.2.94l.69.05Z" transform="translate(2320.23 54)"/></g><path class="cls-3" d="M-1539.23,416c-36.22,0-63.72-.29-64.59-1.15l-.22-.52a.45.45,0,0,0,0,.17c-1.15-2.61-41.49-42.2-68.32-68.18l1-1c19.76,19.13,64.57,62.72,68.44,68.45,5.72,1.56,150.59.59,226.77-.15V415C-1408.11,415.33-1483.85,416-1539.23,416Z" transform="translate(2320.23 54)"/><g class="cls-1"><polygon class="cls-2" points="1289.57 377.68 1296.74 377.68 1293.16 369.17 1289.57 377.68"/><polygon class="cls-2" points="1289.57 366.91 1296.74 366.91 1293.16 358.4 1289.57 366.91"/><polygon class="cls-2" points="1289.57 356.14 1296.74 356.14 1293.16 347.63 1289.57 356.14"/><polygon class="cls-2" points="1289.57 345.37 1296.74 345.37 1293.16 336.86 1289.57 345.37"/><polygon class="cls-2" points="1289.57 334.59 1296.74 334.59 1293.16 326.09 1289.57 334.59"/></g><g class="cls-1"><path class="cls-2" d="M-1131,452.8a3.89,3.89,0,0,1-3.89-3.89A3.89,3.89,0,0,1-1131,445a3.89,3.89,0,0,1,3.89,3.89A3.89,3.89,0,0,1-1131,452.8Zm0-6.78a2.89,2.89,0,0,0-2.89,2.89,2.89,2.89,0,0,0,2.89,2.89,2.89,2.89,0,0,0,2.89-2.89A2.89,2.89,0,0,0-1131,446Z" transform="translate(2320.23 54)"/><path class="cls-2" d="M-1118.36,452.8a3.89,3.89,0,0,1-3.89-3.89,3.89,3.89,0,0,1,3.89-3.89,3.89,3.89,0,0,1,3.89,3.89A3.89,3.89,0,0,1-1118.36,452.8Zm0-6.78a2.89,2.89,0,0,0-2.89,2.89,2.89,2.89,0,0,0,2.89,2.89,2.89,2.89,0,0,0,2.89-2.89A2.89,2.89,0,0,0-1118.36,446Z" transform="translate(2320.23 54)"/><path class="cls-2" d="M-1105.76,452.8a3.89,3.89,0,0,1-3.89-3.89,3.89,3.89,0,0,1,3.89-3.89,3.89,3.89,0,0,1,3.89,3.89A3.89,3.89,0,0,1-1105.76,452.8Zm0-6.78a2.89,2.89,0,0,0-2.89,2.89,2.89,2.89,0,0,0,2.89,2.89,2.89,2.89,0,0,0,2.89-2.89A2.89,2.89,0,0,0-1105.76,446Z" transform="translate(2320.23 54)"/><path class="cls-2" d="M-1093.15,452.8a3.89,3.89,0,0,1-3.89-3.89,3.89,3.89,0,0,1,3.89-3.89,3.89,3.89,0,0,1,3.89,3.89A3.89,3.89,0,0,1-1093.15,452.8Zm0-6.78a2.89,2.89,0,0,0-2.89,2.89,2.89,2.89,0,0,0,2.89,2.89,2.89,2.89,0,0,0,2.89-2.89A2.89,2.89,0,0,0-1093.15,446Z" transform="translate(2320.23 54)"/><path class="cls-2" d="M-1080.54,452.8a3.89,3.89,0,0,1-3.89-3.89,3.89,3.89,0,0,1,3.89-3.89,3.89,3.89,0,0,1,3.89,3.89A3.89,3.89,0,0,1-1080.54,452.8Zm0-6.78a2.89,2.89,0,0,0-2.89,2.89,2.89,2.89,0,0,0,2.89,2.89,2.89,2.89,0,0,0,2.89-2.89A2.89,2.89,0,0,0-1080.54,446Z" transform="translate(2320.23 54)"/><path class="cls-2" d="M-1067.94,452.8a3.89,3.89,0,0,1-3.89-3.89,3.89,3.89,0,0,1,3.89-3.89,3.89,3.89,0,0,1,3.89,3.89A3.89,3.89,0,0,1-1067.94,452.8Zm0-6.78a2.89,2.89,0,0,0-2.89,2.89,2.89,2.89,0,0,0,2.89,2.89,2.89,2.89,0,0,0,2.89-2.89A2.89,2.89,0,0,0-1067.94,446Z" transform="translate(2320.23 54)"/><path class="cls-2" d="M-1055.33,452.8a3.89,3.89,0,0,1-3.89-3.89,3.89,3.89,0,0,1,3.89-3.89,3.89,3.89,0,0,1,3.89,3.89A3.89,3.89,0,0,1-1055.33,452.8Zm0-6.78a2.89,2.89,0,0,0-2.89,2.89,2.89,2.89,0,0,0,2.89,2.89,2.89,2.89,0,0,0,2.89-2.89A2.89,2.89,0,0,0-1055.33,446Z" transform="translate(2320.23 54)"/></g><g class="cls-1"><path class="cls-2" d="M-1648.6,722.26a5.37,5.37,0,0,1-5.37-5.37,5.37,5.37,0,0,1,5.37-5.37,5.37,5.37,0,0,1,5.37,5.37A5.37,5.37,0,0,1-1648.6,722.26Zm0-9.35a4,4,0,0,0-4,4,4,4,0,0,0,4,4,4,4,0,0,0,4-4A4,4,0,0,0-1648.6,712.91Z" transform="translate(2320.23 54)"/><path class="cls-2" d="M-1631.2,722.26a5.37,5.37,0,0,1-5.37-5.37,5.37,5.37,0,0,1,5.37-5.37,5.37,5.37,0,0,1,5.37,5.37A5.37,5.37,0,0,1-1631.2,722.26Zm0-9.35a4,4,0,0,0-4,4,4,4,0,0,0,4,4,4,4,0,0,0,4-4A4,4,0,0,0-1631.2,712.91Z" transform="translate(2320.23 54)"/><path class="cls-2" d="M-1613.81,722.26a5.37,5.37,0,0,1-5.37-5.37,5.37,5.37,0,0,1,5.37-5.37,5.37,5.37,0,0,1,5.37,5.37A5.37,5.37,0,0,1-1613.81,722.26Zm0-9.35a4,4,0,0,0-4,4,4,4,0,0,0,4,4,4,4,0,0,0,4-4A4,4,0,0,0-1613.81,712.91Z" transform="translate(2320.23 54)"/><path class="cls-2" d="M-1596.42,722.26a5.37,5.37,0,0,1-5.37-5.37,5.37,5.37,0,0,1,5.37-5.37,5.37,5.37,0,0,1,5.37,5.37A5.37,5.37,0,0,1-1596.42,722.26Zm0-9.35a4,4,0,0,0-4,4,4,4,0,0,0,4,4,4,4,0,0,0,4-4A4,4,0,0,0-1596.42,712.91Z" transform="translate(2320.23 54)"/><path class="cls-2" d="M-1579,722.26a5.37,5.37,0,0,1-5.37-5.37,5.37,5.37,0,0,1,5.37-5.37,5.37,5.37,0,0,1,5.37,5.37A5.37,5.37,0,0,1-1579,722.26Zm0-9.35a4,4,0,0,0-4,4,4,4,0,0,0,4,4,4,4,0,0,0,4-4A4,4,0,0,0-1579,712.91Z" transform="translate(2320.23 54)"/><path class="cls-2" d="M-1561.63,722.26a5.37,5.37,0,0,1-5.37-5.37,5.37,5.37,0,0,1,5.37-5.37,5.37,5.37,0,0,1,5.37,5.37A5.37,5.37,0,0,1-1561.63,722.26Zm0-9.35a4,4,0,0,0-4,4,4,4,0,0,0,4,4,4,4,0,0,0,4-4A4,4,0,0,0-1561.63,712.91Z" transform="translate(2320.23 54)"/><path class="cls-2" d="M-1544.24,722.26a5.37,5.37,0,0,1-5.37-5.37,5.37,5.37,0,0,1,5.37-5.37,5.37,5.37,0,0,1,5.37,5.37A5.37,5.37,0,0,1-1544.24,722.26Zm0-9.35a4,4,0,0,0-4,4,4,4,0,0,0,4,4,4,4,0,0,0,4-4A4,4,0,0,0-1544.24,712.91Z" transform="translate(2320.23 54)"/></g><g class="cls-1"><circle class="cls-2" cx="664.56" cy="696.63" r="3.09"/><path class="cls-2" d="M-1655.67,646.4a3.78,3.78,0,0,1-3.78-3.78,3.78,3.78,0,0,1,3.78-3.78,3.78,3.78,0,0,1,3.78,3.78A3.78,3.78,0,0,1-1655.67,646.4Zm0-6.17a2.4,2.4,0,0,0-2.4,2.4,2.4,2.4,0,0,0,2.4,2.4,2.4,2.4,0,0,0,2.4-2.4A2.4,2.4,0,0,0-1655.67,640.23Z" transform="translate(2320.23 54)"/></g><g class="cls-1"><circle class="cls-2" cx="355.65" cy="793.15" r="3.09"/><path class="cls-2" d="M-1964.58,742.93a3.78,3.78,0,0,1-3.78-3.78,3.78,3.78,0,0,1,3.78-3.78,3.78,3.78,0,0,1,3.78,3.78A3.78,3.78,0,0,1-1964.58,742.93Zm0-6.17a2.4,2.4,0,0,0-2.4,2.4,2.4,2.4,0,0,0,2.4,2.4,2.4,2.4,0,0,0,2.4-2.4A2.4,2.4,0,0,0-1964.58,736.75Z" transform="translate(2320.23 54)"/></g><path class="cls-3" d="M-961.49,700.58a51,51,0,0,1-36.14-14.94,51.16,51.16,0,0,1,0-72.27,51.16,51.16,0,0,1,72.27,0,51.16,51.16,0,0,1,0,72.27A51,51,0,0,1-961.49,700.58Zm0-101.16a50,50,0,0,0-35.43,14.65,50.16,50.16,0,0,0,0,70.86,50,50,0,0,0,35.43,14.65,49.94,49.94,0,0,0,35.43-14.65,50.16,50.16,0,0,0,0-70.86A50,50,0,0,0-961.49,599.42Z" transform="translate(2320.23 54)"/><path class="cls-3" d="M-962.06,696.9l-1.08,0,.25-7,.92,0Zm4.3-.14-.53-7,.9-.08.72,7Zm-9.69-.23-1.07-.15,1-6.92.91.13Zm15-.5-1.33-6.87.9-.19,1.49,6.84Zm-20.35-.47-1-.26,1.8-6.77.9.23Zm25.58-.86-2.12-6.67.88-.29,2.25,6.63Zm-30.74-.72-1-.38,2.55-6.52.87.33Zm35.79-1.2-2.87-6.39.84-.39,3,6.32Zm-40.73-.95-1-.5,3.3-6.17.81.42Zm45.52-1.54-3.56-6,.78-.48,3.71,5.94Zm-50.19-1.17-.89-.6,4-5.76.76.52Zm54.67-1.84-4.23-5.58.72-.56,4.37,5.47Zm-59-1.37-.82-.7,4.6-5.28.7.6Zm63.1-2.13-4.84-5.06.66-.64.57-.58,5.05,4.84-.68.69Zm-67-1.55-.74-.79,5.17-4.72.63.67Zm71.33-3.13-5.47-4.37.57-.73,5.56,4.25Zm-74.83-1-.64-.87,5.67-4.11.55.74Zm77.95-3.41-5.92-3.73.48-.78,6,3.58Zm-81-1.07-.54-.94,6.11-3.42.46.8Zm83.57-3.66-6.32-3,.39-.84,6.38,2.88Q-918.5,669.49-918.73,670Zm-86.05-1.14q-.22-.49-.43-1l6.46-2.71c.12.28.24.57.37.85Zm88.1-3.85-6.62-2.28c.1-.29.2-.58.29-.87l6.67,2.13Q-916.51,664.48-916.68,665Zm-90-1.19q-.16-.52-.32-1l6.72-1.95c.09.29.17.59.26.88Zm91.48-4-6.83-1.52q.1-.45.19-.9l6.87,1.36C-915.07,659.09-915.14,659.44-915.22,659.79Zm-92.8-1.24q-.1-.53-.19-1.07l6.9-1.17q.08.45.16.9Zm93.67-4.09-7-.74q0-.46.09-.91l7,.57Q-914.3,653.93-914.35,654.47Zm-94.39-1.26q0-.54-.07-1.09l7-.37c0,.3,0,.6.06.91Zm87.65-4.08q0-.45,0-.91l7-.23c0,.36,0,.73,0,1.09Zm-80.77-1.07-7-.25c0-.36,0-.72.05-1.08l7,.41C-1001.84,647.46-1001.86,647.76-1001.87,648.07Zm80.47-3.51c0-.31-.08-.61-.12-.92l6.93-1q.08.53.14,1.06Zm-80-1.08-6.92-1q.08-.54.17-1.08l6.89,1.21C-1001.35,642.88-1001.4,643.18-1001.44,643.48Zm79.23-3.45q-.11-.45-.23-.9l6.77-1.79q.14.52.26,1Zm-78.29-1-6.76-1.81q.14-.52.29-1l6.72,2Q-1000.39,638.54-1000.51,639Zm77-3.36c-.1-.29-.21-.57-.33-.86l6.52-2.56q.2.51.38,1Zm-75.52-1-6.51-2.57q.2-.51.41-1l6.45,2.73Zm73.7-3.22-.42-.82,6.19-3.28.5,1Zm-71.77-.94-6.17-3.31.52-.94,6.09,3.45Zm69.48-3-.51-.76,5.77-4,.6.9Zm-67.09-.88-5.75-4,.62-.88,5.66,4.12Zm64.35-2.82-.6-.71,5.29-4.59.7.82Zm-61.52-.81-5.27-4.61.72-.8,5.16,4.73Zm58.39-2.56-.68-.64,4.74-5.15.78.73Zm-55.17-.72-4.71-5.18.8-.71L-988,619Zm51.68-2.27-.74-.55,4.12-5.66.86.64Zm-48.1-.64-4.1-5.67.88-.62,4,5.76Zm44.29-1.94-.8-.46,3.46-6.09.93.54Zm-40.42-.53-3.41-6.11.95-.52,3.28,6.19Zm36.35-1.59-.84-.37,2.73-6.45,1,.43Zm-32.21-.43-2.7-6.46,1-.41,2.56,6.52Zm27.92-1.21-.88-.27,2-6.72,1,.31Zm-23.59-.31-1.95-6.72,1-.29,1.8,6.77Zm19.12-.83-.89-.16,1.19-6.9,1.07.2Zm-14.64-.19-1.17-6.9,1.07-.17,1,6.93Zm10.09-.44-.92-.06.41-7,1.08.08Zm-5.51-.07-.39-7,1.09,0,.21,7Z" transform="translate(2320.23 54)"/><path class="cls-3" d="M-961.49,791.37h-1.42l0-2q2,0,4,0l0,2Zm-6.45-.15q-2-.09-4-.24l.15-2q2,.15,4,.24Zm14.09-.06-.11-2q2-.11,4-.27l.16,2Q-951.84,791.06-953.85,791.17Zm-23.13-.64q-2-.22-4-.49l.27-2q2,.27,3.94.49Zm32.15-.14-.23-2q2-.23,3.94-.52l.29,2Q-942.82,790.16-944.82,790.4Zm-41.12-1.13q-2-.35-4-.75l.4-2q1.95.4,3.9.74Zm50.09-.21-.36-2q2-.36,3.9-.77l.42,2Q-933.88,788.69-935.86,789.05Zm-59-1.63q-2-.47-3.9-1l.52-1.93q1.92.52,3.85,1Zm67.82-.29-.48-1.94q1.93-.48,3.84-1l.54,1.93Q-925,786.65-927,787.14Zm-76.55-2.11q-1.92-.59-3.83-1.25l.65-1.89q1.88.64,3.77,1.23Zm85.28-.37-.61-1.91q1.89-.6,3.77-1.26l.66,1.89Q-916.36,784.05-918.28,784.66Zm-93.84-2.59q-1.88-.72-3.74-1.49l.77-1.85q1.84.76,3.69,1.47Zm102.38-.44-.73-1.86q1.85-.72,3.68-1.5l.78,1.84Q-907.85,780.9-909.73,781.63Zm-110.74-3.05q-1.83-.83-3.64-1.72l.88-1.8q1.78.88,3.58,1.7Zm119.07-.52-.85-1.81q1.8-.84,3.58-1.73l.9,1.79Q-899.57,777.21-901.4,778.06Zm-127.18-3.51q-1.77-1-3.52-2l1-1.73q1.72,1,3.47,1.93Zm135.27-.6-1-1.75q1.74-1,3.46-2l1,1.72Q-891.54,773-893.3,774Zm-143.1-3.94q-1.71-1.06-3.38-2.17l1.11-1.67q1.66,1.1,3.34,2.14Zm150.91-.68-1.07-1.69q1.68-1.06,3.33-2.18l1.12,1.66Q-883.8,768.26-885.5,769.34ZM-1043.93,765q-1.63-1.17-3.24-2.38L-1046,761q1.58,1.2,3.19,2.35Zm165.94-.76-1.18-1.62q1.61-1.17,3.18-2.39l1.22,1.58Q-876.37,763-878,764.23Zm-173.12-4.74q-1.55-1.27-3.08-2.59l1.31-1.51q1.51,1.3,3,2.56Zm180.28-.84-1.28-1.54q1.53-1.27,3-2.59l1.32,1.5Q-869.29,757.36-870.84,758.65ZM-1058,753.54q-1.47-1.36-2.91-2.78l1.4-1.43q1.42,1.39,2.87,2.74Zm193.89-.91-1.37-1.45q1.44-1.36,2.85-2.77,1.17-1.17,2.31-2.37l1.45,1.38q-1.16,1.21-2.35,2.4Q-862.6,751.25-864.06,752.63Zm-200.33-5.45q-1.39-1.46-2.73-3l1.49-1.34q1.32,1.47,2.7,2.92Zm209-3.46-1.49-1.33q1.32-1.49,2.6-3l1.53,1.29Q-854.07,742.21-855.41,743.72Zm-215-3.31q-1.3-1.55-2.55-3.13l1.57-1.24q1.23,1.56,2.51,3.09Zm220.82-3.64-1.58-1.23q1.22-1.57,2.4-3.16l1.61,1.19Q-848.37,735.18-849.61,736.77Zm-226.42-3.5q-1.2-1.63-2.34-3.29l1.65-1.13q1.13,1.63,2.31,3.24Zm231.76-3.8-1.65-1.13q1.12-1.64,2.19-3.3l1.68,1.08Q-843.13,727.8-844.27,729.46Zm-236.89-3.69q-1.09-1.7-2.12-3.43l1.71-1q1,1.7,2.09,3.38Zm241.75-3.94-1.72-1q1-1.71,2-3.44l1.75,1Q-838.37,720.1-839.4,721.83ZM-1085.79,718q-1-1.77-1.9-3.56l1.78-.92q.91,1.77,1.87,3.51ZM-835,713.9l-1.78-.91q.9-1.77,1.75-3.56l1.81.86Q-834.12,712.11-835,713.9Zm-254.88-4q-.86-1.83-1.66-3.67l1.83-.8q.79,1.82,1.64,3.62Zm258.73-4.19-1.84-.79q.79-1.83,1.52-3.67l1.86.74Q-830.39,703.86-831.19,705.71Zm-262.32-4.14q-.74-1.88-1.42-3.77l1.88-.68q.68,1.87,1.4,3.72Zm265.63-4.29-1.88-.67q.67-1.87,1.28-3.76l1.9.62Q-827.19,695.38-827.87,697.28ZM-1096.55,693q-.62-1.92-1.18-3.85l1.92-.56q.56,1.91,1.16,3.8Zm271.45-4.37-1.92-.55q.55-1.91,1-3.83l1.94.5Q-824.55,686.72-825.1,688.66Zm-274-4.34q-.49-2-.93-3.92l2-.43q.43,1.94.92,3.87Zm276.16-4.44-2-.43q.42-1.94.79-3.89l2,.37Q-822.46,677.91-822.89,679.87Zm-278.1-4.41q-.37-2-.68-4l2-.31q.3,2,.67,3.91Zm279.75-4.5-2-.3q.3-2,.54-3.93l2,.24Q-820.94,669-821.24,671Zm-281.11-4.47q-.24-2-.42-4l2-.18q.18,2,.42,4ZM-820.16,662l-2-.18q.17-2,.29-4l2,.12Q-820,660-820.16,662Zm-283-4.5q-.11-2-.17-4l2-.05q.05,2,.17,4Zm283.49-4.55-2,0q0-1.69,0-3.38v-.59h2v.6C-819.62,650.64-819.63,651.78-819.66,652.93Zm-281.71-4.5h-2q0-2,.09-4l2,.07Q-1101.35,646.44-1101.36,648.43Zm279.64-4.49q-.08-2-.21-4l2-.13q.13,2,.21,4ZM-1101,639.5l-2-.14q.14-2,.34-4l2,.2Q-1100.87,637.52-1101,639.5ZM-822.36,635q-.2-2-.46-3.94l2-.26q.26,2,.47,4Zm-277.73-4.41-2-.27q.27-2,.6-4l2,.32Q-1099.83,628.65-1100.09,630.62Zm276.53-4.44q-.33-2-.71-3.91l2-.39q.39,2,.72,4Zm-275.05-4.37-2-.39q.4-2,.85-3.93l1.95.45Q-1098.22,619.86-1098.61,621.81Zm273.29-4.39q-.45-1.93-1-3.86l1.93-.51q.52,1.95,1,3.91Zm-271.25-4.3-1.93-.52q.52-1.94,1.1-3.87l1.92.57Q-1096.06,611.2-1096.58,613.11Zm268.93-4.33q-.58-1.9-1.21-3.79l1.9-.63q.64,1.91,1.22,3.84ZM-1094,604.57l-1.89-.64q.64-1.9,1.34-3.79l1.88.69Q-1093.35,602.69-1094,604.57Zm263.48-4.25q-.7-1.86-1.45-3.7l1.85-.76q.76,1.87,1.47,3.76Zm-260.35-4.11-1.85-.76q.76-1.86,1.59-3.7l1.83.81Q-1090.1,594.37-1090.86,596.21ZM-833.92,592q-.81-1.81-1.68-3.6l1.8-.87q.88,1.82,1.71,3.65Zm-253.28-4-1.8-.88q.88-1.8,1.82-3.59l1.77.93Q-1086.33,586.28-1087.2,588.06Zm249.35-4q-.93-1.75-1.91-3.49l1.74-1q1,1.76,1.94,3.54ZM-1083,580.18l-1.74-1q1-1.74,2-3.46l1.71,1Q-1082,578.46-1083,580.18Zm240.73-3.92q-1-1.69-2.13-3.36l1.67-1.1q1.11,1.69,2.16,3.4Zm-236.06-3.68-1.67-1.1q1.11-1.67,2.26-3.32l1.64,1.15Q-1077.26,570.92-1078.35,572.58Zm231.13-3.78q-1.15-1.62-2.34-3.21l1.6-1.2q1.22,1.62,2.38,3.26Zm-226-3.5-1.6-1.21q1.21-1.6,2.47-3.17l1.56,1.25Q-1072,563.71-1073.2,565.29Zm220.58-3.63q-1.25-1.54-2.55-3.06l1.52-1.3q1.32,1.54,2.58,3.1Zm-215-3.31-1.52-1.3q1.31-1.52,2.67-3l1.48,1.35Q-1066.31,556.85-1067.6,558.35Zm209.14-3.46q-1.34-1.46-2.73-2.89l1.43-1.39q1.41,1.45,2.77,2.93Zm-203.1-3.12-1.43-1.4,1.18-1.19,1.68-1.65,1.39,1.44-1.65,1.63Zm196.85-3.26q-1.44-1.38-2.91-2.71l1.34-1.48q1.49,1.35,2.95,2.75Zm-190.41-2.93-1.34-1.48q1.5-1.35,3-2.66l1.3,1.52Q-1053.64,544.24-1055.12,545.57Zm183.76-3q-1.52-1.28-3.06-2.51l1.25-1.56q1.57,1.25,3.11,2.55Zm-176.94-2.73-1.24-1.57q1.58-1.26,3.2-2.46l1.2,1.6Q-1046.73,538.56-1048.29,539.8Zm169.95-2.8q-1.6-1.18-3.22-2.31l1.14-1.64q1.65,1.15,3.26,2.35Zm-162.76-2.53-1.14-1.64q1.66-1.15,3.35-2.25l1.09,1.68Q-1039.47,533.33-1041.11,534.46Zm155.43-2.55q-1.67-1.08-3.36-2.1l1-1.71q1.72,1,3.41,2.13Zm-147.92-2.31-1-1.71q1.73-1,3.49-2l1,1.74Q-1031.9,528.57-1033.6,529.6Zm140.28-2.29q-1.74-1-3.49-1.88l.93-1.77q1.78.93,3.54,1.91Zm-132.47-2.08-.92-1.78q1.79-.93,3.61-1.8l.87,1.8Q-1024,524.32-1025.8,525.24Zm124.54-2q-1.79-.86-3.6-1.66l.81-1.83q1.84.81,3.66,1.68Zm-116.48-1.83-.8-1.83q1.85-.81,3.72-1.57l.75,1.85Q-1015.91,520.59-1017.73,521.39Zm108.3-1.75q-1.84-.74-3.71-1.42l.69-1.88q1.89.69,3.76,1.44Zm-100-1.58-.68-1.88q1.9-.69,3.81-1.32l.63,1.9Q-1007.56,517.38-1009.43,518.06Zm91.61-1.48q-1.89-.62-3.79-1.18l.57-1.92q1.93.57,3.84,1.2Zm-83.12-1.31-.56-1.92q1.93-.57,3.88-1.08l.51,1.93Q-999,514.72-1000.94,515.27Zm74.55-1.2q-1.92-.5-3.86-.94l.44-1.95q2,.45,3.91,1Zm-65.89-1-.44-2q2-.44,3.94-.83l.38,2Q-990.35,512.6-992.28,513Zm57.18-.92q-2-.37-3.91-.69l.32-2q2,.32,4,.7Zm-48.4-.76-.31-2q2-.32,4-.58l.26,2Q-981.54,511-983.51,511.36Zm39.58-.63q-2-.25-3.95-.44l.19-2q2,.19,4,.45Zm-30.71-.49-.19-2q2-.19,4-.32l.13,2Q-972.66,510.05-974.64,510.24Zm21.82-.35q-2-.12-4-.19l.07-2q2,.07,4,.19Zm-12.9-.2-.06-2q2-.06,4-.06v2Q-963.74,509.63-965.72,509.69Z" transform="translate(2320.23 54)"/><path class="cls-3" d="M-964.77,745.55c-1.33,0-2.69-.12-4-.22l.15-2c1.32.1,2.65.17,4,.22Zm9.08-.12-.12-2c1.32-.08,2.64-.19,3.94-.32l.2,2C-953,745.24-954.34,745.35-955.69,745.43Zm-22.13-1.22c-1.32-.22-2.65-.48-4-.77l.42-2c1.29.28,2.59.53,3.88.75Zm35.14-.46-.39-2c1.28-.25,2.58-.54,3.86-.85l.47,1.94C-940,743.2-941.37,743.5-942.68,743.75Zm-47.89-2.63c-1.28-.41-2.57-.84-3.82-1.3l.68-1.88c1.23.45,2.49.88,3.74,1.27Zm60.55-.79-.65-1.89c1.24-.43,2.49-.89,3.71-1.37l.73,1.86C-927.48,739.42-928.75,739.89-930,740.33Zm-72.75-4c-1.22-.58-2.43-1.19-3.61-1.81l.94-1.77c1.15.61,2.34,1.21,3.53,1.77Zm84.83-1.12-.91-1.78c1.17-.6,2.35-1.23,3.49-1.87l1,1.74C-915.54,734-916.74,734.59-917.94,735.2Zm-96.26-5.32c-1.12-.74-2.24-1.51-3.33-2.29l1.17-1.62c1.06.76,2.16,1.52,3.25,2.24Zm107.52-1.42-1.14-1.64c1.08-.75,2.16-1.54,3.2-2.33l1.21,1.59C-904.48,726.89-905.58,727.69-906.68,728.46Zm-118-6.51c-1-.89-2-1.8-3-2.72l1.38-1.45c.94.9,1.93,1.79,2.92,2.66Zm128.19-1.7-1.36-1.47c1-.9,1.94-1.82,2.85-2.74l1.48,1.34-.07.07C-894.47,718.39-895.45,719.33-896.45,720.25Zm-137.47-7.57c-.88-1-1.76-2.05-2.6-3.1l1.56-1.25c.82,1,1.68,2,2.54,3Zm146.56-2-1.54-1.28c.84-1,1.66-2.05,2.45-3.1l1.59,1.21C-885.66,708.57-886.5,709.63-887.35,710.67Zm-154.5-8.43c-.74-1.13-1.46-2.28-2.15-3.42l1.72-1c.67,1.12,1.38,2.25,2.1,3.35ZM-879.71,700l-1.7-1.05c.69-1.12,1.37-2.26,2-3.4l1.74,1C-878.31,697.7-879,698.87-879.71,700Zm-168.59-9.21c-.57-1.2-1.13-2.44-1.66-3.68l1.84-.78c.52,1.22,1.06,2.43,1.63,3.61Zm174.71-2.39-1.83-.81c.53-1.19,1-2.42,1.52-3.65l1.86.73C-872.53,685.94-873,687.2-873.59,688.41Zm-179.52-9.81c-.4-1.26-.78-2.57-1.14-3.88l1.93-.52c.35,1.28.72,2.56,1.12,3.8Zm184-2.52-1.92-.55c.36-1.25.7-2.54,1-3.82l1.94.47C-868.4,673.49-868.75,674.8-869.12,676.08Zm-187.09-10.23c-.23-1.33-.43-2.67-.6-4l2-.26c.17,1.3.36,2.61.59,3.91Zm189.83-2.59-2-.29c.19-1.3.35-2.62.48-3.93l2,.2C-866,660.58-866.18,661.93-866.37,663.26Zm-191.17-10.45q-.06-1.65-.06-3.31v-.73l2,0v.72q0,1.62.05,3.24Zm192.15-2.63h-2v-.67q0-1.64-.06-3.29l2-.07q.06,1.68.06,3.36Zm-189.72-10.27-2-.2c.13-1.33.3-2.67.49-4l2,.29C-1054.82,637.28-1055,638.6-1055.11,639.9Zm186.94-2.56c-.17-1.29-.37-2.61-.59-3.91l2-.34c.23,1.33.43,2.67.6,4Zm-184.77-10.1-1.94-.47c.32-1.3.66-2.62,1-3.9l1.92.55C-1052.29,624.68-1052.63,626-1052.94,627.24Zm182.26-2.49c-.35-1.27-.72-2.55-1.12-3.79l1.91-.61c.4,1.27.79,2.58,1.14,3.88ZM-1049.07,615l-1.86-.73c.49-1.25,1-2.5,1.56-3.73l1.83.81C-1048.08,612.54-1048.59,613.77-1049.07,615Zm174.18-2.38c-.51-1.21-1.06-2.42-1.63-3.61l1.81-.86c.58,1.21,1.14,2.45,1.66,3.68Zm-168.67-9.21-1.74-1c.66-1.17,1.35-2.34,2.05-3.48l1.7,1.05C-1042.24,601.11-1042.91,602.25-1043.56,603.4Zm162.84-2.23c-.68-1.13-1.39-2.26-2.11-3.35l1.67-1.1c.73,1.11,1.46,2.27,2.15,3.42Zm-155.79-8.5-1.59-1.21c.81-1.07,1.65-2.13,2.51-3.16l1.54,1.28C-1034.89,590.58-1035.72,591.62-1036.51,592.66Zm148.45-2c-.83-1-1.68-2-2.54-3l1.51-1.32c.88,1,1.75,2,2.6,3.1ZM-1028,583l-1.45-1.38,0,0c.94-.94,1.9-1.87,2.88-2.76l1.36,1.47C-1026.17,581.13-1027.12,582-1028,583Zm131.26-1.78c-1-.91-1.94-1.8-2.92-2.66l1.31-1.51c1,.88,2,1.79,3,2.72Zm-121.63-6.65-1.21-1.59c1.07-.81,2.17-1.61,3.27-2.38l1.14,1.64C-1016.27,573-1017.35,573.74-1018.4,574.53ZM-906.67,573c-1.07-.77-2.16-1.52-3.26-2.24l1.1-1.67c1.12.74,2.24,1.5,3.33,2.29Zm-101-5.52-1-1.74c1.17-.66,2.37-1.3,3.56-1.91l.91,1.78C-1005.35,566.2-1006.52,566.83-1007.67,567.47Zm90.08-1.23c-1.16-.61-2.35-1.21-3.53-1.77l.86-1.81c1.21.58,2.43,1.19,3.61,1.81Zm-78.49-4.29-.73-1.86c1.25-.49,2.53-1,3.79-1.4l.65,1.89C-993.59,561-994.84,561.46-996.07,561.95Zm66.75-.91c-1.23-.45-2.49-.87-3.74-1.27l.6-1.91c1.29.41,2.57.84,3.83,1.3Zm-54.5-3-.47-1.94c1.31-.32,2.64-.61,3.94-.87l.39,2C-981.24,557.47-982.54,557.75-983.83,558.07Zm42.16-.57c-1.28-.27-2.59-.53-3.88-.75l.34-2c1.32.23,2.66.48,4,.76Zm-29.5-1.61-.2-2c1.33-.14,2.69-.25,4-.33l.12,2C-968.53,555.65-969.86,555.75-971.17,555.89Zm16.79-.23c-1.31-.1-2.64-.17-4-.21l.07-2c1.34,0,2.7.12,4,.22Z" transform="translate(2320.23 54)"/><path class="cls-3" d="M-961.49,732.68a82.64,82.64,0,0,1-58.82-24.36,83.28,83.28,0,0,1,0-117.64,82.64,82.64,0,0,1,58.82-24.36,82.64,82.64,0,0,1,58.82,24.36,82.64,82.64,0,0,1,24.36,58.82,82.64,82.64,0,0,1-24.36,58.82h0A82.64,82.64,0,0,1-961.49,732.68Zm0-164.37a80.65,80.65,0,0,0-57.41,23.78,81.28,81.28,0,0,0,0,114.81,80.65,80.65,0,0,0,57.41,23.78,80.65,80.65,0,0,0,57.41-23.78h0a80.65,80.65,0,0,0,23.78-57.41,80.65,80.65,0,0,0-23.78-57.41A80.65,80.65,0,0,0-961.49,568.31Z" transform="translate(2320.23 54)"/><path class="cls-3" d="M-961.9,755.59h-.5a105.89,105.89,0,0,1-37.39-7.13l-.47-.18.18-.47L-983,703.63l.47.18A58.14,58.14,0,0,0-962,707.73h.5ZM-999,747.7a104.84,104.84,0,0,0,36.07,6.88l.39-45.86a59.13,59.13,0,0,1-19.93-3.8Zm134.14-54.43-43.7-19.53.2-.46a58,58,0,0,0,5-20.3l0-.5,47.78,2.84,0,.5a105.69,105.69,0,0,1-9,37Zm-42.38-20L-865.33,692a104.65,104.65,0,0,0,8.72-35.69l-45.78-2.72A59,59,0,0,1-907.2,673.24Zm-112.51-24.74-47.85-1.22v-.5a105.81,105.81,0,0,1,7.77-37.27l.19-.46,44.34,18-.19.46A58.07,58.07,0,0,0-1019.7,648Zm-46.82-2.2,45.85,1.17a59.06,59.06,0,0,1,4.13-19.86L-1059,610.35A104.77,104.77,0,0,0-1066.54,646.3Zm159.46-17.6-.18-.47a57.76,57.76,0,0,0-11-17.75l-.33-.37,35.5-32.1.34.37a105.4,105.4,0,0,1,20.06,32.41l.18.46Zm-10.1-18.51a58.73,58.73,0,0,1,10.66,17.21l42.72-16.71a104.42,104.42,0,0,0-19.36-31.27Zm-84.42-2.92-32.69-35,.37-.34a105.53,105.53,0,0,1,32.06-20.61l.46-.19.19.46,18,43.81-.46.19a57.81,57.81,0,0,0-17.56,11.3Zm-31.28-34.91,31.33,33.5a58.8,58.8,0,0,1,17-11l-17.44-42.42A104.5,104.5,0,0,0-1032.87,572.36Zm94.72,23.76-.46-.2A58,58,0,0,0-959,591.32l-.5,0,0-.5,2-47.32.5,0a105.75,105.75,0,0,1,37.14,8.4l.46.2Zm-20.31-5.78a59,59,0,0,1,19.78,4.47l18-42.19a104.72,104.72,0,0,0-35.83-8.11Z" transform="translate(2320.23 54)"/><path class="cls-3" d="M-1106.34,673.94a147.75,147.75,0,0,1-1.39-38.25l-16.13-1.54,0-.5a158.29,158.29,0,0,1,15.46-54.79l.22-.45,14.41,7.06A146.5,146.5,0,0,1-1077.23,559l.79.62A145.47,145.47,0,0,0-1093,586.36l-.22.45-14.42-7.06a157.3,157.3,0,0,0-15.09,53.5l16.13,1.54,0,.5a146.77,146.77,0,0,0,1.33,38.48Z" transform="translate(2320.23 54)"/><path class="cls-3" d="M-858.33,546.34a145.52,145.52,0,0,0-40.48-28.61l-.46-.22,4.81-9.41a157.21,157.21,0,0,0-53.25-16l-1.36,12.05-.48,0a146.83,146.83,0,0,0-68.56,10.9l-.31.13-32.45-32.45h-63.94l-48.46,48.46h-209.53v-1h209.12l48.46-48.46h64.76l32.26,32.26A147.82,147.82,0,0,1-950,503.07L-948.6,491l.5.06a158.28,158.28,0,0,1,54.53,16.39l.45.23-4.8,9.39a146.52,146.52,0,0,1,40.3,28.59Z" transform="translate(2320.23 54)"/><path class="cls-3" d="M-898.35,759l-1-1.73a124.77,124.77,0,0,0,25.83-19.84,124.76,124.76,0,0,0,19.85-25.83l1.73,1a126.78,126.78,0,0,1-20.16,26.25A126.79,126.79,0,0,1-898.35,759Z" transform="translate(2320.23 54)"/><path class="cls-3" d="M-1002.29,769.17a125.17,125.17,0,0,1-48.58-30.29,126.55,126.55,0,0,1,0-178.76,126.55,126.55,0,0,1,178.76,0,125.78,125.78,0,0,1,37,87.06l-2,0a123.79,123.79,0,0,0-36.42-85.69,124.55,124.55,0,0,0-175.93,0,124.55,124.55,0,0,0,0,175.93,123.21,123.21,0,0,0,47.81,29.81Z" transform="translate(2320.23 54)"/><path class="cls-3" d="M-940.84,782.92l-9.42-59.65.49-.08a74,74,0,0,0,41-20.93l.61-.61,42.7,42.7-.61.61a134,134,0,0,1-74.32,37.88Zm-8.28-58.82,9.11,57.68a133,133,0,0,0,73.17-37.42l-41.29-41.29A75,75,0,0,1-949.12,724.1Zm-107.42,21.28-.35-.35a134.1,134.1,0,0,1-37.93-74.26l-.08-.49,33.38-5.3.08.49-.08-.49,26.26-4.17.08.49a74,74,0,0,0,20.92,41l.35.35Zm-37.22-74.28A133,133,0,0,0-1056.54,744l41.23-41.35a75,75,0,0,1-20.77-40.67Zm206-33-.08-.49a74,74,0,0,0-20.9-40.84l-.55-.54,42.35-42.35,0,0,.35-.35.45.44a134.13,134.13,0,0,1,37.88,74l.08.49-.49.08Zm-20.11-41.88a75,75,0,0,1,20.94,40.74l57.65-9.26A133,133,0,0,0-866.53,555l-20.69,20.6Zm-106.87,1-42.7-42.7.48-.48a134.06,134.06,0,0,1,74.08-37.85l.49-.08,9.52,59.63-.49.08a74,74,0,0,0-40.91,20.91Zm-41.29-42.7,41.29,41.29A75,75,0,0,1-974,574.92l-9.21-57.66A133,133,0,0,0-1056,554.52Z" transform="translate(2320.23 54)"/><path class="cls-3" d="M-960.39,824.08c-1.72,0-3.44,0-5.13-.07h-.5l.36-12.35h.5c1.83.05,3.68.07,5.51.07h.5l.06,12.35h-1.29ZM-965,823c1.61,0,3.23.06,4.89.06l0-10.35c-1.51,0-3,0-4.54-.06Zm16.74.64-.89-12.32.5,0c1.77-.13,3.62-.29,5.49-.49l.5-.05,1.3,12.28-.5.05c-1.94.21-3.93.38-5.91.53Zm.18-11.4.74,10.33c1.64-.12,3.27-.27,4.88-.44l-1.09-10.29C-945.07,812-946.59,812.15-948.06,812.26Zm-28.78,11-.5,0c-2-.19-4-.42-5.89-.67l-.5-.07,1.6-12.25.5.06c1.8.24,3.64.45,5.47.62l.5,0Zm-5.76-1.64c1.59.2,3.22.39,4.86.55l1-10.3c-1.51-.15-3-.32-4.51-.51Zm52-.13-2.13-12.16.49-.09c1.79-.31,3.61-.67,5.42-1l.49-.1,2.53,12.09-.49.1c-1.91.4-3.87.78-5.82,1.12Zm-1-11.35,1.79,10.19c1.61-.29,3.23-.6,4.81-.93l-2.12-10.13C-928.58,809.63-930.08,809.92-931.56,810.18Zm18.33,7.45-3.36-11.89.48-.14c1.75-.5,3.54-1,5.29-1.59l.48-.15,3.75,11.77-.48.15c-1.89.6-3.8,1.18-5.69,1.71Zm-2.12-11.2,2.81,10c1.56-.45,3.14-.92,4.7-1.41l-3.14-9.86C-912.43,805.58-913.9,806-915.35,806.44Zm19,5.54-4.55-11.48.47-.18c1.65-.65,3.36-1.37,5.1-2.12l.46-.2,4.94,11.32-.46.2c-1.79.78-3.64,1.55-5.49,2.28Zm-3.25-10.92,3.81,9.62c1.53-.61,3-1.24,4.54-1.89l-4.14-9.49C-896.81,799.93-898.22,800.51-899.59,801.06Zm19.46,3.58-5.7-11,.44-.23c1.61-.84,3.24-1.72,4.85-2.62l.44-.25,6.06,10.76-.44.25c-1.73,1-3.48,1.92-5.21,2.82Zm-4.35-10.53,4.77,9.18c1.43-.75,2.88-1.53,4.3-2.33l-5.08-9C-881.81,792.69-883.15,793.41-884.48,794.11Zm19.71,1.59-6.78-10.32.42-.27c1.53-1,3.06-2,4.56-3.1l.41-.29L-859,791.8l-.41.29c-1.57,1.11-3.22,2.23-4.89,3.34Zm-5.4-10,5.68,8.65c1.38-.91,2.73-1.84,4-2.75l-6-8.46C-867.65,784-868.91,784.83-870.17,785.66Zm19.77-.41-7.78-9.59.39-.32c1.39-1.13,2.77-2.28,4.09-3.42l.52-.45,8.08,9.34-.52.45c-1.44,1.25-2.92,2.49-4.39,3.68Zm-6.37-9.45,6.52,8c1.25-1,2.51-2.08,3.74-3.14l-6.77-7.83C-854.42,773.86-855.59,774.84-856.77,775.81Zm-229.86-5.22-.35-.36c-1.39-1.44-2.74-2.91-4-4.34l-.33-.37,9.19-8.25.33.37c1.22,1.37,2.49,2.72,3.75,4l.35.36Zm-3.3-5c1.07,1.19,2.19,2.39,3.33,3.59l7.47-7.17c-1-1.09-2.08-2.21-3.09-3.33Zm-8.39-8.38-.31-.39c-1.2-1.53-2.4-3.11-3.58-4.72l-.3-.4,10-7.3.3.4c1.07,1.46,2.19,2.94,3.33,4.39l.31.39Zm-2.78-5.3c1,1.32,2,2.63,3,3.89l8.14-6.39c-.94-1.2-1.86-2.42-2.75-3.62Zm-7.51-9.18-.27-.42c-1-1.65-2.08-3.35-3.08-5.06l-.25-.43,10.65-6.25.25.43c.94,1.6,1.9,3.18,2.87,4.7l.27.42Zm-2.24-5.56c.83,1.41,1.69,2.81,2.55,4.18l8.75-5.54c-.8-1.26-1.59-2.57-2.37-3.88Zm305.44-6.35-10.93-5.76.23-.44c.84-1.6,1.68-3.25,2.47-4.9l.22-.45,11.12,5.38-.22.45c-.85,1.76-1.75,3.54-2.67,5.28Zm-9.58-6.17,9.16,4.82c.75-1.44,1.49-2.9,2.2-4.36l-9.32-4.5C-813.6,722-814.29,723.32-815,724.64Zm-302.4,2.62-.22-.45c-.89-1.79-1.75-3.59-2.56-5.35l-.21-.46,11.23-5.13.21.45c.76,1.67,1.56,3.34,2.37,5l.22.45Zm-1.66-5.76c.67,1.46,1.38,2.94,2.11,4.42l9.26-4.62c-.67-1.35-1.32-2.72-2-4.1Zm321.14-6.77-11.45-4.62.19-.46c.68-1.68,1.34-3.41,2-5.13l.17-.47,11.6,4.23-.17.47c-.67,1.84-1.38,3.7-2.12,5.53Zm-10.15-5.17,9.6,3.87c.6-1.51,1.19-3,1.75-4.56l-9.72-3.54C-807,706.75-807.5,708.17-808.06,709.56ZM-1124.54,711l-.18-.47c-.7-1.85-1.37-3.73-2-5.59l-.16-.47,11.69-4,.16.47c.59,1.75,1.22,3.5,1.86,5.2l.18.47Zm-1.07-5.91c.53,1.54,1.08,3.09,1.65,4.62l9.69-3.65c-.53-1.41-1-2.85-1.54-4.29Zm-4.4-11-.13-.48c-.5-1.9-1-3.84-1.42-5.76l-.11-.49,12-2.75.11.49c.4,1.75.84,3.55,1.32,5.36l.13.48Zm-.46-6c.37,1.59.76,3.19,1.17,4.76l10-2.64c-.39-1.49-.75-3-1.09-4.42Zm-3.26-11.42-.08-.49c-.31-2-.59-3.93-.83-5.87l-.06-.5,12.26-1.52.06.5c.23,1.83.49,3.66.77,5.46l.08.49Zm.15-6c.2,1.61.43,3.23.68,4.85l10.22-1.61c-.23-1.49-.44-3-.63-4.51Zm-2.08-11.68,0-.5c-.11-2-.19-3.95-.23-5.92V652l12.35-.27v.5c0,1.84.11,3.7.21,5.51l0,.5Zm.75-5.94c0,1.63.1,3.27.19,4.89l10.33-.57c-.08-1.5-.14-3-.18-4.54Zm337.54-7.45v-.5c0-1.83-.11-3.68-.21-5.51l0-.5,12.33-.68,0,.5c.11,1.92.18,3.92.22,5.93v.5Zm.81-5.56c.08,1.51.14,3,.17,4.54l10.35-.21c0-1.65-.1-3.3-.18-4.89Zm-326.91,1.74-12.34-.56,0-.5c.09-2,.21-4,.37-5.91l0-.5,12.31,1,0,.5c-.14,1.83-.26,3.68-.34,5.5Zm-11.29-1.51,10.34.47c.07-1.5.17-3,.28-4.54l-10.32-.81C-1134.59,637-1134.69,638.62-1134.77,640.24Zm336.27-11.16-.06-.5c-.22-1.81-.48-3.64-.76-5.46l-.08-.49,12.2-1.92.08.49c.31,2,.58,3.93.82,5.88l.06.5Zm.24-5.62c.23,1.5.44,3,.63,4.5l10.27-1.25c-.2-1.61-.43-3.24-.68-4.86Zm-323.69,1.83-12.22-1.8.07-.49c.28-1.93.61-3.9,1-5.84l.09-.49,12.15,2.2-.09.49c-.33,1.83-.63,3.66-.89,5.43Zm-11.08-2.64,10.24,1.5c.22-1.47.47-3,.74-4.48l-10.19-1.85C-1132.53,619.45-1132.79,621.06-1133,622.66Zm331.74-9.88-.11-.49c-.4-1.76-.84-3.57-1.31-5.36l-.13-.48,11.94-3.14.13.48c.51,1.92,1,3.86,1.41,5.77l.11.49Zm-.33-5.61c.38,1.48.75,3,1.08,4.42l10.09-2.29c-.36-1.58-.75-3.18-1.17-4.77Zm-317.16,1.92-12-3,.12-.48c.48-1.91,1-3.83,1.54-5.71l.14-.48,11.87,3.42-.14.48c-.51,1.77-1,3.56-1.43,5.31Zm-10.76-3.74,10,2.53c.37-1.45.77-2.92,1.18-4.38l-9.95-2.87C-1128.71,602.19-1129.14,603.77-1129.54,605.35Zm323.81-8.5-.16-.47c-.57-1.71-1.2-3.46-1.85-5.2l-.18-.47,11.56-4.35.18.47c.71,1.88,1.38,3.77,2,5.61l.16.47Zm-.9-5.55c.53,1.43,1,2.87,1.53,4.29l9.81-3.3c-.52-1.53-1.07-3.08-1.65-4.63Zm-307.36,2-11.61-4.21.17-.47c.67-1.85,1.38-3.71,2.11-5.53l.19-.46,11.46,4.61-.19.46c-.68,1.69-1.34,3.41-2,5.13Zm-10.33-4.81,9.73,3.53c.52-1.42,1.06-2.83,1.62-4.23l-9.6-3.86C-1123.18,585.42-1123.76,587-1124.32,588.48Zm312.57-7L-812,581c-.76-1.67-1.55-3.34-2.37-5l-.22-.45,11.06-5.5.22.45c.9,1.81,1.76,3.61,2.55,5.35l.21.46Zm-1.46-5.42c.67,1.35,1.32,2.73,2,4.1l9.42-4.29c-.66-1.45-1.37-2.93-2.1-4.42Zm-294.42,2-11.13-5.36.22-.45c.86-1.78,1.76-3.56,2.66-5.28l.23-.44,10.93,5.75-.23.44c-.85,1.62-1.68,3.27-2.47,4.9Zm-9.79-5.83,9.32,4.5c.65-1.35,1.34-2.7,2-4l-9.16-4.82C-1116,569.31-1116.71,570.77-1117.42,572.24Zm298.11-5.46-.25-.43c-.95-1.62-1.91-3.2-2.86-4.71l-.27-.42,10.44-6.59.27.42c1.07,1.69,2.1,3.39,3.08,5.06l.25.43Zm-2-5.25c.79,1.25,1.58,2.56,2.36,3.88l8.93-5.23c-.81-1.38-1.67-2.79-2.54-4.18Zm-278.45,2-10.52-6.47.26-.43c1-1.67,2.1-3.36,3.19-5l.28-.42,10.29,6.83-.28.42c-1,1.5-2,3.06-3,4.64Zm-9.14-6.8,8.82,5.42c.8-1.29,1.62-2.58,2.44-3.83l-8.62-5.72C-1107.17,554-1108.05,555.39-1108.91,556.77Zm18.46-6.84-9.81-7.51.3-.4c1.19-1.56,2.43-3.12,3.68-4.64l.32-.39,9.55,7.83-.32.39c-1.17,1.42-2.32,2.88-3.42,4.32Zm-8.4-7.69,8.22,6.29c.92-1.19,1.86-2.38,2.82-3.56l-8-6.57C-1096.84,539.67-1097.86,541-1098.85,542.24Zm19.06-4.93-9-8.46.34-.36c1.33-1.41,2.72-2.84,4.13-4.25l.35-.35,8.71,8.76-.35.35c-1.31,1.3-2.6,2.63-3.84,3.95Zm-7.58-8.51,7.54,7.09c1-1.09,2.09-2.18,3.17-3.26l-7.3-7.34C-1085.12,526.46-1086.27,527.64-1087.37,528.81Zm19.45-3-8.08-9.34.63-.55c1.52-1.32,3-2.57,4.57-3.83l.39-.31,7.77,9.6-.39.31c-1.42,1.15-2.84,2.34-4.23,3.54Zm-6.67-9.24,6.77,7.83c1.24-1.07,2.5-2.13,3.77-3.16l-6.51-8C-1071.92,514.32-1073.25,515.43-1074.59,516.59ZM-863,517.74l-.4-.3c-1.5-1.11-3-2.19-4.48-3.21l-.41-.28,7-10.17.41.28c1.59,1.1,3.21,2.26,4.82,3.45l.4.3Zm-3.9-4c1.22.85,2.46,1.74,3.69,2.64L-857,508c-1.33-1-2.66-1.93-4-2.85Zm-9.81-5.15-.43-.25c-1.62-1-3.23-1.87-4.79-2.74l-.44-.24,5.94-10.82.44.24c1.69.92,3.42,1.91,5.14,2.93l.43.25Zm-4.3-3.62c1.3.72,2.62,1.47,4,2.26l5.27-8.91c-1.42-.84-2.85-1.65-4.24-2.42Zm-10.28-4.12-.45-.21c-1.67-.77-3.36-1.52-5-2.23l-.46-.19,4.82-11.37.46.2c1.8.76,3.61,1.57,5.4,2.39l.45.21Zm-4.63-3.16c1.37.59,2.76,1.2,4.14,1.84l4.35-9.39c-1.48-.68-3-1.34-4.45-2Zm-10.65-3.05-.47-.16c-1.72-.59-3.48-1.17-5.23-1.71l-.48-.15,3.64-11.8.48.15c1.84.57,3.73,1.18,5.62,1.83l.47.16Zm-4.93-2.68c1.45.45,2.89.92,4.32,1.41l3.37-9.79c-1.56-.53-3.11-1-4.64-1.51Zm-10.91-2-.49-.12c-1.81-.43-3.62-.82-5.38-1.17l-.49-.1,2.43-12.11.49.1c2,.4,3.91.82,5.78,1.26l.49.11Zm-5.18-2.17c1.46.3,2.94.62,4.44,1l2.37-10.08c-1.55-.36-3.16-.71-4.77-1ZM-994.47,489-997,476.91l.49-.1c1.9-.4,3.86-.77,5.83-1.11l.49-.09,2.12,12.17-.49.09c-1.78.31-3.6.66-5.42,1Zm-1.34-11.32,2.11,10.13c1.5-.31,3-.6,4.47-.86l-1.77-10.2C-992.62,477.06-994.24,477.36-995.81,477.69Zm57.16,9.23-.5-.06c-1.81-.24-3.66-.45-5.48-.62l-.5,0,1.2-12.29.5,0c1.94.19,3.91.41,5.88.67l.5.07Zm-5.38-1.64c1.5.15,3,.32,4.52.51l1.34-10.26c-1.62-.21-3.25-.39-4.86-.55Zm-34.11,1.12-1.29-12.28.5-.05c2-.21,4-.38,5.91-.52l.5,0,.88,12.32-.5,0c-1.84.13-3.69.29-5.5.48Zm-.19-11.39,1.08,10.29c1.5-.15,3-.29,4.53-.4l-.73-10.32C-975,474.69-976.69,474.84-978.33,475Zm23.21,10.54h-.5c-1.86-.06-3.72-.08-5.52-.07h-.5l0-12.35h.5c1.93,0,3.93,0,5.92.08h.5Zm-5.44-1.09c1.47,0,3,0,4.46.06l.3-10.35c-1.65,0-3.31-.06-4.89-.06l0,10.35Z" transform="translate(2320.23 54)"/><g class="cls-1"><path class="cls-2" d="M-1030.87,741.86l-.27-.21c-1.46-1.1-2.9-2.25-4.3-3.42l-2.11,2.5-.38-.32c-1.87-1.58-3.73-3.24-5.5-4.94l-.36-.35,2.26-2.37q-.82-.78-1.62-1.59-1-1-1.9-2l-2.37,2.25-.34-.36c-1.69-1.79-3.35-3.65-4.92-5.52l-.32-.38,2.51-2.1c-1.07-1.29-2.11-2.61-3.1-3.92l-2.62,2-.3-.4c-1.48-2-2.91-4-4.26-6.05l-.27-.42,2.74-1.8c-.89-1.37-1.77-2.79-2.63-4.25l-2.83,1.66-.25-.43c-1.24-2.12-2.43-4.3-3.54-6.5l-.23-.45,2.94-1.48c-.82-1.66-1.61-3.33-2.34-5l-.16-.37,4.29-3.07.25.57a109.55,109.55,0,0,0,23.31,34.36,111.35,111.35,0,0,0,12.76,11l.59.44Zm-4.7-5,.38.32c1.42,1.2,2.89,2.37,4.37,3.5l2.86-1.78a112.41,112.41,0,0,1-12.28-10.62,110.57,110.57,0,0,1-23.28-34.1l-2.62,1.88c.74,1.67,1.54,3.35,2.37,5l.22.45-2.94,1.48c1,1.88,2,3.75,3,5.57l2.83-1.66.25.43c1,1.74,2.07,3.44,3.13,5.05l.27.42-2.74,1.8c1.16,1.75,2.39,3.49,3.65,5.18l2.62-2,.3.4c1.17,1.56,2.41,3.13,3.69,4.66l.32.38-2.51,2.1c1.35,1.6,2.77,3.19,4.21,4.73l2.37-2.25.34.36c.73.77,1.47,1.54,2.23,2.3s1.3,1.29,2,1.92l.36.34-2.25,2.36c1.53,1.45,3.11,2.87,4.71,4.23Z" transform="translate(2320.23 54)"/><path class="cls-2" d="M-1070.92,635.53l-4.34-3.48-3.64-.57.08-.49c.38-2.44.85-4.89,1.37-7.27l.11-.49,3.23.72c.36-1.59.76-3.21,1.2-4.84l-3.19-.88.13-.48c.66-2.37,1.39-4.75,2.19-7.06l.16-.47,3.12,1.08c.55-1.59,1.14-3.15,1.74-4.67l-3.06-1.24.19-.46c.92-2.27,1.92-4.55,3-6.76l.22-.45,3,1.42c.73-1.5,1.49-3,2.27-4.45l-2.89-1.58.24-.44c1.17-2.14,2.43-4.29,3.74-6.38l.27-.42,2.78,1.75c.88-1.38,1.81-2.78,2.77-4.16l-2.68-1.89.29-.41c1.42-2,2.91-4,4.45-5.91l.31-.39,2.55,2.05c1-1.29,2.13-2.57,3.22-3.82l-2.44-2.18.33-.37c1.53-1.71,3.13-3.41,4.75-5l.69-.69,2.3,2.32c1.18-1.17,2.4-2.31,3.63-3.43l-2.18-2.44.37-.33c1.84-1.65,3.75-3.25,5.66-4.76l.39-.31,2,2.57c1.31-1,2.66-2,4-3l-1.9-2.68.41-.29c2-1.42,4.08-2.8,6.17-4.09l.42-.26,1.73,2.79c1.4-.85,2.85-1.7,4.32-2.51l-1.58-2.88.44-.24c2.16-1.18,4.38-2.31,6.6-3.35l.45-.21,1.4,3c1.54-.71,3.08-1.38,4.59-2l-1.24-3.05.46-.19c2.27-.92,4.61-1.79,6.95-2.58l.47-.16,1.05,3.14c1.59-.52,3.19-1,4.78-1.46l-.89-3.19.48-.13c2.37-.66,4.79-1.25,7.19-1.76l.49-.1.69,3.25c1.61-.33,3.26-.64,4.91-.91l-.52-3.28.49-.08c2.43-.38,4.9-.7,7.34-.93l.5,0,.32,3.3c1.61-.15,3.28-.26,5-.34l-.15-3.32.5,0c2.44-.11,4.93-.14,7.4-.09h.5l-.07,3.82.68,4.67h-.59a109.36,109.36,0,0,0-80.74,32.24,109.26,109.26,0,0,0-31.27,63.19Zm-6.84-4.88,2.92.46,3.17,2.54a110.23,110.23,0,0,1,31.43-62.89,110.44,110.44,0,0,1,80.88-32.55l-.52-3.58,0-2.9c-2.12,0-4.24,0-6.34.08l.15,3.32-.5,0c-2,.09-4,.23-5.93.41l-.5,0-.32-3.3c-2.09.21-4.21.48-6.29.8l.52,3.28-.49.08c-2,.31-3.93.67-5.85,1.08l-.49.1-.69-3.24c-2.06.45-4.12,1-6.16,1.51l.89,3.19-.48.13c-1.89.52-3.8,1.11-5.69,1.74l-.47.16-1.05-3.13c-2,.68-4,1.42-6,2.21l1.24,3.05-.46.19c-1.79.73-3.63,1.53-5.46,2.39l-.45.21-1.4-3c-1.9.9-3.8,1.86-5.65,2.87l1.58,2.88-.44.24c-1.76,1-3.49,2-5.14,3l-.42.26-1.73-2.79c-1.79,1.12-3.56,2.29-5.28,3.5l1.9,2.67-.41.29c-1.6,1.13-3.21,2.33-4.76,3.56l-.39.31-2-2.57c-1.64,1.3-3.26,2.67-4.85,4.08l2.18,2.43-.37.33c-1.47,1.31-2.92,2.69-4.33,4.08l-.36.35-2.3-2.32c-1.49,1.49-3,3-4.36,4.6l2.44,2.18-.33.37c-1.31,1.47-2.6,3-3.84,4.54l-.31.39-2.55-2c-1.31,1.64-2.59,3.34-3.81,5.06l2.68,1.89-.29.41c-1.16,1.64-2.26,3.31-3.3,4.95l-.27.42-2.77-1.75c-1.12,1.8-2.2,3.63-3.21,5.46l2.89,1.57-.24.44c-.94,1.72-1.85,3.51-2.7,5.29l-.22.45-3-1.42c-.9,1.9-1.76,3.84-2.55,5.79l3.05,1.23-.19.46c-.72,1.79-1.42,3.66-2.07,5.56l-.16.47-3.12-1.08c-.68,2-1.31,4-1.88,6l3.19.88-.13.48c-.53,1.94-1,3.88-1.43,5.76l-.11.49-3.23-.72C-1077,626.47-1077.43,628.55-1077.76,630.65Z" transform="translate(2320.23 54)"/><path class="cls-2" d="M-962.69,768.28h-.5c-2.45,0-4.94-.15-7.39-.33l-.5,0,.25-3.31c-1.64-.13-3.3-.3-5-.51l-.42,3.3-.5-.06c-2.44-.31-4.89-.71-7.3-1.17l-.49-.09.62-3.25c-1.62-.32-3.26-.67-4.87-1.07l-.79,3.22-.49-.12c-2.38-.59-4.78-1.26-7.12-2l-.48-.15,1-3.16c-1.77-.56-3.51-1.16-5.19-1.78l-.21-.08-2.57-6.56,1.08.44a110.2,110.2,0,0,0,120.07-24,110.49,110.49,0,0,0,0-156.08,110.32,110.32,0,0,0-22.5-17.34l-.42-.25,2.26-4.06,1.91-3.28.43.25c2.12,1.23,4.23,2.55,6.27,3.92l.42.28-1.82,2.73c1.36.92,2.73,1.89,4.08,2.88l2-2.63.4.3c2,1.46,3.9,3,5.78,4.61l.38.32-2.12,2.5c1.26,1.08,2.51,2.2,3.72,3.33l2.24-2.38.36.34c.87.82,1.73,1.65,2.59,2.51s1.78,1.81,2.64,2.72l.34.37-2.39,2.24c1.14,1.22,2.25,2.47,3.32,3.73l2.5-2.12.32.38c1.58,1.87,3.13,3.82,4.6,5.79l.3.4-2.63,2c1,1.36,2,2.73,2.88,4.08l2.73-1.82.28.42c1.36,2,2.68,4.15,3.91,6.28l.25.43-2.84,1.65c.82,1.44,1.62,2.91,2.39,4.39l2.93-1.5.23.45c1.12,2.19,2.19,4.44,3.17,6.7l.2.46-3,1.32c.64,1.5,1.27,3.05,1.87,4.64l3.09-1.16.18.47c.86,2.3,1.66,4.66,2.38,7l.15.48-3.17,1c.48,1.62.93,3.24,1.33,4.82l3.21-.8.12.48c.59,2.38,1.12,4.81,1.56,7.24l.09.49-3.27.6c.29,1.63.55,3.29.77,4.94l3.3-.43.06.5c.32,2.43.56,4.9.73,7.36l0,.5-3.32.22c.1,1.64.17,3.31.21,5l3.33-.05v.5c0,2.46,0,5-.11,7.4l0,.5-3.32-.15c-.08,1.64-.2,3.31-.36,5l3.3.32,0,.5c-.24,2.45-.56,4.92-1,7.33l-.08.49-3.28-.53c-.27,1.65-.58,3.3-.92,4.9l3.24.7-.1.49c-.51,2.38-1.11,4.8-1.78,7.18l-.13.48-3.19-.9c-.45,1.58-.94,3.18-1.47,4.77l3.14,1.06-.16.47c-.79,2.33-1.65,4.66-2.58,6.92l-.19.46-3.05-1.25c-.62,1.51-1.29,3-2,4.56l3,1.41-.21.45c-1,2.22-2.18,4.44-3.36,6.59l-.24.44-2.88-1.59c-.82,1.48-1.66,2.92-2.52,4.32l2.79,1.73-.26.42c-1.29,2.08-2.67,4.15-4.1,6.16l-.29.41-2.67-1.9c-1,1.34-2,2.68-3,4l2.57,2-.31.39c-1.52,1.92-3.12,3.82-4.77,5.65l-.33.37-2.43-2.19c-1.11,1.23-2.26,2.44-3.43,3.63l2.32,2.3-.55.56c-1.75,1.75-3.56,3.45-5.39,5.07l-.37.33-2.17-2.45c-1.25,1.09-2.53,2.17-3.83,3.21l2,2.56-.39.31c-1.93,1.53-3.92,3-5.93,4.42l-.41.29-1.88-2.68c-1.37.95-2.77,1.87-4.17,2.75l1.73,2.78-.42.26c-2.08,1.3-4.24,2.55-6.4,3.72l-.44.24-1.56-2.9c-1.47.79-3,1.54-4.46,2.25l1.41,3-.45.21c-2.23,1.06-4.51,2.05-6.79,3l-.46.18-1.22-3.07c-1.53.6-3.11,1.18-4.7,1.73l1.06,3.13-.47.16c-2.33.79-4.72,1.52-7.08,2.16l-.48.13-.87-3.19c-1.59.42-3.22.82-4.86,1.18l.7,3.24-.49.11c-2.4.52-4.85,1-7.28,1.34l-.49.08-.5-3.28c-1.66.25-3.33.46-5,.62l.33,3.3-.5,0c-2.44.24-4.92.41-7.38.51l-.5,0-.12-3.32c-1.65.05-3.33.07-5,.06ZM-970,767c2.1.15,4.23.25,6.33.29l0-3.32h.5c2,0,4,0,5.94-.07l.5,0,.12,3.32c2.11-.09,4.23-.23,6.32-.43l-.33-3.3.5,0c1.93-.19,3.92-.44,5.9-.74l.49-.08.5,3.28c2.08-.33,4.17-.71,6.24-1.15l-.7-3.24.49-.11c2-.42,3.9-.89,5.78-1.4l.48-.13L-930,763c2-.56,4.07-1.18,6.07-1.85L-925,758l.47-.16c1.9-.64,3.77-1.33,5.58-2.06l.46-.18,1.22,3.06c2-.79,3.91-1.64,5.82-2.54l-1.41-3,.45-.21c1.77-.84,3.55-1.74,5.3-2.68l.44-.24,1.56,2.89c1.85-1,3.69-2.08,5.48-3.18l-1.73-2.78.42-.26c1.67-1,3.34-2.14,5-3.27l.41-.29,1.88,2.68c1.72-1.21,3.42-2.48,5.08-3.79l-2-2.56.39-.31c1.55-1.23,3.08-2.52,4.55-3.82l.38-.33,2.17,2.45c1.63-1.45,3.25-3,4.81-4.54l-2.32-2.3.35-.35c1.4-1.41,2.77-2.86,4.08-4.32l.33-.37,2.43,2.18c1.4-1.58,2.78-3.2,4.08-4.84l-2.57-2,.31-.39c1.23-1.56,2.43-3.16,3.56-4.75l.29-.41,2.67,1.9c1.22-1.73,2.39-3.5,3.51-5.28l-2.79-1.73.26-.42c1-1.64,2-3.37,3-5.13l.24-.44,2.88,1.59c1-1.85,2-3.74,2.88-5.65l-3-1.4.21-.45c.85-1.81,1.65-3.64,2.38-5.43l.19-.46,3.05,1.25c.79-1.95,1.53-3.94,2.21-5.93l-3.13-1.06.16-.47c.63-1.89,1.22-3.8,1.75-5.67l.13-.48,3.19.9c.56-2,1.07-4.1,1.52-6.14l-3.24-.7.1-.49c.41-1.9.77-3.87,1.09-5.84l.08-.49,3.28.53c.33-2.07.6-4.18.81-6.28l-3.3-.32,0-.5c.19-2,.34-4,.43-5.92l0-.5,3.31.15c.09-2.1.12-4.22.1-6.34l-3.32.05v-.5c0-2-.11-4-.24-5.94l0-.5L-844,641c-.15-2.11-.36-4.22-.62-6.31l-3.29.43-.06-.5c-.25-2-.56-3.94-.92-5.87l-.09-.49,3.26-.6c-.39-2.08-.84-4.16-1.34-6.2l-3.21.8-.12-.49c-.46-1.88-1-3.81-1.58-5.74l-.14-.48,3.16-1c-.62-2-1.31-4-2-6l-3.09,1.16-.18-.47c-.71-1.9-1.46-3.75-2.22-5.52l-.2-.46,3-1.31c-.85-1.93-1.76-3.86-2.72-5.74l-2.93,1.5-.23-.45c-.9-1.76-1.86-3.52-2.84-5.22l-.25-.43,2.84-1.65c-1.07-1.82-2.19-3.62-3.35-5.38l-2.73,1.82-.28-.42c-1.07-1.61-2.22-3.24-3.42-4.86l-.3-.4,2.62-2c-1.27-1.68-2.59-3.35-3.94-5l-2.5,2.12-.32-.38c-1.26-1.5-2.59-3-4-4.44l-.34-.36,2.38-2.24c-.74-.79-1.51-1.57-2.27-2.34s-1.46-1.44-2.2-2.15l-2.24,2.38-.36-.34c-1.44-1.35-2.93-2.69-4.43-4l-.38-.32,2.12-2.49c-1.62-1.36-3.28-2.69-5-4l-2,2.62-.4-.3c-1.6-1.19-3.23-2.35-4.85-3.43l-.42-.28,1.82-2.72c-1.76-1.17-3.56-2.29-5.37-3.36l-1.4,2.41-1.78,3.19a111.29,111.29,0,0,1,22.28,17.25,111.49,111.49,0,0,1,0,157.49,111.19,111.19,0,0,1-120.08,24.66l1.56,4c1.74.64,3.56,1.26,5.4,1.84l.48.15-1,3.16c2,.62,4.05,1.19,6.1,1.71l.79-3.21.49.12c1.92.47,3.87.9,5.8,1.27l.49.09-.62,3.25c2.07.39,4.17.72,6.25,1l.42-3.29.5.06c2,.25,4,.46,5.91.61l.5,0Z" transform="translate(2320.23 54)"/></g><path class="cls-3" d="M-765.5,696.79c-19.65,0-34.43-.16-34.92-.64l-.1-.23h0c-.73-1.49-21.87-22.24-35.91-35.82l.7-.72c15.49,15,33.76,32.89,36,36,3.56.84,87.13.22,119.22-.09v1C-701.32,696.47-738.13,696.79-765.5,696.79Z" transform="translate(2320.23 54)"/><g class="cls-1"><polygon class="cls-2" points="373.35 704.97 372.7 690.07 360.9 698.05 373.35 704.97"/><polygon class="cls-2" points="355.65 705.74 355 690.84 343.2 698.82 355.65 705.74"/><polygon class="cls-2" points="337.35 706.88 337.93 691.98 325.51 698.95 337.35 706.88"/><polygon class="cls-2" points="318.41 706.23 320.17 691.42 307.23 697.39 318.41 706.23"/></g><g class="cls-1"><polygon class="cls-2" points="962.21 865.11 972.57 868.18 969.89 858.21 962.21 865.11"/><polygon class="cls-2" points="965.86 852.8 976.22 855.87 973.54 845.9 965.86 852.8"/><polygon class="cls-2" points="969.41 839.99 979.48 843.91 977.64 833.75 969.41 839.99"/><polygon class="cls-2" points="974.33 827.16 984.06 831.87 983.02 821.59 974.33 827.16"/></g><g class="cls-1"><polygon class="cls-2" points="700.71 234.8 685.93 236.78 694.93 247.83 700.71 234.8"/><polygon class="cls-2" points="703.06 252.36 688.28 254.34 697.28 265.38 703.06 252.36"/><polygon class="cls-2" points="705.83 270.5 690.93 271.24 698.99 282.99 705.83 270.5"/><polygon class="cls-2" points="706.88 289.42 691.97 288.99 699.07 301.34 706.88 289.42"/></g><path class="cls-3" d="M-2040,966.65h-5.52v-2.76h5.52Zm-12.42,0h-5.52v-2.76h5.52Zm-12.42,0h-5.52v-2.76h5.52Zm-12.42,0h-5.52v-2.76h5.52Zm-12.42,0h-5.52v-2.76h5.52Zm-12.42,0h-5.52v-2.76h5.52Zm-12.42,0H-2120v-2.76h5.52Zm-12.42,0h-5.52v-2.76h5.52Zm-12.42,0h-5.52v-2.76h5.52Zm-12.42,0h-5.52v-2.76h5.52Zm-12.42,0h-5.52v-2.76h5.52Zm-12.42,0h-5.52v-2.76h5.52Zm-12.42,0H-2193l-1.53-2.65,2.39-1.38.73,1.27h2.46Zm156.54-1.67-2.39-1.38,2.76-4.78,2.39,1.38ZM-2198,958l-2.76-4.78,2.39-1.38,2.76,4.78Zm171.78-3.8-2.39-1.38,2.76-4.78,2.39,1.38Zm-178-7-2.76-4.78,2.39-1.38,2.76,4.78Zm184.2-3.8-2.39-1.38,2.76-4.78,2.39,1.38Zm-190.41-7-2.76-4.78,2.39-1.38,2.76,4.78Zm196.62-3.8-2.39-1.38,2.76-4.78,2.39,1.38Zm-202.82-7-2.76-4.78,2.39-1.38,2.76,4.78Zm209-3.8-2.39-1.38,2.76-4.78,2.39,1.38Zm-215.24-7-2.76-4.78,2.39-1.38,2.76,4.78Zm221.45-3.8-2.39-1.38,2.76-4.78,2.39,1.38Zm-227.66-7-2.76-4.78,2.39-1.38,2.76,4.78Zm233.87-3.8-2.39-1.38,2.76-4.78,2.39,1.38Zm-240.08-7-2.76-4.78,2.39-1.38,2.76,4.78Zm246.28-3.8-2.39-1.38,2.76-4.78,2.39,1.38Zm-252.49-7-2.76-4.78,2.39-1.38,2.76,4.78Zm258.7-3.8-2.39-1.38,2.76-4.78,2.39,1.38Zm-264.91-7-2.76-4.78,2.39-1.38,2.76,4.78Zm271.12-3.8-2.39-1.38,2.76-4.78,2.39,1.38Zm-277.33-7-2.76-4.78,2.39-1.38,2.76,4.78Zm283.54-3.8-2.39-1.38,2.76-4.78,2.39,1.38Zm-289.74-7-2.76-4.78,2.39-1.38,2.76,4.78Zm296-3.8-2.39-1.38,2.76-4.78,2.39,1.38Zm-302.16-7-2.76-4.78,2.39-1.38,2.76,4.78Zm308.37-3.8-2.39-1.38,2.76-4.78,2.39,1.38ZM-2270,829l-2.39-1.38,2.76-4.78,2.39,1.38Zm311.37-3.8-2.76-4.78L-1959,819l2.76,4.78Zm-305.16-7-2.39-1.38,2.76-4.78,2.39,1.38Zm299-3.8-2.76-4.78,2.39-1.38,2.76,4.78Zm-292.74-7-2.39-1.38,2.76-4.78,2.39,1.38Zm286.53-3.8-2.76-4.78,2.39-1.38,2.76,4.78Zm-280.33-7-2.39-1.38,2.76-4.78,2.39,1.38Zm274.12-3.8-2.76-4.78,2.39-1.38,2.76,4.78Zm-267.91-7-2.39-1.38,2.76-4.78,2.39,1.38Zm261.7-3.8-2.76-4.78,2.39-1.38,2.76,4.78Zm-255.49-7-2.39-1.38,2.76-4.78,2.39,1.38Zm249.28-3.8-2.76-4.78,2.39-1.38,2.76,4.78Zm-243.07-7-2.39-1.38,2.76-4.78,2.39,1.38Zm236.86-3.8-2.76-4.78,2.39-1.38,2.76,4.78Zm-230.66-7-2.39-1.38,2.76-4.78,2.39,1.38Zm224.45-3.8-2.76-4.78,2.39-1.38,2.76,4.78Zm-218.24-7-2.39-1.38,2.76-4.78,2.39,1.38Zm212-3.8-2.76-4.78,2.39-1.38,2.76,4.78Zm-205.82-7-2.39-1.38,2.76-4.78,2.39,1.38Zm199.61-3.8-2.76-4.78,2.39-1.38,2.76,4.78Zm-193.4-7-2.39-1.38,2.76-4.78,2.39,1.38Zm187.2-3.8-2.76-4.78,2.39-1.38,2.76,4.78Zm-181-7-2.39-1.38,2.76-4.78,2.39,1.38Zm174.78-3.8-2.76-4.78,2.39-1.38,2.76,4.78Zm-168.57-7-2.39-1.38,2.76-4.78,2.39,1.38Zm162.36-3.8-1.86-3.22h-4.72v-2.76h6.32l2.66,4.6Zm-13.48-3.22h-5.52v-2.76h5.52Zm-12.42,0h-5.52v-2.76h5.52Zm-12.42,0H-2077v-2.76h5.52Zm-12.42,0h-5.52v-2.76h5.52Zm-12.42,0h-5.52v-2.76h5.52Zm-12.42,0h-5.52v-2.76h5.52Zm-12.42,0h-5.52v-2.76h5.52Zm-12.42,0h-5.52v-2.76h5.52Zm-12.42,0h-5.52v-2.76h5.52Zm-12.42,0h-5.52v-2.76h5.52Zm-12.42,0h-5.52v-2.76h5.52Zm-12.42,0h-5.52v-2.76h5.52Z" transform="translate(2320.23 54)"/><path class="cls-3" d="M-1563.34,622.57h-5.52v-2.76h5.52Zm-12.42,0h-5.52v-2.76h5.52Zm-12.42,0h-5.52v-2.76h5.52Zm-12.42,0h-1l-3-5.28,2.39-1.38,2.65,4.59-1,.56Zm42.67-5.33-2.39-1.38,2.76-4.78,2.39,1.38Zm-50.18-5.92-2.76-4.78,2.39-1.38,2.76,4.78Zm56.39-4.83-2.39-1.38,2.76-4.78,2.39,1.38Zm-62.6-5.92-2.76-4.78,2.39-1.38,2.76,4.78Zm68.81-4.83-2.39-1.38,2.76-4.78,2.39,1.38Zm-75-5.92-1.39-2.41,2.16-3.75,2.39,1.38-1.37,2.37.6,1Zm75.24-4.84-2.76-4.78,2.39-1.38,2.76,4.78Zm-68.63-5.92-2.39-1.38,2.76-4.78,2.39,1.38Zm62.42-4.83-2.76-4.78,2.39-1.38,2.76,4.78Zm-56.21-5.92-2.39-1.38,2.76-4.78,2.39,1.38Zm50-4.83-2.76-4.78,2.39-1.38,2.76,4.78Zm-43.8-5.92-2.39-1.38,2.28-3.94h2.56V555h-1Zm39.7-2.56h-5.52v-2.76h5.52Zm-12.42,0h-5.52v-2.76h5.52Zm-12.42,0h-5.52v-2.76h5.52Z" transform="translate(2320.23 54)"/><path class="cls-3" d="M-1725.87,836.48h-5.52v-2.76h5.52Zm-12.42,0h-5.52v-2.76h5.52Zm-12.42,0h-5.52v-2.76h5.52Zm-12.42,0h-5.52v-2.76h5.52Zm-12.42,0h-5.52v-2.76h5.52Zm-12.42,0h-5.52v-2.76h5.52Zm-12.42,0h-5.52v-2.76h5.52Zm-12.42,0h-5.52v-2.76h5.52Zm-12.42,0h-5.52v-2.76h5.52Zm105.51-4-2.39-1.38,2.76-4.78,2.39,1.38Zm-117.12-.15-2.76-4.78,2.39-1.38,2.76,4.78Zm123.32-10.61-2.39-1.38,2.76-4.78,2.39,1.38Zm-129.53-.15-2.76-4.78,2.39-1.38,2.76,4.78ZM-1707.28,811l-2.39-1.38,2.76-4.78,2.39,1.38Zm-141.95-.15L-1852,806l2.39-1.38,2.76,4.78Zm148.16-10.6-2.39-1.38,2.76-4.78,2.39,1.38Zm-154.37-.15-2.76-4.78,2.39-1.38,2.76,4.78Zm160.58-10.61-2.39-1.38,2.76-4.78,2.39,1.38Zm-166.78-.15-2.76-4.78,2.39-1.38,2.76,4.78Zm173-10.61-2.39-1.38,2.76-4.78,2.39,1.38Zm-179.2-.15-2.76-4.78,2.39-1.38,2.76,4.78Zm185.41-10.6-2.39-1.38,2.76-4.78,2.39,1.38Zm-191.62-.15-2.76-4.78,2.39-1.38,2.76,4.78Zm197.83-10.61-2.39-1.38,2.76-4.78,2.39,1.38Zm-204-.15-2.76-4.78,2.39-1.38,2.76,4.78ZM-1670,746.43l-2.39-1.38,2.76-4.78,2.39,1.38Zm-216.45-.15-2.76-4.78,2.39-1.38,2.76,4.78ZM-1671,735.68l-2.76-4.78,2.39-1.38,2.76,4.78Zm-214.31-.15-2.39-1.38,2.76-4.78,2.39,1.38Zm208.1-10.6-2.76-4.78,2.39-1.38,2.76,4.78Zm-201.89-.15-2.39-1.38,2.76-4.78,2.39,1.38Zm195.68-10.61-2.76-4.78,2.39-1.38,2.76,4.78ZM-1872.9,714l-2.39-1.38,2.76-4.78,2.39,1.38Zm183.27-10.61-2.76-4.78,2.39-1.38,2.76,4.78Zm-177.06-.15-2.39-1.38,2.76-4.78,2.39,1.38Zm170.85-10.6-2.76-4.78,2.39-1.38,2.76,4.78Zm-164.64-.15-2.39-1.38,2.76-4.78,2.39,1.38Zm158.43-10.61-2.76-4.78,2.39-1.38,2.76,4.78Zm-152.22-.15-2.39-1.38,2.76-4.78,2.39,1.38Zm146-10.61-2.76-4.78,2.39-1.38,2.76,4.78Zm-139.81-.15-2.39-1.38,2.76-4.78,2.39,1.38Zm133.6-10.6-2.76-4.78,2.39-1.38,2.76,4.78Zm-127.39-.15-2.39-1.38,2.76-4.78,2.39,1.38Zm121.18-10.6-2.76-4.78.5-.29h-5.39v-2.76h5.52v2.69l1.76-1,2.76,4.78Zm-115-.15-2.39-1.38,2.76-4.78,2.39,1.38Zm100.42-4.92h-5.52v-2.76h5.52Zm-12.42,0h-5.52v-2.76h5.52Zm-12.42,0h-5.52v-2.76h5.52Zm-12.42,0H-1778v-2.76h5.52Zm-12.42,0h-5.52v-2.76h5.52Zm-12.42,0h-5.52v-2.76h5.52Zm-12.42,0h-5.52v-2.76h5.52Zm-12.42,0h-5.52v-2.76h5.52Z" transform="translate(2320.23 54)"/><path class="cls-3" d="M-1025.56,425.22h-4v-2h4Zm-9,0h-4v-2h4Zm-9,0h-4v-2h4Zm-9,0h-4v-2h4Zm-9,0h-4v-2h4Zm-9.52-1.1-2-3.46,1.73-1,2,3.46Zm50-1.77-1.73-1,2-3.46,1.73,1Zm-54.51-6-2-3.46,1.73-1,2,3.46Zm59-1.77-1.73-1,2-3.46,1.73,1Zm-63.51-6-2-3.46,1.73-1,2,3.46Zm68-1.77-1.73-1,2-3.46,1.73,1Zm-72.51-6-2-3.46,1.73-1,2,3.46Zm77-1.77-1.73-1,2-3.46,1.73,1Zm-81.51-6-2-3.46,1.73-1,2,3.46Zm86-1.77-1.73-1,2-3.46,1.73,1Zm-90.51-6-.72-1.25,1.85-3.21,1.73,1-1.28,2.21.15.25Zm92.11-1.77-2-3.46,1.73-1,2,3.46Zm-86.75-6-1.73-1,2-3.46,1.73,1Zm82.25-1.77-2-3.46,1.73-1,2,3.46Zm-77.75-6-1.73-1,2-3.46,1.73,1Zm73.25-1.77-2-3.46,1.73-1,2,3.46Zm-68.75-6-1.73-1,2-3.46,1.73,1ZM-1015,360l-2-3.46,1.73-1,2,3.46Zm-59.75-6-1.73-1,2-3.46,1.73,1Zm55.25-1.77-2-3.46,1.73-1,2,3.46Zm-50.75-6-1.73-1,1.51-2.61h2.14v2h-1Zm46.92-1.61h-4v-2h4.58l.48.84-1.06.61Zm-9,0h-4v-2h4Zm-9,0h-4v-2h4Zm-9,0h-4v-2h4Zm-9,0h-4v-2h4Z" transform="translate(2320.23 54)"/><polygon class="cls-3" points="1382.96 478.57 1339.55 435.16 1339.55 182.23 1340.55 182.23 1340.55 434.75 1383.67 477.86 1382.96 478.57"/></svg>