<svg id="Camada_1" data-name="Camada 1" xmlns="http://www.w3.org/2000/svg" viewBox="0 0 2179.11 2179.45"><defs><style>.cls-1{opacity:0.5;}.cls-2{fill:none;stroke:#ccc;stroke-miterlimit:10;stroke-width:2px;}</style></defs><title>marca_2</title><g class="cls-1"><path class="cls-2" d="M-748,569.77a504.87,504.87,0,0,0,26.46-160.63l98.4.15a603.36,603.36,0,0,1-31.67,192Z" transform="translate(2323.34 686.02)"/><path class="cls-2" d="M-814.32,504.57a421.85,421.85,0,0,0,10.7-80.25l64.61,2.4a486.54,486.54,0,0,1-12.35,92.56Z" transform="translate(2323.34 686.02)"/><path class="cls-2" d="M-840.23,581.11a415.42,415.42,0,0,0,25.91-76.55l63,14.71a480.08,480.08,0,0,1-29.93,88.41Z" transform="translate(2323.34 686.02)"/><path class="cls-2" d="M-873,640.49c5.11-7.58,9.8-15.43,14.41-23.31,2.2-4,4.51-7.94,6.59-12,1.05-2,2.16-4,3.18-6.07l3-6.13,58.08,28.4-3.52,7.08c-1.18,2.35-2.45,4.67-3.67,7-2.4,4.69-5.06,9.24-7.61,13.86-5.31,9.1-10.73,18.15-16.62,26.9Z" transform="translate(2323.34 686.02)"/><path class="cls-2" d="M-952.76,730.05c4-3.32,7.86-6.83,11.77-10.28s7.65-7.07,11.34-10.75c7.43-7.3,14.66-14.82,21.5-22.68l48.53,42.72c-7.9,9-16.21,17.73-24.78,26.14-4.25,4.24-8.68,8.3-13.07,12.39s-8.94,8-13.56,11.85Z" transform="translate(2323.34 686.02)"/><polygon class="cls-2" points="1328.16 1447.61 1333.95 1443.8 1339.66 1439.85 1342.51 1437.88 1345.31 1435.83 1350.92 1431.75 1389.64 1483.52 1383.18 1488.23 1379.95 1490.59 1376.66 1492.87 1370.08 1497.41 1363.39 1501.81 1328.16 1447.61"/><path class="cls-2" d="M-824.63,713.4A502.19,502.19,0,0,0-748,569.79l93.19,31.58a600.62,600.62,0,0,1-91.67,171.78Z" transform="translate(2323.34 686.02)"/><path class="cls-2" d="M-972.18,843.42a503.82,503.82,0,0,0,89.85-66.53L-815.39,849a602.23,602.23,0,0,1-107.38,79.51Z" transform="translate(2323.34 686.02)"/><path class="cls-2" d="M-1125.91,901.46q20-4,39.73-9.56t38.79-12.83c3.17-1.23,6.39-2.37,9.53-3.68l9.46-3.87,9.36-4.1c3.12-1.36,6.18-2.86,9.28-4.28q18.47-8.75,36.22-18.93l49.14,85.25A598.71,598.71,0,0,1-1106.76,998Z" transform="translate(2323.34 686.02)"/><path class="cls-2" d="M-1102.5,811.44a417.94,417.94,0,0,0,74.76-30.72l30.23,57.15a482.61,482.61,0,0,1-86.33,35.47Z" transform="translate(2323.34 686.02)"/><path class="cls-2" d="M-1181.82,827.21a420,420,0,0,0,79.32-15.77l18.67,61.9a484.63,484.63,0,0,1-91.56,18.2Z" transform="translate(2323.34 686.02)"/><path class="cls-2" d="M-1249.87,828.53a423.89,423.89,0,0,0,55-.24l4.43,64.5a488.44,488.44,0,0,1-63.24.27Z" transform="translate(2323.34 686.02)"/><path class="cls-2" d="M-1367.11,804.47a419.1,419.1,0,0,0,60,16.7l-12.64,63.4A483.76,483.76,0,0,1-1389,865.29Z" transform="translate(2323.34 686.02)"/><path class="cls-2" d="M-1415.51,783.49c4.15,2,8.24,4.18,12.45,6.07,2.1,1,4.17,2,6.28,2.92l6.35,2.77L-1416,854.64l-7.33-3.2c-2.43-1.09-4.83-2.25-7.25-3.36-4.86-2.2-9.58-4.67-14.37-7Z" transform="translate(2323.34 686.02)"/><path class="cls-2" d="M-1288.66,907a509.59,509.59,0,0,0,162.73-5.55L-1106.8,998c-16,3.23-32.12,5.66-48.29,7.53s-32.42,3.11-48.67,3.61-32.49.51-48.74-.3-32.47-2.18-48.64-4.21Z" transform="translate(2323.34 686.02)"/><path class="cls-2" d="M-1475,844.22a503.66,503.66,0,0,0,102.48,44.66l-29,94a602.06,602.06,0,0,1-122.64-53.45Z" transform="translate(2323.34 686.02)"/><path class="cls-2" d="M-1602.08,740c2.27,2.54,4.49,5.12,6.81,7.62l7,7.48,7.14,7.31c2.37,2.45,4.86,4.78,7.28,7.17q14.7,14.2,30.47,27.23c10.52,8.66,21.42,16.86,32.6,24.64s22.66,15.15,34.47,22l-49.41,85.09c-14.12-8.14-27.83-17-41.21-26.24s-26.39-19.1-39-29.45-24.7-21.22-36.41-32.53c-2.9-2.86-5.86-5.65-8.69-8.57l-8.52-8.74-8.32-8.93c-2.77-3-5.43-6.06-8.14-9.1Z" transform="translate(2323.34 686.02)"/><path class="cls-2" d="M-1512.39,715.23a423.13,423.13,0,0,0,64.08,49.56l-34.47,54.7a487.78,487.78,0,0,1-73.87-57.13Z" transform="translate(2323.34 686.02)"/><path class="cls-2" d="M-1565.88,654.36a423.79,423.79,0,0,0,53.49,60.87l-44.26,47.12a488.44,488.44,0,0,1-61.65-70.16Z" transform="translate(2323.34 686.02)"/><path class="cls-2" d="M-1601,596.31a424.27,424.27,0,0,0,27.61,47.31L-1627,679.8a489,489,0,0,1-31.86-54.58Z" transform="translate(2323.34 686.02)"/><path class="cls-2" d="M-1638.69,482.79c1.88,10.23,4.06,20.39,6.61,30.46s5.57,20,8.86,29.87l-61.25,20.68q-5.71-17.07-10.23-34.5t-7.63-35.17Z" transform="translate(2323.34 686.02)"/><polygon class="cls-2" points="678.66 1116.31 679.11 1123.24 679.32 1126.71 679.63 1130.16 680.24 1137.08 681.02 1143.97 616.81 1151.49 615.91 1143.54 615.2 1135.57 614.85 1131.59 614.6 1127.6 614.09 1119.61 678.66 1116.31"/><path class="cls-2" d="M-1688.37,601.94a499.46,499.46,0,0,0,37.52,72.53c7.23,11.55,14.88,22.84,23,33.76s16.74,21.51,25.72,31.76L-1676,804.92q-16.1-18.36-30.73-37.95c-9.74-13.05-18.89-26.54-27.53-40.35a597.86,597.86,0,0,1-44.88-86.77Z" transform="translate(2323.34 686.02)"/><path class="cls-2" d="M-1727,409.14a508.65,508.65,0,0,0,12.5,111.1L-1810.45,542a607.09,607.09,0,0,1-15-132.76Z" transform="translate(2323.34 686.02)"/><path class="cls-2" d="M-1700.54,246.93A504.87,504.87,0,0,0-1727,407.56l-98.4-.15a603.37,603.37,0,0,1,31.67-192Z" transform="translate(2323.34 686.02)"/><path class="cls-2" d="M-1634.2,312.13a421.88,421.88,0,0,0-10.7,80.25l-64.61-2.4a486.54,486.54,0,0,1,12.35-92.55Z" transform="translate(2323.34 686.02)"/><path class="cls-2" d="M-1608.29,235.58a415.42,415.42,0,0,0-25.91,76.55l-63-14.71A480.08,480.08,0,0,1-1667.23,209Z" transform="translate(2323.34 686.02)"/><path class="cls-2" d="M-1575.47,176.2c-5.11,7.58-9.8,15.43-14.41,23.31-2.2,4-4.51,7.94-6.59,12-1.05,2-2.16,4-3.18,6.07l-3,6.13-58.08-28.4,3.52-7.08c1.18-2.35,2.45-4.67,3.67-7,2.4-4.69,5.06-9.24,7.61-13.86,5.31-9.1,10.73-18.15,16.62-26.9Z" transform="translate(2323.34 686.02)"/><path class="cls-2" d="M-1495.75,86.64c-4,3.32-7.86,6.83-11.77,10.28s-7.65,7.07-11.34,10.75c-7.43,7.3-14.66,14.82-21.5,22.68l-48.53-42.72c7.89-9,16.21-17.73,24.78-26.14,4.25-4.24,8.68-8.3,13.07-12.39s8.94-8,13.56-11.85Z" transform="translate(2323.34 686.02)"/><polygon class="cls-2" points="870 741.13 864.21 744.94 858.5 748.89 855.65 750.86 852.84 752.9 847.24 756.99 808.51 705.22 814.98 700.5 818.21 698.15 821.5 695.87 828.08 691.33 834.76 686.93 870 741.13"/><path class="cls-2" d="M-1623.89,103.3a502.19,502.19,0,0,0-76.65,143.6l-93.19-31.58a600.61,600.61,0,0,1,91.67-171.78Z" transform="translate(2323.34 686.02)"/><path class="cls-2" d="M-1476.34-26.72a503.82,503.82,0,0,0-89.85,66.53l-66.94-72.12a602.22,602.22,0,0,1,107.38-79.51Z" transform="translate(2323.34 686.02)"/><path class="cls-2" d="M-1322.61-84.77q-20,4-39.73,9.56t-38.79,12.83c-3.17,1.23-6.39,2.37-9.53,3.68l-9.46,3.87-9.36,4.1c-3.12,1.36-6.18,2.86-9.28,4.28q-18.47,8.75-36.22,18.93l-49.14-85.25a598.7,598.7,0,0,1,182.37-68.51Z" transform="translate(2323.34 686.02)"/><path class="cls-2" d="M-1346,5.25A418,418,0,0,0-1420.78,36L-1451-21.17a482.61,482.61,0,0,1,86.33-35.47Z" transform="translate(2323.34 686.02)"/><path class="cls-2" d="M-1266.7-10.52A419.94,419.94,0,0,0-1346,5.25l-18.67-61.9a484.62,484.62,0,0,1,91.56-18.2Z" transform="translate(2323.34 686.02)"/><path class="cls-2" d="M-1198.65-11.83a423.89,423.89,0,0,0-55,.24L-1258-76.1a488.47,488.47,0,0,1,63.24-.27Z" transform="translate(2323.34 686.02)"/><path class="cls-2" d="M-1081.41,12.22a419.09,419.09,0,0,0-60-16.7l12.64-63.4a483.76,483.76,0,0,1,69.29,19.28Z" transform="translate(2323.34 686.02)"/><path class="cls-2" d="M-1033,33.2c-4.15-2-8.24-4.18-12.45-6.07-2.1-1-4.17-2-6.28-2.92l-6.35-2.77L-1032.54-38l7.33,3.2c2.43,1.09,4.83,2.25,7.25,3.36,4.86,2.2,9.58,4.67,14.37,7Z" transform="translate(2323.34 686.02)"/><path class="cls-2" d="M-1159.85-90.32a509.6,509.6,0,0,0-162.73,5.55l-19.14-96.52c16-3.23,32.11-5.66,48.29-7.53s32.42-3.11,48.67-3.6,32.49-.51,48.74.3,32.47,2.18,48.64,4.21Z" transform="translate(2323.34 686.02)"/><path class="cls-2" d="M-973.54-27.53A503.65,503.65,0,0,0-1076-72.19l29-94A602.07,602.07,0,0,1-924.4-112.77Z" transform="translate(2323.34 686.02)"/><path class="cls-2" d="M-846.44,76.69c-2.27-2.54-4.49-5.12-6.81-7.62l-7-7.48-7.14-7.31c-2.37-2.45-4.86-4.78-7.28-7.17q-14.7-14.2-30.47-27.23C-915.63,11.21-926.53,3-937.71-4.77s-22.66-15.15-34.47-22l49.41-85.09c14.12,8.14,27.83,17,41.21,26.24s26.39,19.1,39,29.45,24.7,21.22,36.41,32.53c2.9,2.86,5.86,5.65,8.69,8.57L-789-6.28l8.32,8.93c2.77,3,5.43,6.06,8.14,9.1Z" transform="translate(2323.34 686.02)"/><path class="cls-2" d="M-936.12,101.46A423.13,423.13,0,0,0-1000.2,51.9l34.47-54.7a487.79,487.79,0,0,1,73.87,57.13Z" transform="translate(2323.34 686.02)"/><path class="cls-2" d="M-882.63,162.33a423.78,423.78,0,0,0-53.49-60.87l44.26-47.12a488.44,488.44,0,0,1,61.65,70.16Z" transform="translate(2323.34 686.02)"/><path class="cls-2" d="M-847.48,220.38a424.28,424.28,0,0,0-27.61-47.31l53.58-36.19a489,489,0,0,1,31.86,54.58Z" transform="translate(2323.34 686.02)"/><path class="cls-2" d="M-809.83,333.9c-1.88-10.23-4.06-20.39-6.61-30.46s-5.57-20-8.86-29.87L-764,252.88q5.71,17.07,10.23,34.5t7.63,35.17Z" transform="translate(2323.34 686.02)"/><polygon class="cls-2" points="1519.5 1072.43 1519.05 1065.5 1518.84 1062.03 1518.53 1058.57 1517.92 1051.66 1517.14 1044.77 1581.35 1037.24 1582.25 1045.19 1582.95 1053.16 1583.31 1057.15 1583.56 1061.14 1584.07 1069.13 1519.5 1072.43"/><path class="cls-2" d="M-760.14,214.76a499.46,499.46,0,0,0-37.52-72.53c-7.23-11.54-14.88-22.84-23-33.76S-837.43,87-846.42,76.71l73.93-64.94q16.1,18.36,30.73,37.95c9.74,13.05,18.89,26.54,27.53,40.35a597.86,597.86,0,0,1,44.88,86.77Z" transform="translate(2323.34 686.02)"/><path class="cls-2" d="M-721.51,407.56A508.65,508.65,0,0,0-734,296.45l95.95-21.81a607.09,607.09,0,0,1,15,132.76Z" transform="translate(2323.34 686.02)"/></g><path class="cls-2" d="M-1780,88.7c-14.15,23.65-25.78,48.66-36.64,73.9-4.95,12.83-10.36,25.48-14.41,38.63-2.08,6.55-4.71,12.92-6.41,19.59l-5.63,19.83c-14.36,53.09-21,108.17-21.5,163.54.53,55.38,7.14,110.45,21.5,163.54l5.63,19.83c1.7,6.67,4.34,13,6.41,19.59,4.05,13.15,9.46,25.8,14.41,38.63,10.86,25.24,22.49,50.25,36.64,73.9,27.2,47.94,61.77,91.55,100.34,131,39.42,38.58,83,73.15,131,100.34,23.65,14.15,48.66,25.78,73.9,36.64,12.83,4.95,25.48,10.36,38.63,14.41,6.55,2.08,12.92,4.71,19.59,6.41l19.83,5.63c53.09,14.36,108.17,21,163.54,21.5V935.28c-46.8-.54-93.07-6-137.64-18.09l-16.65-4.72c-5.61-1.38-10.93-3.68-16.44-5.4-11.06-3.34-21.65-8-32.44-12.08-21.18-9.17-42.23-18.85-62.09-30.81-40.35-22.81-77-52-110.27-84.45-32.43-33.26-61.64-69.92-84.45-110.27-12-19.86-21.63-40.92-30.81-62.09-4.1-10.79-8.74-21.38-12.08-32.44-1.72-5.5-4-10.83-5.4-16.44l-4.72-16.65c-12.08-44.57-17.56-90.84-18.09-137.64.54-46.8,6-93.07,18.09-137.64l4.72-16.65c1.38-5.61,3.68-10.93,5.4-16.44,3.34-11.06,8-21.65,12.08-32.44,9.17-21.18,18.85-42.23,30.81-62.09Z" transform="translate(2323.34 686.02)"/><path class="cls-2" d="M-1733.1,943.39c5.28,5.29,11.07,10,16.69,14.92s11.22,9.86,17,14.6l17.61,13.82,8.8,6.93,9.13,6.47,18.23,13c6.19,4.16,12.55,8.07,18.81,12.13,12.37,8.36,25.56,15.38,38.43,22.93,52.15,29,108,51,165.56,66.65l-15.82,59.42c-62.37-16.94-123-40.81-179.49-72.26-14-8.15-28.22-15.81-41.65-24.84-6.78-4.4-13.66-8.65-20.37-13.16l-19.76-14.06-9.88-7-9.54-7.49-19.07-15c-6.24-5.14-12.25-10.55-18.39-15.81s-12.34-10.46-18.07-16.17Z" transform="translate(2323.34 686.02)"/><path class="cls-2" d="M-1590.48,1257.85l-23.41,55.87c-36.94-15.93-73.36-33.24-108.1-53.52l30.08-52.58C-1659.32,1226.67-1625.14,1242.87-1590.48,1257.85Z" transform="translate(2323.34 686.02)"/><path class="cls-2" d="M-2148.83,536.76c1.19,11.05,3.64,21.93,5.44,32.89,2,10.94,3.78,21.91,6.47,32.71l7.53,32.5,9.07,32.11-58.08,17.18-9.65-34.23-8-34.64c-2.84-11.52-4.79-23.2-6.9-34.86-1.93-11.68-4.5-23.28-5.79-35.05Z" transform="translate(2323.34 686.02)"/><path class="cls-2" d="M-2135.44,199.54A938,938,0,0,0-2157,353.82l-60.49-3.25a998.65,998.65,0,0,1,23-164.38Z" transform="translate(2323.34 686.02)"/><path class="cls-2" d="M-1456.73,1302.1a951.25,951.25,0,0,0,223.57,27.37V1390a1011.86,1011.86,0,0,1-238.17-29.15Z" transform="translate(2323.34 686.02)"/><path class="cls-2" d="M-1291.4,1420.54c6.22.56,12.44.59,18.66.8l-2.73,71.06c-6.65-.23-13.3-.27-19.95-.86Z" transform="translate(2323.34 686.02)"/><path class="cls-2" d="M-1344.32,1416.15c6.19.87,12.4,1.32,18.62,1.8l-6.4,70.82c-6.65-.52-13.29-1-19.92-1.93Z" transform="translate(2323.34 686.02)"/><path class="cls-2" d="M-1397,1409q9.22,1.74,18.52,2.82l-10.08,70.39q-9.95-1.19-19.81-3Z" transform="translate(2323.34 686.02)"/><path class="cls-2" d="M-1449.3,1399.08c6.09,1.4,12.18,2.83,18.35,3.85l-13.76,69.77c-6.6-1.11-13.11-2.62-19.64-4.11Z" transform="translate(2323.34 686.02)"/><path class="cls-2" d="M-1501,1386.42c6,1.62,12,3.56,18.11,4.87l-17.4,69c-6.54-1.42-12.92-3.47-19.39-5.21Z" transform="translate(2323.34 686.02)"/><polygon class="cls-2" points="672.12 2018.47 689.22 2026.16 661.19 2091.52 642.89 2083.3 672.12 2018.47"/><polygon class="cls-2" points="624.2 1995.34 640.89 2003.86 609.47 2067.65 591.6 2058.54 624.2 1995.34"/><polygon class="cls-2" points="408.8 1846.59 422.92 1858.88 376.28 1912.56 361.19 1899.42 408.8 1846.59"/><polygon class="cls-2" points="370.24 1810.08 383.74 1823.03 334.38 1874.22 319.95 1860.36 370.24 1810.08"/><path class="cls-2" d="M-1989.61,1085.48c4,4.76,8.49,9.13,12.73,13.7l-52,48.56c-4.53-4.89-9.29-9.58-13.61-14.66Z" transform="translate(2323.34 686.02)"/><path class="cls-2" d="M-2024.08,1045.07c3.8,4.95,7.81,9.72,11.93,14.41l-54.4,45.8c-4.39-5-8.68-10.13-12.76-15.41Z" transform="translate(2323.34 686.02)"/><path class="cls-2" d="M-2056.43,1002.93c3.66,5.05,7.16,10.22,11.09,15.08l-56.71,42.91c-4.19-5.2-7.95-10.72-11.86-16.12Z" transform="translate(2323.34 686.02)"/><path class="cls-2" d="M-2086.56,959.15c3.4,5.24,6.71,10.53,10.21,15.7l-58.86,39.9c-3.74-5.53-7.3-11.18-10.93-16.79Z" transform="translate(2323.34 686.02)"/><polygon class="cls-2" points="208.94 1599.86 218.32 1616.08 157.46 1652.86 147.41 1635.51 208.94 1599.86"/><polygon class="cls-2" points="137.22 1448.74 144.08 1466.2 78 1492.47 70.67 1473.79 137.22 1448.74"/><polygon class="cls-2" points="119.74 1398.43 125.72 1416.21 58.34 1438.98 51.96 1419.94 119.74 1398.43"/><polygon class="cls-2" points="104.92 1347.27 110 1365.33 41.52 1384.52 36.1 1365.19 104.92 1347.27"/><polygon class="cls-2" points="92.82 1295.41 96.98 1313.7 27.59 1329.26 23.15 1309.69 92.82 1295.41"/><path class="cls-2" d="M-2239.79,557c.9,6.18,2.1,12.32,3.15,18.48l-70.11,11.9c-1.12-6.59-2.39-13.16-3.35-19.77Z" transform="translate(2323.34 686.02)"/><path class="cls-2" d="M-2246.31,504.22c.44,6.22,1.43,12.4,2.13,18.6l-70.64,8.22c-.76-6.63-1.79-13.25-2.27-19.89Z" transform="translate(2323.34 686.02)"/><path class="cls-2" d="M-2250.08,451.27c.06,6.22.74,12.44,1.13,18.65l-71,4.54c-.42-6.65-1.12-13.3-1.2-19.95Z" transform="translate(2323.34 686.02)"/><path class="cls-2" d="M-2251.13,398.28c-.25,6.22,0,12.44.15,18.66l-71.11.88c-.11-6.65-.4-13.3-.15-20Z" transform="translate(2323.34 686.02)"/><path class="cls-2" d="M-2249.45,345.29c-.56,6.22-.64,12.44-.83,18.66l-71.06-2.78c.2-6.65.31-13.3.89-19.95Z" transform="translate(2323.34 686.02)"/><path class="cls-2" d="M-2245,292.37c-.86,6.19-1.38,12.4-1.83,18.62l-70.82-6.45c.49-6.65,1.05-13.29,2-19.91Z" transform="translate(2323.34 686.02)"/><path class="cls-2" d="M-2215.2,135.69c-1.63,6-3.53,12-4.9,18.1L-2289,136.34c1.47-6.53,3.49-12.92,5.23-19.38Z" transform="translate(2323.34 686.02)"/><polygon class="cls-2" points="123.52 770.72 117.61 788.53 49.68 767.47 56 748.42 123.52 770.72"/><polygon class="cls-2" points="141.56 720.62 134.73 738.09 68.01 713.49 75.31 694.79 141.56 720.62"/><polygon class="cls-2" points="162.2 671.55 154.51 688.65 89.17 660.58 97.39 642.27 162.2 671.55"/><path class="cls-2" d="M-1968.54,407l-61.49.23a860.2,860.2,0,0,1,9.91-128.92c6.62-42.65,17.28-84.59,30.73-125.55l58.35,19.39c-12.39,37.78-22.26,76.45-28.35,115.8A799,799,0,0,0-1968.54,407Z" transform="translate(2323.34 686.02)"/><path class="cls-2" d="M-1839.33,54.35c-15.65,26.24-28.61,54-40.63,82-5.53,14.22-11.47,28.28-16,42.86-2.32,7.26-5.19,14.35-7.11,21.74l-6.25,22c-15.92,58.92-23.3,120-23.82,181.25.53,61.24,7.9,122.33,23.82,181.25l6.25,22c1.92,7.39,4.79,14.48,7.11,21.74,4.54,14.58,10.48,28.64,16,42.86,12,28,25,55.74,40.63,82,30.2,53.13,68.43,101.5,111.21,145.12,43.62,42.78,92,81,145.12,111.21,26.24,15.65,54,28.61,82,40.63,14.22,5.53,28.28,11.47,42.86,16,7.26,2.32,14.35,5.19,21.74,7.11l22,6.25c58.92,15.92,120,23.3,181.25,23.82v-36.71c-58.1-.53-116-7.49-171.77-22.58l-20.84-5.91c-7-1.8-13.71-4.55-20.59-6.74-13.81-4.28-27.12-9.93-40.59-15.15-26.54-11.4-52.8-23.65-77.66-38.49C-1615,950-1660.79,913.73-1702.16,873.2c-40.53-41.37-76.8-87.19-105.39-137.55-14.85-24.86-27.1-51.12-38.49-77.66-5.22-13.47-10.87-26.78-15.15-40.59-2.19-6.88-4.93-13.59-6.74-20.59l-5.91-20.85c-15.08-55.8-22-113.67-22.58-171.77.53-58.1,7.49-116,22.58-171.77l5.91-20.85c1.8-7,4.55-13.71,6.74-20.59,4.28-13.81,9.93-27.12,15.15-40.59,11.4-26.54,23.65-52.8,38.49-77.66Z" transform="translate(2323.34 686.02)"/><path class="cls-2" d="M-1872.17,35.36C-1888.65,63-1902.35,92.24-1915,121.8c-5.85,15-12.08,29.83-16.89,45.2-2.45,7.66-5.45,15.15-7.49,22.93l-6.59,23.21c-16.78,62.14-24.58,126.56-25.11,191,.52,64.49,8.33,128.91,25.11,191l6.59,23.21c2,7.79,5,15.28,7.49,22.93,4.81,15.37,11,30.21,16.89,45.2,12.65,29.56,26.35,58.77,42.84,86.45,31.86,56,72.11,107,117.22,152.95C-1709,971.1-1658,1011.35-1602,1043.21c27.68,16.48,56.88,30.18,86.45,42.84,15,5.85,29.83,12.08,45.2,16.88,7.66,2.45,15.15,5.45,22.93,7.49l23.21,6.59c62.14,16.78,126.56,24.59,191,25.11v-9.45c-63.68-.53-127.27-8.22-188.61-24.79l-22.91-6.5c-7.69-2-15.08-5-22.64-7.39-15.17-4.74-29.82-10.9-44.62-16.67-29.18-12.49-58-26-85.33-42.29-55.28-31.44-105.63-71.2-151-115.73-44.53-45.37-84.28-95.71-115.73-151-16.27-27.32-29.79-56.15-42.29-85.33-5.77-14.8-11.93-29.45-16.67-44.62-2.42-7.56-5.38-15-7.39-22.64l-6.5-22.91c-16.57-61.34-24.26-124.93-24.79-188.61.52-63.68,8.22-127.27,24.79-188.61l6.5-22.91c2-7.69,5-15.08,7.39-22.64,4.74-15.17,10.9-29.82,16.67-44.62,12.49-29.18,26-58,42.29-85.33Z" transform="translate(2323.34 686.02)"/><path class="cls-2" d="M-1331.1,1284.71q-13.93-30.52-25.66-60.81-23-3.78-45.88-8.18l-22.71-5.24c-7.56-1.78-15.18-3.35-22.61-5.63q-22.86,23.19-47.86,45.75c-94.34-29.7-183.9-74.65-263.35-133.47,2-22,5.1-44.21,8.51-65.61l-9.16-7.2-8.83-7.59-17.61-15.26c-11.58-10.34-22.63-21.28-33.86-32q-31.32,8.53-64.15,15.45c-26-28.7-51-58.51-73-90.43-11.55-15.59-21.56-32.23-32.11-48.49-5.06-8.27-9.75-16.76-14.63-25.15l-7.24-12.62c-2.37-4.23-4.48-8.6-6.73-12.9,11.69-19.08,23.43-37.36,36.07-55.25-13-28.19-25.25-56.82-35.09-86.3-21.28-4-43.47-8.53-64.62-14.15-5.14-18-10.5-36-14.36-54.35-2-9.15-4.43-18.22-6.07-27.45l-5-27.67c-1.81-9.2-3-18.5-4.11-27.79l-3.51-27.88-2.15-28c-.74-9.33-1.48-18.66-1.56-28q28.08-18.25,56.25-34.32a831.26,831.26,0,0,1,18.69-175q-24.3-21.68-48.07-45.52c20.44-77.71,50.52-153,91.1-222.42l82.21,47.56c-17.64,29.68-32.38,61-45.92,92.7-6.29,16.07-12.94,32-18.12,48.48-2.64,8.21-5.81,16.26-8,24.6l-7.07,24.9c-18,66.65-26.39,135.74-26.91,204.77.52,69,8.92,138.11,26.91,204.77l7.07,24.9c2.21,8.34,5.38,16.39,8,24.6,5.18,16.47,11.83,32.41,18.12,48.48,13.55,31.72,28.28,63,45.92,92.7,34.18,60,77.27,114.7,125.64,163.91,49.21,48.37,103.89,91.46,163.91,125.64,29.68,17.64,61,32.38,92.7,45.93,16.07,6.29,32,12.94,48.48,18.12,8.21,2.64,16.26,5.81,24.6,8l24.9,7.07c66.66,18,135.74,26.39,204.77,26.91v95c-16.34-.45-32.7-.63-49-1.41C-1298.49,1287.44-1314.85,1286.69-1331.1,1284.71Z" transform="translate(2323.34 686.02)"/><path class="cls-2" d="M-686.34,88.7c-27.2-47.94-61.77-91.55-100.34-131-39.42-38.58-83-73.15-131-100.34-23.65-14.15-48.66-25.78-73.91-36.64-12.82-4.95-25.48-10.36-38.63-14.41-6.55-2.08-12.92-4.71-19.59-6.41l-19.83-5.63c-53.09-14.36-108.17-21-163.54-21.5-55.38.53-110.45,7.14-163.54,21.5l-19.83,5.63c-6.67,1.7-13,4.34-19.59,6.41-13.15,4.05-25.8,9.46-38.63,14.41-25.24,10.86-50.25,22.49-73.9,36.64-47.94,27.2-91.55,61.77-131,100.34-38.58,39.42-73.15,83-100.34,131l86.83,50.23c22.81-40.35,52-77,84.45-110.27,33.26-32.42,69.92-61.64,110.27-84.45,19.86-12,40.92-21.63,62.09-30.81,10.79-4.1,21.38-8.74,32.44-12.08,5.5-1.72,10.83-4,16.44-5.4l16.65-4.72c44.57-12.08,90.84-17.56,137.64-18.09,46.8.54,93.07,6,137.64,18.09l16.65,4.72c5.61,1.38,10.93,3.68,16.44,5.4,11.06,3.34,21.65,8,32.44,12.08,21.18,9.18,42.23,18.85,62.09,30.81,40.35,22.81,77,52,110.27,84.45C-825.2,61.92-796,98.58-773.17,138.93Z" transform="translate(2323.34 686.02)"/><path class="cls-2" d="M-1450.24-298.68a757.09,757.09,0,0,0-162.87,73.07A766.11,766.11,0,0,0-1753.7-115.33l-43.52-43.44a827.51,827.51,0,0,1,152.3-119.46,818.56,818.56,0,0,1,176.57-79.21Z" transform="translate(2323.34 686.02)"/><path class="cls-2" d="M-1793.71-331.81-1830.44-380c7.8-6.33,16.14-12,24.28-17.84s16.31-11.75,24.68-17.3l25.37-16.3c4.25-2.69,8.45-5.45,12.74-8.05l13.05-7.55,30.59,52.28-12.26,7.08c-4,2.45-8,5-12,7.57l-23.82,15.29c-7.86,5.21-15.44,10.83-23.16,16.25S-1786.39-337.77-1793.71-331.81Z" transform="translate(2323.34 686.02)"/><path class="cls-2" d="M-890.21-455.15c-41.19-16.82-83.85-29.93-127.08-40.35l14.09-58.91c46.07,11.1,91.54,25.1,135.45,43Z" transform="translate(2323.34 686.02)"/><path class="cls-2" d="M-604.74-274.74a944.69,944.69,0,0,0-122.75-95.8l33.15-50.7A1005.21,1005.21,0,0,1-563.59-319.19Z" transform="translate(2323.34 686.02)"/><path class="cls-2" d="M-1898.72-238.26l-19.44,20.45-18.5,21.31c-12.59,14-23.71,29.21-35.45,43.9-22.36,30.25-43.65,61.37-62.23,94.13l-52.43-30.33c19.81-34.9,42.46-68.08,66.3-100.28,12.48-15.68,24.36-31.85,37.75-46.77l19.71-22.69,20.7-21.79Z" transform="translate(2323.34 686.02)"/><polygon class="cls-2" points="239.32 531.32 229.2 547.08 169.08 509.09 179.91 492.23 239.32 531.32"/><polygon class="cls-2" points="269.64 487.67 258.77 502.91 200.71 461.84 212.34 445.54 269.64 487.67"/><polygon class="cls-2" points="302.17 445.66 290.57 460.35 234.73 416.31 247.14 400.61 302.17 445.66"/><polygon class="cls-2" points="336.82 405.4 324.52 419.5 271.05 372.63 284.21 357.56 336.82 405.4"/><path class="cls-2" d="M-1949.72-318.92c-4.58,4.24-8.72,8.91-13.09,13.36l-51-49.59c4.67-4.76,9.12-9.74,14-14.29Z" transform="translate(2323.34 686.02)"/><polygon class="cls-2" points="495.18 264.28 479.98 275.22 437.33 218.32 453.57 206.61 495.18 264.28"/><polygon class="cls-2" points="539.08 234.34 523.34 244.48 483.71 185.44 500.54 174.57 539.08 234.34"/><polygon class="cls-2" points="775.78 121.85 758 127.85 734.8 60.63 753.83 54.21 775.78 121.85"/><polygon class="cls-2" points="826.84 106.72 808.79 111.82 789.16 43.47 808.48 38.02 826.84 106.72"/><polygon class="cls-2" points="878.62 94.3 860.34 98.48 844.33 29.19 863.9 24.72 878.62 94.3"/><polygon class="cls-2" points="930.96 84.61 912.5 87.87 900.15 17.84 919.9 14.37 930.96 84.61"/><polygon class="cls-2" points="983.68 77.69 965.09 80 956.42 9.42 976.31 6.96 983.68 77.69"/><polygon class="cls-2" points="1036.62 73.54 1017.97 74.9 1012.98 3.96 1032.92 2.52 1036.62 73.54"/><polygon class="cls-2" points="1089.61 72.14 1070.94 72.55 1069.62 1.45 1089.57 1.02 1089.61 72.14"/><path class="cls-2" d="M-1067.39-600.26c-6.15-1.1-12.3-2.19-18.51-2.91l10.22-70.38c6.63.77,13.22,1.93,19.8,3.11Z" transform="translate(2323.34 686.02)"/><path class="cls-2" d="M-1015.12-590.25c-6.11-1.33-12.16-2.92-18.33-3.93l13.89-69.74c6.6,1.09,13.09,2.77,19.62,4.2Z" transform="translate(2323.34 686.02)"/><path class="cls-2" d="M-963.42-577.5c-6-1.65-12-3.49-18.09-5L-964-651.37c6.5,1.57,12.91,3.52,19.37,5.29Z" transform="translate(2323.34 686.02)"/><polygon class="cls-2" points="1410.88 123.97 1393.09 118.01 1414.23 50.11 1433.27 56.47 1410.88 123.97"/><polygon class="cls-2" points="1460.96 142.07 1443.49 135.23 1468.17 68.54 1486.87 75.84 1460.96 142.07"/><polygon class="cls-2" points="1510.01 162.76 1492.91 155.07 1521.06 89.76 1539.37 97.99 1510.01 162.76"/><polygon class="cls-2" points="1557.89 185.98 1541.2 177.46 1572.74 113.72 1590.6 122.84 1557.89 185.98"/><polygon class="cls-2" points="1604.47 211.66 1588.23 202.32 1623.07 140.33 1640.45 150.32 1604.47 211.66"/><polygon class="cls-2" points="1649.64 239.72 1633.88 229.6 1671.91 169.5 1688.77 180.33 1649.64 239.72"/><polygon class="cls-2" points="1693.27 270.06 1678.03 259.19 1719.14 201.16 1735.44 212.8 1693.27 270.06"/><path class="cls-2" d="M-509.58-311.89c-4.24-4.58-8.88-8.75-13.34-13.1l49.62-50.94c4.77,4.66,9.72,9.14,14.27,14Z" transform="translate(2323.34 686.02)"/><path class="cls-2" d="M-473.26-273.14q-6.07-7.12-12.57-13.85l52.2-48.3q7,7.18,13.45,14.81Z" transform="translate(2323.34 686.02)"/><path class="cls-2" d="M-439-232.57c-3.92-4.85-7.61-9.9-11.76-14.55l54.64-45.52c4.43,5,8.39,10.37,12.58,15.56Z" transform="translate(2323.34 686.02)"/><polygon class="cls-2" points="1916.5 495.75 1905.59 480.55 1962.52 437.93 1974.2 454.19 1916.5 495.75"/><path class="cls-2" d="M-868-234.08l30.59-53.34c75.05,42.62,142.57,98.17,200,162.53l-46,40.85C-736.37-143.46-798.7-194.78-868-234.08Z" transform="translate(2323.34 686.02)"/><path class="cls-2" d="M-627,54.35c-30.2-53.13-68.43-101.5-111.21-145.12-43.62-42.78-92-81-145.12-111.21-26.24-15.65-54-28.61-82-40.63-14.22-5.53-28.28-11.47-42.86-16-7.26-2.32-14.35-5.19-21.74-7.11l-22-6.25c-58.92-15.92-120-23.3-181.25-23.82-61.24.53-122.33,7.9-181.25,23.82l-22,6.25c-7.39,1.92-14.48,4.79-21.74,7.11-14.58,4.54-28.64,10.48-42.86,16-28,12-55.74,25-82,40.63-53.13,30.2-101.5,68.43-145.12,111.21-42.78,43.62-81,92-111.21,145.12l31.78,18.38c28.59-50.35,64.86-96.18,105.39-137.55,41.37-40.53,87.19-76.8,137.55-105.39,24.86-14.85,51.12-27.1,77.66-38.49,13.47-5.22,26.78-10.87,40.59-15.15,6.88-2.19,13.59-4.93,20.59-6.74l20.84-5.91c55.8-15.08,113.67-22,171.77-22.58,58.1.53,116,7.49,171.77,22.58l20.85,5.91c7,1.8,13.71,4.55,20.59,6.74,13.81,4.28,27.12,9.93,40.59,15.15,26.54,11.4,52.8,23.65,77.66,38.49,50.35,28.59,96.17,64.86,137.55,105.39,40.53,41.37,76.8,87.19,105.4,137.55Z" transform="translate(2323.34 686.02)"/><path class="cls-2" d="M-594.14,35.36c-31.86-56-72.11-107-117.22-152.95C-757.32-162.7-808.32-203-864.32-234.82-892-251.3-921.2-265-950.76-277.65c-15-5.85-29.83-12.08-45.2-16.89-7.66-2.45-15.15-5.45-22.93-7.49l-23.21-6.59c-62.14-16.78-126.56-24.59-191-25.11-64.49.52-128.91,8.33-191,25.11l-23.21,6.59c-7.79,2-15.28,5-22.93,7.49-15.37,4.81-30.21,11-45.2,16.89-29.56,12.65-58.77,26.35-86.45,42.84-56,31.86-107,72.11-152.95,117.22-45.11,45.95-85.37,96.95-117.22,152.95l8.18,4.73c31.44-55.28,71.19-105.63,115.73-151,45.37-44.53,95.71-84.28,151-115.73,27.32-16.27,56.15-29.79,85.33-42.29,14.8-5.77,29.45-11.93,44.62-16.67,7.56-2.42,14.95-5.38,22.64-7.39l22.91-6.5c61.34-16.57,124.93-24.26,188.61-24.79,63.68.53,127.27,8.22,188.61,24.79l22.91,6.5c7.69,2,15.08,5,22.64,7.39,15.17,4.74,29.82,10.9,44.62,16.67,29.18,12.49,58,26,85.33,42.29,55.28,31.44,105.63,71.2,151,115.73,44.53,45.37,84.28,95.71,115.73,151Z" transform="translate(2323.34 686.02)"/><path class="cls-2" d="M-1946.67-121c21.95,1.95,44.21,5,65.61,8.43,9.33-12.43,20-23.78,30-35.63,10.26-11.66,21.29-22.61,31.93-33.92q-8.55-31.3-15.5-64.11a907.54,907.54,0,0,1,116.68-91.1,848.39,848.39,0,0,1,130.25-70.52c18,12.51,35.74,26.37,52.61,40.07,14.35-6,29.12-10.83,43.84-15.78l11-3.73,11.2-3.21,22.42-6.36c5.4-21.43,11.8-42,18.77-63.27,75.68-17.49,153.65-23.54,231-20.8,10.68,19.06,20.59,39.42,29.78,59.06,7.73.69,15.51,1,23.21,2l23.11,2.93c15.46,1.61,30.67,4.92,46,7.51,14.22-17,28.92-32.7,44.47-48.79,73.11,16.74,143.73,43.72,210.07,78.54,1.43,21.86,1.66,44.37,1.46,66.11A839,839,0,0,1-676.44-209.93q30.9-10.14,63.27-18.62c28.44,28.29,55.7,57.9,80,89.88l9.29,11.85,8.78,12.23L-497.7-90c10.75,17,22.08,33.57,31.75,51.19L-548.16,8.75c-34.18-60-77.27-114.7-125.64-163.91C-723-203.53-777.69-246.62-837.71-280.8c-29.68-17.64-61-32.38-92.7-45.92-16.07-6.29-32-12.94-48.48-18.12-8.21-2.64-16.26-5.81-24.6-8l-24.9-7.07c-66.66-18-135.74-26.39-204.77-26.91-69,.52-138.11,8.92-204.77,26.91l-24.9,7.07c-8.35,2.21-16.39,5.38-24.6,8-16.47,5.18-32.41,11.83-48.48,18.12-31.72,13.54-63,28.28-92.7,45.92-60,34.18-114.7,77.27-163.91,125.64C-1840.88-105.95-1884-51.27-1918.15,8.75l-82.21-47.56C-1984.22-67.31-1965.86-94.48-1946.67-121Z" transform="translate(2323.34 686.02)"/><path class="cls-2" d="M-1233.16,1035.6c55.38-.53,110.45-7.14,163.54-21.5l19.83-5.63c6.67-1.7,13-4.34,19.59-6.41,13.15-4.05,25.8-9.46,38.63-14.41,25.24-10.86,50.25-22.49,73.91-36.64,47.94-27.2,91.55-61.77,131-100.34,38.58-39.42,73.15-83,100.34-131,14.15-23.65,25.78-48.66,36.64-73.9,4.95-12.83,10.36-25.48,14.41-38.63,2.08-6.55,4.71-12.92,6.41-19.59l5.63-19.83c14.36-53.09,21-108.17,21.5-163.54-.53-55.38-7.14-110.45-21.5-163.54l-5.63-19.83c-1.7-6.67-4.34-13-6.41-19.59-4.05-13.15-9.46-25.8-14.41-38.63-10.86-25.24-22.49-50.25-36.64-73.9l-86.83,50.23c12,19.86,21.63,40.92,30.81,62.09,4.1,10.79,8.74,21.38,12.08,32.44,1.72,5.5,4,10.83,5.4,16.44l4.72,16.65c12.08,44.57,17.56,90.84,18.1,137.64-.54,46.8-6,93.07-18.1,137.64l-4.72,16.65c-1.38,5.61-3.68,10.93-5.4,16.44-3.34,11.06-8,21.65-12.08,32.44-9.18,21.18-18.85,42.23-30.81,62.09-22.8,40.35-52,77-84.45,110.27-33.26,32.43-69.92,61.64-110.27,84.45-19.86,12-40.92,21.63-62.09,30.81-10.79,4.1-21.38,8.74-32.44,12.08-5.5,1.72-10.83,4-16.44,5.4l-16.65,4.72c-44.57,12.08-90.84,17.56-137.64,18.09Z" transform="translate(2323.34 686.02)"/><path class="cls-2" d="M-516.17,567.68c7-29,11.1-58.61,14.67-88.23l1.68-22.33c.52-7.45,1.34-14.87,1.34-22.36.23-14.94,1.17-29.88.41-44.82l-.55-22.41-1.66-22.34c-.78-14.93-3-29.69-4.82-44.5-.76-7.43-2.18-14.75-3.51-22.09l-3.91-22-5-21.79c-1.71-7.25-3.16-14.58-5.39-21.7l59.39-15.94c2.39,7.73,4,15.66,5.85,23.53l5.42,23.63,4.26,23.87c1.44,8,2.95,15.9,3.8,23.94,2,16,4.35,32,5.22,48.21l1.77,24.19.61,24.25c.79,16.17-.17,32.33-.45,48.5,0,8.09-.88,16.14-1.44,24.21l-1.83,24.18c-3.82,32.1-8.36,64.16-15.88,95.63Z" transform="translate(2323.34 686.02)"/><path class="cls-2" d="M-315.52,287l60.09-7.61c5.45,39.86,7.38,80,8,120.08l-60.57.29C-308.6,362.07-310.37,324.36-315.52,287Z" transform="translate(2323.34 686.02)"/><path class="cls-2" d="M-660.46,1130.68c17.71-13.42,34.16-28.39,50.9-43,16.09-15.3,32.38-30.42,47.42-46.77l43.93,41.7c-16,17.4-33.35,33.53-50.52,49.81-17.81,15.56-35.36,31.46-54.21,45.78Z" transform="translate(2323.34 686.02)"/><path class="cls-2" d="M-959.3,1288.21a941.54,941.54,0,0,0,144.42-58.75l27.42,54a1002.24,1002.24,0,0,1-153.93,62.6Z" transform="translate(2323.34 686.02)"/><path class="cls-2" d="M-343.81,149c-10-36.34-23.24-71.7-37.53-106.55C-396.58,8-412.72-26.09-432-58.47l52.43-30.33c20.49,34.51,37.75,70.85,54,107.56,15.25,37.13,29.31,74.84,40,113.57Z" transform="translate(2323.34 686.02)"/><polygon class="cls-2" points="1999.53 632.5 1990.97 615.82 2053.87 582.64 2063.03 600.48 1999.53 632.5"/><polygon class="cls-2" points="2022.25 680.62 2014.53 663.53 2079.08 633.7 2087.34 651.99 2022.25 680.62"/><polygon class="cls-2" points="2042.43 729.89 2035.57 712.43 2101.6 686.03 2108.94 704.72 2042.43 729.89"/><polygon class="cls-2" points="2060.01 780.17 2054.02 762.38 2121.35 739.49 2127.75 758.52 2060.01 780.17"/><polygon class="cls-2" points="2074.92 831.3 2069.83 813.24 2138.27 793.92 2143.7 813.25 2074.92 831.3"/><path class="cls-2" d="M-220.16,302.24c-.6-6.21-1.47-12.39-2.22-18.59l70.62-8.35c.79,6.63,1.71,13.25,2.36,19.89Z" transform="translate(2323.34 686.02)"/><path class="cls-2" d="M-216.29,355.2c-.18-6.22-.81-12.44-1.22-18.65l71-4.67c.43,6.65,1.09,13.3,1.29,19.95Z" transform="translate(2323.34 686.02)"/><path class="cls-2" d="M-237.26,615.87c1.49-6.08,2.53-12.24,3.65-18.39l69.83,13.44c-1.2,6.58-2.33,13.17-3.91,19.67Z" transform="translate(2323.34 686.02)"/><path class="cls-2" d="M-249.69,667.65q2.65-9,4.68-18.16l69,17.09q-2.17,9.8-5,19.44Z" transform="translate(2323.34 686.02)"/><path class="cls-2" d="M-264.82,718.71c2-5.94,4.07-11.83,5.7-17.87l68,20.7c-1.76,6.46-4,12.77-6.09,19.13Z" transform="translate(2323.34 686.02)"/><path class="cls-2" d="M-282.62,768.9c2.23-5.84,4.67-11.61,6.7-17.52l66.85,24.25c-2.19,6.32-4.77,12.5-7.16,18.75Z" transform="translate(2323.34 686.02)"/><polygon class="cls-2" points="2020.32 1504.1 2027.99 1486.99 2093.48 1514.72 2085.28 1533.04 2020.32 1504.1"/><polygon class="cls-2" points="1997.39 1552.13 2005.9 1535.42 2069.83 1566.55 2060.74 1584.43 1997.39 1552.13"/><polygon class="cls-2" points="1971.99 1598.87 1981.31 1582.61 2043.53 1617.05 2033.57 1634.44 1971.99 1598.87"/><polygon class="cls-2" points="1876.99 1736.29 1888.6 1721.61 1944.35 1765.75 1931.93 1781.44 1876.99 1736.29"/><path class="cls-2" d="M-481.13,1090.41c4.23-4.58,8.24-9.36,12.36-14l53.39,47c-4.4,5-8.7,10.11-13.23,15Z" transform="translate(2323.34 686.02)"/><path class="cls-2" d="M-518,1128.65c4.57-4.25,8.82-8.81,13.14-13.31L-454,1165c-4.63,4.8-9.18,9.68-14.06,14.23Z" transform="translate(2323.34 686.02)"/><path class="cls-2" d="M-556.77,1164.93c4.72-4.08,9.42-8.18,13.88-12.53l48.23,52.26c-4.78,4.65-9.8,9-14.85,13.41Z" transform="translate(2323.34 686.02)"/><path class="cls-2" d="M-597.39,1199.16c4.86-3.91,9.87-7.63,14.58-11.72l45.45,54.69c-5,4.36-10.4,8.36-15.59,12.54Z" transform="translate(2323.34 686.02)"/><polygon class="cls-2" points="1683.61 1917.28 1698.84 1906.38 1741.38 1963.37 1725.11 1975.03 1683.61 1917.28"/><polygon class="cls-2" points="1639.65 1947.14 1655.39 1937.01 1694.92 1996.12 1678.08 2006.98 1639.65 1947.14"/><polygon class="cls-2" points="1594.18 1974.7 1610.41 1965.34 1646.79 2026.44 1629.43 2036.46 1594.18 1974.7"/><polygon class="cls-2" points="1547.31 1999.87 1563.99 1991.32 1597.13 2054.24 1579.28 2063.39 1547.31 1999.87"/><polygon class="cls-2" points="1499.17 2022.56 1516.26 2014.84 1546.05 2079.41 1527.76 2087.67 1499.17 2022.56"/><polygon class="cls-2" points="1348.46 2075.13 1366.52 2070.05 1385.79 2138.5 1366.46 2143.93 1348.46 2075.13"/><polygon class="cls-2" points="1296.62 2087.3 1314.9 2083.13 1330.55 2152.51 1310.98 2156.95 1296.62 2087.3"/><polygon class="cls-2" points="1244.23 2096.69 1262.7 2093.49 1274.68 2163.58 1254.92 2166.99 1244.23 2096.69"/><path class="cls-2" d="M-1131.87,1417.25c6.21-.55,12.4-1.46,18.59-2.19l8.31,70.63c-6.63.78-13.25,1.74-19.89,2.33Z" transform="translate(2323.34 686.02)"/><path class="cls-2" d="M-863.12,1039.69l31,53.11c-74.3,44-156.28,74.32-240.61,92.2l-12.31-60.25C-1007.28,1108.2-931.67,1080.33-863.12,1039.69Z" transform="translate(2323.34 686.02)"/><path class="cls-2" d="M-1233.16,1104.18c61.24-.53,122.33-7.9,181.25-23.82l22-6.25c7.39-1.92,14.48-4.79,21.74-7.11,14.58-4.54,28.64-10.48,42.86-16,28-12,55.74-25,82-40.63,53.13-30.2,101.5-68.43,145.12-111.21,42.79-43.62,81-92,111.21-145.12,15.65-26.24,28.61-54,40.63-82,5.53-14.22,11.47-28.28,16-42.86,2.32-7.26,5.19-14.35,7.11-21.74l6.25-22c15.92-58.92,23.3-120,23.82-181.25-.53-61.24-7.9-122.33-23.82-181.25l-6.25-22c-1.92-7.39-4.79-14.48-7.11-21.74-4.54-14.58-10.48-28.64-16-42.86-12-28-25-55.74-40.63-82l-31.78,18.38c14.85,24.86,27.1,51.12,38.49,77.66,5.22,13.47,10.87,26.78,15.15,40.59,2.19,6.88,4.93,13.59,6.74,20.59l5.91,20.85c15.08,55.8,22,113.67,22.58,171.77-.53,58.1-7.49,116-22.58,171.77l-5.91,20.85c-1.8,7-4.55,13.71-6.74,20.59-4.28,13.81-9.93,27.12-15.15,40.59-11.4,26.54-23.65,52.8-38.49,77.66-28.59,50.35-64.86,96.18-105.4,137.55C-805.52,913.73-851.34,950-901.7,978.6c-24.86,14.85-51.12,27.1-77.66,38.49-13.47,5.22-26.78,10.87-40.59,15.15-6.88,2.19-13.59,4.93-20.59,6.74l-20.85,5.91c-55.8,15.08-113.67,22-171.77,22.58Z" transform="translate(2323.34 686.02)"/><path class="cls-2" d="M-1233.16,1142.12c64.49-.52,128.91-8.33,191-25.11l23.21-6.59c7.79-2,15.28-5,22.93-7.49,15.37-4.81,30.21-11,45.2-16.88,29.56-12.65,58.77-26.35,86.45-42.84,56-31.86,107-72.11,152.95-117.22C-666.26,880-626,829-594.14,773c16.48-27.68,30.18-56.88,42.84-86.45,5.85-15,12.08-29.83,16.89-45.2,2.45-7.66,5.45-15.15,7.49-22.93l6.59-23.21c16.78-62.14,24.58-126.56,25.11-191-.52-64.49-8.33-128.91-25.11-191l-6.59-23.21c-2-7.79-5-15.28-7.49-22.93-4.81-15.37-11-30.21-16.89-45.2C-564,92.24-577.66,63-594.14,35.36l-8.18,4.73C-586,67.41-572.53,96.24-560,125.42c5.77,14.8,11.93,29.45,16.67,44.62C-541,177.6-538,185-536,192.67l6.5,22.91c16.57,61.34,24.26,124.93,24.79,188.61-.53,63.68-8.22,127.27-24.79,188.61l-6.5,22.91c-2,7.69-5,15.08-7.39,22.64-4.74,15.17-10.9,29.82-16.67,44.62-12.49,29.18-26,58-42.29,85.33-31.44,55.28-71.2,105.63-115.73,151-45.37,44.53-95.71,84.28-151,115.73-27.32,16.27-56.15,29.79-85.33,42.29-14.8,5.77-29.45,11.93-44.62,16.67-7.56,2.42-14.95,5.38-22.64,7.39l-22.91,6.5c-61.34,16.57-124.93,24.26-188.61,24.79Z" transform="translate(2323.34 686.02)"/><path class="cls-2" d="M-421.53,48.77c-12.51,18-26.27,35.74-40,52.65,2.76,7.26,5.89,14.38,8.35,21.75l7.47,22.08c5.32,14.61,8.94,29.75,13.35,44.64,21.51,5.36,42,11.75,63.3,18.7a896,896,0,0,1,20.52,146.66,941.8,941.8,0,0,1-4.22,147.88q-30.52,13.9-60.81,25.6c-2.63,15.31-5.24,30.63-8.28,45.86l-5.24,22.71c-1.74,7.57-3.4,15.16-5.67,22.6q23.18,22.89,45.72,47.92l-9.31,27.58-4.7,13.78-5.32,13.55-10.73,27.06-12,26.53c-2,4.41-4,8.86-6.07,13.23l-6.62,13c-4.45,8.62-8.77,17.31-13.37,25.85-9.78,16.74-18.91,33.89-29.71,50-22.37-.63-43.83-1.54-65.91-3.75-9.07,12.6-17.73,25.52-27.59,37.54l-14.4,18.32-15.2,17.65q5.5,15.45,10.63,31.31c3.35,10.51,6.38,21,9.39,31.67l-19.42,20.28-20.31,19.39-10.19,9.66-10.6,9.21L-669.68,1088l-22.07,17.37-11.05,8.66-11.43,8.16-22.9,16.27-23.62,15.21c-9.93-5-19.62-9.94-29.3-15.24s-19.3-10.84-28.71-16.41a830,830,0,0,1-160.87,71.48c-4.28,21.75-9.65,42.53-15.53,64.15l-14.5,4.1c-4.84,1.33-9.77,2.33-14.65,3.51l-29.37,6.76-29.65,5.37-14.84,2.63-14.94,1.93-29.89,3.76-30,2.3-15,1.1-15,.4-30.07.74v-95c69-.52,138.11-8.92,204.77-26.91l24.9-7.07c8.35-2.21,16.39-5.38,24.6-8,16.47-5.18,32.41-11.83,48.48-18.12,31.72-13.54,63-28.28,92.7-45.93,60-34.18,114.7-77.27,163.91-125.64,48.37-49.21,91.46-103.89,125.64-163.91,17.64-29.68,32.38-61,45.92-92.7,6.29-16.07,12.94-32,18.12-48.48,2.64-8.21,5.81-16.26,8-24.6L-469,609c18-66.66,26.39-135.74,26.91-204.77-.52-69-8.92-138.11-26.91-204.77l-7.07-24.9c-2.21-8.35-5.39-16.39-8-24.6-5.18-16.47-11.83-32.41-18.12-48.48-13.55-31.72-28.28-63-45.92-92.7L-466-38.81l12.19,21.32,11.22,21.86C-434.8,18.81-428.3,33.85-421.53,48.77Z" transform="translate(2323.34 686.02)"/><path class="cls-2" d="M-1192.55,646a242.35,242.35,0,0,0,37.07-8l9-2.91c3-1.08,5.92-2.22,8.88-3.33l2.22-.84,2.17-.95,4.35-1.89c1.45-.64,2.91-1.24,4.34-1.91l4.25-2.1a233.91,233.91,0,0,0,61.52-43.9L-993,646.28a327.15,327.15,0,0,1-86.07,61.42l-6,2.93c-2,.95-4,1.8-6.08,2.7l-6.1,2.64-3.06,1.31-3.1,1.19c-4.14,1.57-8.28,3.16-12.45,4.65l-12.64,4.09a335.42,335.42,0,0,1-51.85,11.15Z" transform="translate(2323.34 686.02)"/><path class="cls-2" d="M-1173.41,562.5a154.48,154.48,0,0,0,51.74-29.5l39.93,46.38a215.75,215.75,0,0,1-72.19,41.14Z" transform="translate(2323.34 686.02)"/><path class="cls-2" d="M-1232.7,570.34a156.83,156.83,0,0,0,59.3-7.84l19.48,58a218,218,0,0,1-82.45,10.91Z" transform="translate(2323.34 686.02)"/><path class="cls-2" d="M-1281.65,559.39a157,157,0,0,0,39.24,10l-7.45,60.74a218.16,218.16,0,0,1-54.64-14Z" transform="translate(2323.34 686.02)"/><path class="cls-2" d="M-1350.6,504.79a148.22,148.22,0,0,0,14.8,17.85l2,2.13c.68.69,1.42,1.33,2.12,2,1.42,1.32,2.8,2.7,4.23,4,3,2.47,5.82,5.13,8.94,7.39l-37.46,48.4c-4.33-3.19-8.31-6.81-12.41-10.28-2-1.82-3.9-3.7-5.86-5.54-1-.93-2-1.83-2.91-2.79l-2.78-2.93a209.3,209.3,0,0,1-20.55-24.79Z" transform="translate(2323.34 686.02)"/><path class="cls-2" d="M-1369,470.47l.89,2.4c.28.81.68,1.57,1,2.35q1,2.34,2,4.7c.72,1.55,1.53,3.05,2.26,4.59l1.12,2.3c.37.77.84,1.49,1.24,2.24l-53.77,29.23c-.57-1-1.19-2.07-1.72-3.13l-1.58-3.21c-1-2.14-2.15-4.26-3.14-6.42l-2.85-6.56c-.46-1.1-1-2.17-1.39-3.29l-1.26-3.35Z" transform="translate(2323.34 686.02)"/><path class="cls-2" d="M-1339,617.4l4.14,2.31c1.39.75,2.74,1.59,4.17,2.25l8.51,4.21c5.78,2.57,11.56,5.15,17.52,7.27a238.85,238.85,0,0,0,36.49,10.31,242.92,242.92,0,0,0,37.69,4.17l4.74.11,2.37.06,2.37-.05c3.16-.09,6.33-.12,9.49-.25l9.47-.68c3.15-.27,6.29-.73,9.43-1.08l12.17,92.34c-4.39.51-8.77,1.11-13.18,1.49l-13.22.94c-4.41.19-8.83.26-13.25.37l-3.31.06-3.31-.06-6.63-.15a336,336,0,0,1-52.66-5.84A332,332,0,0,1-1337,720.76c-8.34-3-16.47-6.57-24.55-10.22l-11.93-5.89c-2-1-3.91-2.09-5.86-3.15l-5.81-3.24Z" transform="translate(2323.34 686.02)"/><path class="cls-2" d="M-1448.55,475.76a231.09,231.09,0,0,0,19,48.29,235.32,235.32,0,0,0,29.36,42.8l-70.54,60.82a328.5,328.5,0,0,1-41.08-59.95,324.26,324.26,0,0,1-26.66-67.66Z" transform="translate(2323.34 686.02)"/><path class="cls-2" d="M-1439.07,325.48a233.44,233.44,0,0,0-17.08,73.63,243.09,243.09,0,0,0,.49,37.92,242.14,242.14,0,0,0,6.72,37.32L-1539,498.09a335.21,335.21,0,0,1-9.38-52.18,336.14,336.14,0,0,1-.71-53,326.61,326.61,0,0,1,23.92-103Z" transform="translate(2323.34 686.02)"/><path class="cls-2" d="M-1376.21,383.71a157.41,157.41,0,0,0-.38,59.88l-60.15,11.28a218.61,218.61,0,0,1,.53-83.19Z" transform="translate(2323.34 686.02)"/><path class="cls-2" d="M-1353.53,328.64a155.21,155.21,0,0,0-22.68,55.07l-60-12a216.44,216.44,0,0,1,31.66-76.83Z" transform="translate(2323.34 686.02)"/><path class="cls-2" d="M-1319.32,291.7a156.75,156.75,0,0,0-28.55,29l-48.81-36.92a217.85,217.85,0,0,1,39.59-40.27Z" transform="translate(2323.34 686.02)"/><path class="cls-2" d="M-1237.82,259.26a181.58,181.58,0,0,0-22.84,3.83,177.88,177.88,0,0,0-21.94,7.16l-23.23-56.62a238.17,238.17,0,0,1,30.59-10,241.7,241.7,0,0,1,31.76-5.33Z" transform="translate(2323.34 686.02)"/><path class="cls-2" d="M-1198.65,260.56c-.85-.13-1.69-.33-2.54-.42l-2.56-.29c-1.71-.18-3.4-.46-5.12-.6-3.43-.18-6.85-.59-10.29-.56l1.59-61.18c4.78,0,9.53.49,14.3.79,2.38.2,4.74.55,7.11.82l3.55.42c1.18.14,2.35.39,3.53.57Z" transform="translate(2323.34 686.02)"/><path class="cls-2" d="M-1341,213a246.12,246.12,0,0,0-31,21.76l-7.2,6.18c-2.33,2.14-4.59,4.35-6.9,6.53s-4.45,4.5-6.65,6.77l-3.27,3.44c-1.09,1.15-2.08,2.39-3.12,3.58l-3.09,3.6c-1,1.21-2.09,2.38-3,3.65l-5.81,7.5c-3.65,5.16-7.36,10.3-10.61,15.73l-2.52,4c-.79,1.37-1.55,2.76-2.32,4.14l-2.31,4.14-1.15,2.07-1,2.13c-1.39,2.84-2.82,5.66-4.18,8.51l-3.78,8.7-86.1-35.54,5.31-12.2c1.89-4,3.88-8,5.85-11.95l1.49-3,1.6-2.91,3.23-5.81c1.09-1.93,2.16-3.87,3.28-5.79l3.5-5.65c4.59-7.59,9.72-14.83,14.88-22l8.12-10.5c1.34-1.77,2.8-3.42,4.23-5.1l4.31-5c1.46-1.66,2.86-3.37,4.37-5l4.54-4.81c3.05-3.18,6-6.43,9.26-9.43s6.37-6.1,9.62-9.07l10-8.64A339.06,339.06,0,0,1-1388,132.59Z" transform="translate(2323.34 686.02)"/><path class="cls-2" d="M-1163.54,189a234.76,234.76,0,0,0-103.12-3.72l-17.23-91.54a327.9,327.9,0,0,1,144.1,5.19Z" transform="translate(2323.34 686.02)"/><path class="cls-2" d="M-1038.21,272.36c-3.77-5.08-8-9.81-12.14-14.59l-6.54-6.88c-1.07-1.17-2.22-2.25-3.37-3.34l-3.44-3.27c-1.15-1.08-2.28-2.2-3.45-3.26l-3.6-3.09-3.6-3.09c-.6-.51-1.19-1-1.81-1.53l-1.88-1.45c-2.51-1.93-5-3.89-7.51-5.8l-7.79-5.43a243.1,243.1,0,0,0-33.09-18.49l-8.7-3.78L-1144,195c-.74-.27-1.48-.57-2.22-.83l-2.26-.73L-1153,192c-1.51-.47-3-1-4.53-1.42l-4.58-1.23,24.31-89.92,6.41,1.75c2.13.59,4.23,1.31,6.34,2l6.32,2,3.16,1c1,.36,2.08.76,3.12,1.15,4.15,1.55,8.3,3.11,12.43,4.72l12.2,5.29a336.09,336.09,0,0,1,46.4,25.92l10.9,7.61c3.54,2.65,7,5.38,10.52,8.09l2.61,2c.87.69,1.69,1.42,2.54,2.13l5,4.31,5,4.33c1.63,1.48,3.22,3,4.82,4.52l4.79,4.56c1.59,1.52,3.19,3,4.69,4.65l9.1,9.59c5.83,6.63,11.66,13.27,17,20.36Z" transform="translate(2323.34 686.02)"/><path class="cls-2" d="M-1120.16,297.54a154.07,154.07,0,0,0-51.37-30.2l20.22-57.76a215.34,215.34,0,0,1,71.66,42.09Z" transform="translate(2323.34 686.02)"/><path class="cls-2" d="M-1083.65,344.91a154.72,154.72,0,0,0-15.9-25.33,160.71,160.71,0,0,0-20.61-22l40.51-45.87a218.63,218.63,0,0,1,50.74,65.89Z" transform="translate(2323.34 686.02)"/><path class="cls-2" d="M-1068.75,392.71c-.23-1.68-.58-3.34-.84-5l-.41-2.51c-.13-.84-.36-1.65-.54-2.48q-.56-2.48-1.07-5c-.41-1.64-.9-3.26-1.32-4.9l-.64-2.46c-.23-.81-.53-1.61-.78-2.41q-.79-2.41-1.54-4.83l-1.8-4.74-.87-2.38c-.32-.78-.68-1.54-1-2.32l56.36-23.86c.47,1.08,1,2.15,1.4,3.24l1.24,3.31,2.49,6.62,2.17,6.73c.35,1.12.75,2.24,1.07,3.37l.92,3.42c.6,2.28,1.25,4.54,1.83,6.83l1.51,6.91c.24,1.15.54,2.3.73,3.46l.58,3.49c.37,2.33.83,4.64,1.15,7Z" transform="translate(2323.34 686.02)"/><path class="cls-2" d="M-1081.4,479.77a169.43,169.43,0,0,0,8-21.62q.73-2.8,1.51-5.58c.49-1.86.81-3.77,1.26-5.65.2-.94.46-1.88.62-2.83l.46-2.86.49-2.85c.08-.48.18-.95.25-1.43l.16-1.44,60.66,8.12-.24,2c-.09.66-.22,1.32-.33,2l-.67,4-.67,4c-.23,1.32-.56,2.63-.84,3.94-.6,2.62-1.09,5.26-1.77,7.86l-2.1,7.78a230.25,230.25,0,0,1-11.19,30.16Z" transform="translate(2323.34 686.02)"/><path class="cls-2" d="M-1102,512.86q1.55-2.05,3.13-4.08l1.59-2,1.45-2.12q1.46-2.11,3-4.19l2.7-4.35,52.16,32-3.79,6.07-4.1,5.86-2,2.94-2.19,2.83-4.38,5.66Z" transform="translate(2323.34 686.02)"/><path class="cls-2" d="M-989.82,413.46a232.37,232.37,0,0,0-3.29-37.78l-.79-4.68c-.24-1.56-.65-3.1-1-4.64l-1-4.64-.51-2.32c-.17-.77-.4-1.53-.6-2.29l-2.48-9.16-2.91-9a241.84,241.84,0,0,0-15.16-34.74l-4.63-8.28-5-8c-.43-.67-.82-1.35-1.27-2l-1.36-1.95-2.71-3.89c-.91-1.29-1.78-2.61-2.73-3.88l-2.91-3.75,73.78-56.86,4,5.26c1.33,1.77,2.57,3.61,3.85,5.42l3.8,5.45,1.89,2.73c.63.91,1.2,1.87,1.79,2.8l7,11.29q3.29,5.78,6.5,11.61a334.87,334.87,0,0,1,21.25,48.7l4.07,12.65c1.2,4.26,2.35,8.54,3.49,12.82.28,1.07.58,2.14.83,3.21l.72,3.24,1.42,6.48c.45,2.17,1,4.32,1.34,6.5l1.12,6.54A325.49,325.49,0,0,1-896.68,413Z" transform="translate(2323.34 686.02)"/><path class="cls-2" d="M-1057.67,579.18a235.17,235.17,0,0,0,54.82-87.41l87.94,30.71A328,328,0,0,1-946.5,588a329,329,0,0,1-45.1,56.82Z" transform="translate(2323.34 686.02)"/></svg>